{"glyphs":{"0":{"ha":878,"x_min":0,"x_max":0,"o":"m 826 486 b 439 -14 826 206 663 -14 b 51 486 215 -14 51 206 b 439 986 51 767 215 986 b 826 486 663 986 826 767 m 685 486 b 439 956 685 756 606 956 b 193 486 272 956 193 756 b 439 17 193 217 272 17 b 685 486 606 17 685 217 "},"1":{"ha":486,"x_min":0,"x_max":0,"o":"m 43 0 l 43 6 b 190 117 158 44 190 46 l 190 850 b 32 967 190 919 157 921 l 32 972 l 315 972 l 315 117 b 461 6 315 46 351 44 l 461 0 "},"2":{"ha":731,"x_min":0,"x_max":0,"o":"m 332 963 b 150 774 213 963 150 878 b 267 640 150 696 192 640 b 319 653 294 640 307 644 l 322 653 b 203 572 303 604 264 572 b 43 743 108 572 43 643 b 332 986 43 875 157 986 b 657 726 519 986 657 892 b 151 110 657 553 514 411 l 378 110 b 679 244 543 110 603 117 l 682 244 l 640 0 l 4 0 l 4 3 b 521 724 431 382 521 542 b 332 963 521 856 471 963 "},"3":{"ha":710,"x_min":0,"x_max":0,"o":"m 313 13 b 539 269 447 13 539 122 b 260 518 539 442 436 518 l 260 529 b 490 761 440 536 490 629 b 322 960 490 876 442 960 b 167 824 218 960 167 892 b 240 742 167 775 194 742 b 276 747 256 742 267 743 l 279 747 b 172 678 260 696 218 678 b 61 794 110 678 61 722 b 322 986 61 896 164 986 b 625 761 517 986 625 890 b 372 532 625 626 521 553 b 672 269 540 525 672 421 b 313 -14 672 85 513 -14 b 10 203 156 -14 10 65 b 135 339 10 286 68 339 b 233 267 186 339 218 315 l 231 267 b 193 274 219 272 208 274 b 125 189 151 274 125 238 b 313 13 125 76 206 13 "},"4":{"ha":807,"x_min":0,"x_max":0,"o":"m 457 849 l 75 303 l 457 303 m 457 265 l 7 265 l 7 268 l 515 986 l 582 986 l 582 303 l 642 303 b 771 408 719 303 740 324 l 774 408 l 774 160 l 771 160 b 642 265 740 244 719 265 l 582 265 l 582 178 b 661 3 582 86 594 31 l 661 0 l 378 0 l 378 3 b 457 178 444 31 457 86 "},"5":{"ha":731,"x_min":0,"x_max":0,"o":"m 317 13 b 550 313 478 13 550 149 b 325 567 550 469 468 567 b 118 460 235 567 158 506 l 117 460 l 167 979 b 432 954 258 964 356 954 b 639 1021 532 954 589 957 l 642 1021 b 432 828 642 921 600 828 b 190 860 339 828 240 847 l 158 526 b 376 615 200 571 276 615 b 682 321 563 615 682 504 b 317 -14 682 124 514 -14 b 14 203 160 -14 14 65 b 139 339 14 294 72 339 b 238 267 190 339 222 315 l 235 267 b 197 274 224 272 213 274 b 129 189 156 274 129 238 b 317 13 129 76 210 13 "},"6":{"ha":781,"x_min":0,"x_max":0,"o":"m 457 986 b 721 796 604 986 721 911 b 610 675 721 724 672 675 b 500 749 564 675 515 696 l 503 749 b 546 739 517 740 532 739 b 615 824 588 739 615 775 b 457 960 615 907 550 960 b 179 493 264 960 179 736 b 183 421 179 471 181 439 b 446 601 218 524 306 601 b 736 301 582 601 736 524 b 413 -14 736 122 607 -14 b 51 467 167 -14 51 229 b 457 986 51 757 203 986 m 607 300 b 408 565 607 460 546 565 b 208 300 283 565 208 453 b 417 15 208 149 269 15 b 607 300 546 15 607 136 "},"7":{"ha":688,"x_min":0,"x_max":0,"o":"m 701 972 l 701 969 l 571 775 b 367 13 408 532 367 314 l 218 -1 b 550 789 251 321 378 547 l 601 861 l 239 861 b 25 733 118 861 72 839 l 22 733 l 51 986 b 151 972 76 975 110 972 "},"8":{"ha":760,"x_min":0,"x_max":0,"o":"m 453 535 b 722 249 642 467 722 375 b 385 -14 722 99 596 -14 b 38 240 190 -14 38 72 b 286 479 38 361 146 451 b 89 732 178 525 89 617 b 381 986 89 893 213 986 b 678 763 544 986 678 899 b 453 535 678 624 547 558 m 201 767 b 354 576 201 668 261 615 l 439 540 b 564 763 506 578 564 649 b 381 961 564 869 503 961 b 201 767 263 961 201 874 m 299 472 b 156 242 203 428 156 339 b 385 14 156 107 236 14 b 604 213 517 14 604 90 b 415 426 604 314 540 378 l 299 472 "},"9":{"ha":781,"x_min":0,"x_max":0,"o":"m 174 672 b 372 407 174 513 235 407 b 572 672 497 407 572 519 b 364 957 572 824 511 957 b 174 672 235 957 174 836 m 324 -14 b 60 176 176 -14 60 61 b 171 297 60 249 108 297 b 281 224 217 297 265 276 l 278 224 b 235 233 264 232 249 233 b 165 149 193 233 165 197 b 324 13 165 65 231 13 b 601 479 517 13 601 236 b 597 551 601 501 600 533 b 335 371 563 449 475 371 b 44 671 199 371 44 449 b 368 986 44 850 174 986 b 729 506 614 986 729 743 b 324 -14 729 215 578 -14 "}," ":{"ha":278,"x_min":0,"x_max":0,"o":""},"!":{"ha":361,"x_min":0,"x_max":0,"o":"m 268 972 l 185 283 l 178 283 l 93 972 m 275 82 b 181 -12 275 29 233 -12 b 86 82 129 -12 86 29 b 181 178 86 136 129 178 b 275 82 233 178 275 136 "},"\"":{"ha":514,"x_min":0,"x_max":0,"o":"m 360 599 b 285 936 360 599 329 832 b 361 986 299 963 328 986 b 438 936 394 986 424 963 b 363 599 393 832 363 599 m 151 599 b 76 936 151 599 121 832 b 153 986 90 963 119 986 b 229 936 186 986 215 963 b 154 599 185 832 154 599 "},"#":{"ha":882,"x_min":0,"x_max":0,"o":"m 567 635 l 357 635 l 315 338 l 525 338 m 521 310 l 311 310 l 267 0 l 240 0 l 285 310 l 58 310 l 63 338 l 289 338 l 331 635 l 85 635 l 89 663 l 335 663 l 379 972 l 406 972 l 361 663 l 571 663 l 615 972 l 643 972 l 599 663 l 824 663 l 819 635 l 594 635 l 553 338 l 799 338 l 793 310 l 549 310 l 504 0 l 476 0 "},"$":{"ha":797,"x_min":0,"x_max":0,"o":"m 401 961 b 356 957 385 961 369 960 l 356 582 l 446 554 l 446 958 b 401 961 432 960 417 961 m 190 771 b 335 589 190 664 243 619 l 335 953 b 190 771 243 931 190 860 m 386 11 b 446 15 407 11 428 13 l 446 429 l 356 454 l 356 13 b 386 11 365 11 375 11 m 467 19 b 639 231 578 43 639 121 b 467 424 639 331 583 392 m 356 -14 l 356 -158 l 335 -158 l 335 -12 b 50 182 163 1 50 83 b 156 289 50 250 99 289 b 235 256 192 289 215 275 b 165 172 193 257 165 231 b 335 15 165 93 232 31 l 335 460 b 83 724 186 506 83 575 b 335 982 83 861 183 960 l 335 1125 l 356 1125 l 356 983 b 401 986 371 985 386 986 b 446 985 417 986 432 986 l 446 1125 l 467 1125 l 467 983 b 711 811 611 968 711 901 b 614 719 711 744 664 719 b 538 743 585 719 550 729 b 606 826 569 743 606 774 b 467 956 606 892 551 939 l 467 549 l 488 542 b 742 271 636 497 742 432 b 467 -7 742 115 617 18 l 467 -158 l 446 -158 l 446 -10 b 386 -14 426 -12 406 -14 "},"%":{"ha":871,"x_min":0,"x_max":0,"o":"m 146 0 l 657 931 b 497 871 624 901 572 871 b 392 890 458 871 425 878 b 422 783 410 860 422 821 b 225 581 422 675 336 581 b 28 783 114 581 28 675 b 225 986 28 892 114 986 b 499 897 339 986 353 897 b 700 999 600 897 638 938 l 717 986 l 196 0 m 225 604 b 321 783 296 604 321 688 b 225 963 321 879 296 963 b 129 783 154 963 129 879 b 225 604 129 688 154 604 m 646 -7 b 449 196 535 -7 449 88 b 646 399 449 304 535 399 b 843 196 757 399 843 304 b 646 -7 843 88 757 -7 m 646 17 b 742 196 717 17 742 100 b 646 375 742 292 717 375 b 550 196 575 375 550 292 b 646 17 550 100 575 17 "},"&":{"ha":976,"x_min":0,"x_max":0,"o":"m 413 543 b 569 775 504 586 569 657 b 410 960 569 872 514 960 b 251 796 308 960 251 892 b 361 597 251 713 297 663 m 413 33 b 654 122 506 33 589 65 l 300 486 b 176 261 208 433 176 356 b 413 33 176 128 281 33 m 676 99 b 374 -14 600 28 499 -14 b 53 238 200 -14 53 72 b 288 499 53 351 133 439 l 239 549 b 149 749 186 601 149 672 b 410 986 149 894 268 986 b 678 775 592 986 678 890 b 428 528 678 649 565 571 l 729 215 b 785 388 758 265 776 322 b 685 521 793 457 774 489 l 685 524 l 928 524 l 928 521 b 829 388 850 494 842 454 b 753 192 814 315 789 249 l 825 117 b 985 3 878 61 918 31 l 985 0 l 772 0 "},"'":{"ha":306,"x_min":0,"x_max":0,"o":"m 151 599 b 76 936 151 599 121 832 b 153 986 90 963 119 986 b 229 936 186 986 215 963 b 154 599 185 832 154 599 "},"(":{"ha":463,"x_min":0,"x_max":0,"o":"m 68 435 b 421 1040 68 721 231 924 l 443 1040 b 196 435 297 915 196 686 b 443 -171 196 183 297 -46 l 421 -171 b 68 435 231 -54 68 149 "},")":{"ha":463,"x_min":0,"x_max":0,"o":"m 42 1040 b 394 435 232 924 394 721 b 42 -171 394 149 232 -54 l 19 -171 b 267 435 165 -46 267 183 b 19 1040 267 686 165 915 l 42 1040 "},"*":{"ha":533,"x_min":0,"x_max":0,"o":"m 329 1040 b 276 851 307 1019 282 926 b 439 961 347 881 426 932 l 478 842 b 282 833 450 857 356 851 b 436 711 332 775 404 717 l 335 638 b 267 821 342 669 307 757 b 199 638 226 757 192 669 l 97 711 b 251 833 129 717 201 775 b 56 842 178 851 83 857 l 94 961 b 257 851 107 932 186 881 b 204 1040 251 926 226 1019 "},"+":{"ha":665,"x_min":0,"x_max":0,"o":"m 350 429 l 350 176 l 314 176 l 314 429 l 61 429 l 61 465 l 314 465 l 314 718 l 350 718 l 350 465 l 604 465 l 604 429 "},",":{"ha":306,"x_min":0,"x_max":0,"o":"m 196 33 b 133 6 183 14 161 6 b 57 82 90 6 57 39 b 149 168 57 132 93 168 b 258 28 215 168 258 114 b 17 -192 258 -93 157 -187 l 17 -171 b 196 33 128 -157 211 -83 "},"-":{"ha":440,"x_min":0,"x_max":0,"o":"m 47 406 l 393 406 l 393 364 l 47 364 "},".":{"ha":306,"x_min":0,"x_max":0,"o":"m 247 82 b 153 -12 247 29 204 -12 b 58 82 100 -12 58 29 b 153 178 58 136 100 178 b 247 82 204 178 247 136 "},"/":{"ha":476,"x_min":0,"x_max":0,"o":"m 408 1040 l 449 1040 l 40 -171 l 0 -171 "},":":{"ha":306,"x_min":0,"x_max":0,"o":"m 247 521 b 153 426 247 468 204 426 b 58 521 100 426 58 468 b 153 617 58 575 100 617 b 247 521 204 617 247 575 m 247 82 b 153 -12 247 29 204 -12 b 58 82 100 -12 58 29 b 153 178 58 136 100 178 b 247 82 204 178 247 136 "},";":{"ha":306,"x_min":0,"x_max":0,"o":"m 247 521 b 153 426 247 468 204 426 b 58 521 100 426 58 468 b 153 617 58 575 100 617 b 247 521 204 617 247 575 m 196 33 b 133 6 183 14 161 6 b 57 82 90 6 57 39 b 149 168 57 132 93 168 b 258 28 215 168 258 114 b 17 -192 258 -93 157 -187 l 17 -171 b 196 33 128 -157 211 -83 "},"<":{"ha":488,"x_min":0,"x_max":0,"o":"m 39 451 l 433 681 l 433 638 l 96 444 l 433 251 l 433 208 l 39 438 "},"=":{"ha":672,"x_min":0,"x_max":0,"o":"m 64 556 l 608 556 l 608 519 l 64 519 m 64 379 l 608 379 l 608 343 l 64 343 "},">":{"ha":488,"x_min":0,"x_max":0,"o":"m 449 438 l 54 208 l 54 251 l 392 444 l 54 638 l 54 681 l 449 451 "},"?":{"ha":682,"x_min":0,"x_max":0,"o":"m 331 957 b 146 790 215 957 146 879 b 235 688 146 731 183 688 b 292 704 249 688 275 692 l 294 704 b 172 615 272 646 232 615 b 38 763 97 615 38 672 b 331 986 38 885 153 986 b 644 722 521 986 644 867 b 325 383 644 544 492 428 l 325 279 l 297 279 l 297 510 b 531 757 438 539 531 617 b 331 957 531 858 461 957 m 313 178 b 407 82 365 178 407 136 b 313 -12 407 29 365 -12 b 218 82 261 -12 218 29 b 313 178 218 136 261 178 "},"@":{"ha":1268,"x_min":0,"x_max":0,"o":"m 850 235 b 936 110 828 149 871 110 b 1150 453 1031 110 1150 219 b 671 900 1150 731 931 900 b 146 322 385 900 146 644 b 663 -190 146 19 363 -190 b 1101 -50 836 -190 972 -153 l 1107 -57 b 663 -228 994 -175 838 -228 b 56 324 314 -228 56 -21 b 671 931 56 681 335 931 b 1213 453 960 931 1213 760 b 924 63 1213 175 1056 63 b 750 210 825 63 750 113 b 543 63 711 126 640 63 b 360 269 435 63 360 140 b 671 636 360 465 494 636 b 826 524 761 636 814 582 b 949 635 851 567 907 619 m 790 422 b 694 603 821 547 769 603 b 472 268 567 603 472 432 b 575 107 472 178 508 107 b 765 314 669 107 738 192 "},"A":{"ha":971,"x_min":0,"x_max":0,"o":"m 247 361 l 632 361 l 435 801 m 218 0 l -1 0 l -1 3 b 129 188 53 31 89 96 l 478 986 l 482 986 l 858 156 b 971 3 900 65 917 31 l 971 0 l 682 0 l 682 3 b 746 76 722 19 746 43 b 722 160 746 99 738 126 l 649 325 l 232 325 l 175 192 b 151 96 163 163 151 131 b 218 3 151 54 179 19 "},"B":{"ha":901,"x_min":0,"x_max":0,"o":"m 64 0 l 64 3 b 143 178 131 31 143 86 l 143 794 b 64 969 143 886 131 942 l 64 972 l 458 972 b 806 724 658 972 806 907 b 546 501 806 590 686 514 b 858 256 686 496 858 419 b 488 0 858 69 713 0 m 443 511 b 676 724 586 511 676 583 b 443 936 676 864 586 936 l 268 936 l 268 511 m 467 36 b 725 256 626 36 725 106 b 467 475 725 406 626 475 l 268 475 l 268 36 "},"C":{"ha":944,"x_min":0,"x_max":0,"o":"m 876 681 l 874 681 b 546 954 817 840 700 954 b 194 486 322 954 194 756 b 547 49 194 211 358 49 b 893 281 707 49 824 113 l 901 278 b 526 -14 868 100 729 -14 b 50 486 256 -14 50 186 b 546 986 50 772 272 986 b 775 938 657 986 732 938 b 865 986 821 938 847 965 "},"D":{"ha":1022,"x_min":0,"x_max":0,"o":"m 64 3 b 143 178 131 31 143 86 l 143 794 b 64 969 143 886 131 942 l 64 972 l 401 972 b 972 497 736 972 972 811 b 435 0 972 160 726 0 l 64 0 m 410 36 b 835 497 639 36 835 160 b 389 936 835 790 640 936 l 268 936 l 268 36 "},"E":{"ha":892,"x_min":0,"x_max":0,"o":"m 696 972 b 763 982 721 972 747 974 l 810 742 l 807 742 b 500 936 735 874 656 936 l 268 936 l 268 511 l 464 511 b 658 665 576 511 611 536 l 661 665 l 661 342 l 658 342 b 464 475 611 469 576 475 l 268 475 l 268 36 l 529 36 b 849 256 685 36 775 108 l 851 256 l 807 0 l 64 0 l 64 3 b 143 178 131 31 143 86 l 143 794 b 64 969 143 886 131 942 l 64 972 "},"F":{"ha":851,"x_min":0,"x_max":0,"o":"m 268 167 b 382 3 268 79 285 36 l 382 0 l 64 0 l 64 3 b 143 178 131 31 143 86 l 143 794 b 64 969 143 886 131 942 l 64 972 l 690 972 b 757 982 715 972 742 974 l 804 742 l 801 742 b 494 936 729 874 650 936 l 268 936 l 268 501 l 458 501 b 653 656 571 501 606 526 l 656 656 l 656 332 l 653 332 b 458 465 606 460 571 465 l 268 465 "},"G":{"ha":1032,"x_min":0,"x_max":0,"o":"m 547 954 b 194 472 322 954 194 758 b 543 39 194 210 338 39 b 796 264 692 39 796 119 l 796 279 b 717 454 796 371 783 426 l 717 457 l 1000 457 l 1000 454 b 921 279 933 426 921 371 l 921 -14 l 918 -14 l 807 163 b 526 -14 775 75 674 -14 b 50 474 251 -14 50 192 b 547 986 50 775 272 986 b 776 938 658 986 733 938 b 867 986 822 938 849 965 l 878 681 l 875 681 b 547 954 818 840 701 954 "},"H":{"ha":1101,"x_min":0,"x_max":0,"o":"m 143 794 b 64 969 143 886 131 942 l 64 972 l 347 972 l 347 969 b 268 794 281 942 268 886 l 268 513 l 833 513 l 833 794 b 754 969 833 886 821 942 l 754 972 l 1038 972 l 1038 969 b 958 794 971 942 958 886 l 958 178 b 1038 3 958 86 971 31 l 1038 0 l 754 0 l 754 3 b 833 178 821 31 833 86 l 833 476 l 268 476 l 268 178 b 347 3 268 86 281 31 l 347 0 l 64 0 l 64 3 b 143 178 131 31 143 86 "},"I":{"ha":411,"x_min":0,"x_max":0,"o":"m 268 178 b 347 3 268 86 281 31 l 347 0 l 64 0 l 64 3 b 143 178 131 31 143 86 l 143 794 b 64 969 143 886 131 942 l 64 972 l 347 972 l 347 969 b 268 794 281 942 268 886 l 268 178 "},"J":{"ha":738,"x_min":0,"x_max":0,"o":"m 490 794 b 411 969 490 886 478 942 l 411 972 l 694 972 l 694 969 b 615 794 628 942 615 886 l 615 261 b 315 -14 615 83 486 -14 b 29 192 147 -14 29 69 b 158 318 29 269 81 318 b 240 290 189 318 219 308 b 156 182 182 283 156 242 b 315 13 156 88 214 13 b 490 253 443 13 490 111 "},"K":{"ha":964,"x_min":0,"x_max":0,"o":"m 64 0 l 64 3 b 143 178 131 31 143 86 l 143 794 b 64 969 143 886 131 942 l 64 972 l 347 972 l 347 969 b 268 794 281 942 268 886 l 268 461 l 658 836 b 699 907 683 860 699 885 b 649 969 699 933 681 956 l 649 972 l 921 972 l 921 969 b 704 831 821 932 769 890 l 439 579 l 792 156 b 971 3 851 86 915 26 l 971 0 l 656 0 l 656 3 b 692 57 682 17 692 29 b 654 132 692 83 678 103 l 356 499 l 268 415 l 268 178 b 347 3 268 86 281 31 l 347 0 "},"L":{"ha":843,"x_min":0,"x_max":0,"o":"m 347 972 l 347 969 b 268 794 281 942 268 886 l 268 36 l 493 36 b 813 269 649 36 739 122 l 815 269 l 771 0 l 64 0 l 64 3 b 143 178 131 31 143 86 l 143 794 b 64 969 143 886 131 942 l 64 972 "},"M":{"ha":1226,"x_min":0,"x_max":0,"o":"m 182 199 b 286 3 182 93 219 31 l 286 0 l 39 0 l 39 3 b 143 199 106 31 143 93 l 143 794 b 64 969 143 886 131 942 l 64 972 l 283 972 l 632 185 l 957 972 l 1163 972 l 1163 969 b 1083 794 1096 942 1083 886 l 1083 182 b 1176 3 1083 90 1110 31 l 1176 0 l 869 0 l 869 3 b 963 182 936 31 963 90 l 963 892 l 589 -15 l 583 -15 l 182 892 l 182 199 "},"N":{"ha":1019,"x_min":0,"x_max":0,"o":"m 990 969 b 886 774 924 942 886 879 l 886 -12 l 883 -12 l 182 879 l 182 199 b 286 3 182 93 219 31 l 286 0 l 39 0 l 39 3 b 143 199 106 31 143 93 l 143 794 b 64 969 143 886 131 942 l 64 972 l 269 972 l 847 228 l 847 774 b 743 969 847 879 810 942 l 743 972 l 990 972 l 990 969 "},"O":{"ha":1053,"x_min":0,"x_max":0,"o":"m 1003 486 b 526 -14 1003 194 785 -14 b 50 486 268 -14 50 194 b 526 986 50 778 268 986 b 1003 486 785 986 1003 778 m 858 486 b 526 954 858 753 744 954 b 194 486 308 954 194 753 b 526 18 194 219 308 18 b 858 486 744 18 858 219 "},"P":{"ha":865,"x_min":0,"x_max":0,"o":"m 268 403 l 268 167 b 382 3 268 79 285 36 l 382 0 l 64 0 l 64 3 b 143 178 131 31 143 86 l 143 794 b 64 969 143 886 131 942 l 64 972 l 476 972 b 842 688 688 972 842 878 b 476 403 842 497 688 403 m 453 439 b 707 688 632 439 707 539 b 453 936 707 836 632 936 l 268 936 l 268 439 "},"Q":{"ha":1053,"x_min":0,"x_max":0,"o":"m 899 -200 b 669 7 785 -200 724 -97 b 526 -15 625 -7 576 -15 b 50 485 268 -15 50 193 b 526 985 50 776 268 985 b 1003 485 785 985 1003 776 b 764 50 1003 290 906 133 b 953 -104 817 -31 869 -104 b 1043 -24 1001 -104 1033 -78 l 1047 -24 b 899 -200 1049 -125 1000 -200 m 194 485 b 340 82 194 308 244 161 b 524 260 353 176 408 260 b 732 100 619 260 679 183 b 858 485 815 183 858 321 b 526 953 858 751 744 953 b 194 485 308 953 194 751 m 526 17 b 651 43 572 17 615 26 b 482 217 604 135 558 217 b 363 64 418 217 369 150 b 526 17 408 33 463 17 "},"R":{"ha":957,"x_min":0,"x_max":0,"o":"m 268 493 l 461 493 b 704 710 604 493 704 546 b 461 936 704 864 617 936 l 268 936 m 479 972 b 842 717 679 972 842 906 b 522 469 842 539 678 475 b 767 290 664 458 733 389 l 806 174 b 969 3 842 65 885 33 l 969 0 l 757 0 b 678 150 728 24 701 83 l 635 275 b 436 457 600 374 557 457 l 268 457 l 268 178 b 347 3 268 86 281 31 l 347 0 l 64 0 l 64 3 b 143 178 131 31 143 86 l 143 794 b 64 969 143 886 131 942 l 64 972 "},"S":{"ha":793,"x_min":0,"x_max":0,"o":"m 372 954 b 174 760 269 954 174 892 b 397 558 174 633 278 592 b 735 261 554 515 735 475 b 403 -14 735 69 569 -14 b 161 38 292 -14 215 38 b 74 -14 122 38 100 14 l 58 292 l 61 292 b 403 18 138 117 263 18 b 624 226 525 18 624 92 b 363 439 624 365 496 400 b 69 718 219 481 69 528 b 372 986 69 882 208 986 b 599 938 483 986 556 938 b 681 986 644 938 663 965 l 686 704 l 683 704 b 372 954 621 842 522 954 "},"T":{"ha":994,"x_min":0,"x_max":0,"o":"m 857 972 b 924 982 882 972 908 974 l 971 700 l 968 700 b 675 938 879 856 831 938 l 560 938 l 560 167 b 646 3 560 75 579 31 l 646 0 l 349 0 l 349 3 b 435 167 415 31 435 75 l 435 938 l 319 938 b 26 700 164 938 115 856 l 24 700 l 71 982 b 138 972 86 974 113 972 "},"U":{"ha":1019,"x_min":0,"x_max":0,"o":"m 883 372 b 517 -14 883 124 725 -14 b 122 375 264 -14 122 121 l 122 794 b 43 969 122 886 110 942 l 43 972 l 326 972 l 326 969 b 247 794 260 942 247 886 l 247 388 b 528 44 247 174 333 44 b 844 381 711 44 844 163 l 844 774 b 740 969 844 879 807 942 l 740 972 l 988 972 l 988 969 b 883 774 921 942 883 879 "},"V":{"ha":971,"x_min":0,"x_max":0,"o":"m 799 781 b 822 876 811 810 822 842 b 756 969 822 918 794 953 l 756 972 l 975 972 l 975 969 b 844 785 921 942 885 876 l 494 -14 l 490 -14 l 113 817 b 0 969 71 907 54 942 l 0 972 l 289 972 l 289 969 b 225 896 249 953 225 929 b 249 813 225 874 233 846 l 536 174 l 799 781 "},"W":{"ha":1303,"x_min":0,"x_max":0,"o":"m 661 638 l 421 -14 l 417 -14 l 101 817 b 0 969 67 907 46 942 l 0 972 l 274 972 l 274 969 b 215 896 240 953 215 929 b 235 813 215 874 222 846 l 461 203 l 640 697 l 597 817 b 496 969 563 907 542 942 l 496 972 l 765 972 l 765 969 b 707 896 732 953 707 929 b 726 813 707 874 714 846 l 935 200 l 1147 788 b 1160 856 1156 811 1160 835 b 1094 969 1160 904 1138 946 l 1094 972 l 1311 972 l 1311 969 b 1197 803 1264 942 1228 886 l 897 -14 l 893 -14 "},"X":{"ha":979,"x_min":0,"x_max":0,"o":"m 224 0 l 6 0 l 6 3 b 176 161 71 32 122 89 l 432 499 l 197 817 b 54 969 143 890 99 933 l 54 972 l 326 972 l 326 969 b 296 915 306 954 296 939 b 333 831 296 885 314 857 l 522 575 l 707 822 b 738 901 725 847 738 875 b 699 969 738 928 726 951 l 699 972 l 917 972 l 917 969 b 746 811 851 940 800 883 l 543 546 l 831 156 b 974 3 885 82 929 39 l 974 0 l 701 0 l 701 3 b 732 57 722 18 732 33 b 694 142 732 88 714 115 l 453 469 l 225 164 b 186 68 200 131 186 97 b 224 3 188 43 199 21 "},"Y":{"ha":904,"x_min":0,"x_max":0,"o":"m 726 818 b 747 886 740 842 747 865 b 694 969 747 922 728 953 l 694 972 l 904 972 l 904 969 b 774 825 847 935 811 886 l 513 404 l 513 167 b 599 3 513 75 532 31 l 599 0 l 306 0 l 306 3 b 392 167 372 31 392 75 l 392 404 l 122 838 b 0 969 85 899 54 933 l 0 972 l 293 972 l 293 969 b 243 894 263 953 243 931 b 264 831 243 878 247 857 l 500 451 "},"Z":{"ha":908,"x_min":0,"x_max":0,"o":"m 50 0 l 50 3 l 668 936 l 376 936 b 83 714 221 936 156 846 l 81 714 l 128 982 b 194 972 143 974 169 972 l 832 972 l 832 969 l 218 36 l 542 36 b 847 283 697 36 753 99 l 850 283 l 806 0 "},"[":{"ha":435,"x_min":0,"x_max":0,"o":"m 107 1040 l 414 1040 l 414 1035 l 224 992 l 224 -121 l 414 -165 l 414 -171 l 107 -171 "},"\\":{"ha":476,"x_min":0,"x_max":0,"o":"m 476 -171 l 436 -171 l 28 1040 l 68 1040 "},"]":{"ha":435,"x_min":0,"x_max":0,"o":"m 328 -171 l 21 -171 l 21 -165 l 211 -121 l 211 992 l 21 1035 l 21 1040 l 328 1040 "},"^":{"ha":625,"x_min":0,"x_max":0,"o":"m 315 986 l 569 572 l 522 572 l 313 917 l 103 572 l 56 572 l 310 986 "},"_":{"ha":440,"x_min":0,"x_max":0,"o":"m 47 -94 l 393 -94 l 393 -136 l 47 -136 "},"`":{"ha":694,"x_min":0,"x_max":0,"o":"m 368 1040 b 467 779 378 950 410 876 l 461 779 b 226 1040 354 865 282 949 l 368 1040 "},"a":{"ha":718,"x_min":0,"x_max":0,"o":"m 733 47 b 608 -11 710 14 665 -11 b 485 111 533 -11 492 38 b 482 178 485 117 482 163 b 250 -10 467 81 367 -10 b 53 163 140 -10 53 46 b 375 376 53 311 210 346 l 481 396 l 481 475 b 319 663 481 576 433 663 b 178 549 217 663 178 610 b 242 475 178 506 203 475 b 260 479 247 475 254 476 b 181 417 253 438 221 417 b 79 518 124 417 79 454 b 319 689 79 608 176 689 b 608 454 500 689 608 619 b 604 154 608 331 604 239 b 692 39 604 78 633 39 b 733 50 707 39 722 43 m 388 351 b 183 176 250 325 183 275 b 301 51 183 85 235 51 b 478 254 389 51 475 125 l 481 369 "},"b":{"ha":840,"x_min":0,"x_max":0,"o":"m 486 -14 b 228 174 356 -14 256 67 b 93 -14 219 107 169 14 b 113 294 113 68 113 172 l 113 889 b 26 1038 113 968 93 1010 l 26 1040 l 235 1040 l 235 488 b 486 689 263 594 356 689 b 796 343 657 689 796 561 b 486 -14 796 126 657 -14 m 661 343 b 446 629 661 521 578 629 b 235 389 346 629 235 540 l 235 288 b 446 46 235 136 346 46 b 661 343 578 46 661 164 "},"c":{"ha":676,"x_min":0,"x_max":0,"o":"m 396 661 b 179 346 265 661 179 528 b 410 49 179 158 281 49 b 647 221 519 49 607 106 l 656 218 b 369 -14 629 69 519 -14 b 44 325 208 -14 44 106 b 396 689 44 551 208 689 b 640 518 546 689 640 608 b 538 414 640 454 594 414 b 453 478 489 414 453 444 b 478 474 461 475 471 474 b 542 549 517 474 542 501 b 396 661 542 610 499 661 "},"d":{"ha":849,"x_min":0,"x_max":0,"o":"m 394 46 b 606 286 494 46 606 135 l 606 388 b 394 629 606 539 494 629 b 179 332 263 629 179 511 b 394 46 179 154 263 46 m 606 889 b 519 1038 606 968 586 1010 l 519 1040 l 728 1040 l 728 151 b 814 3 728 72 747 31 l 814 0 l 606 0 l 606 188 b 354 -14 578 81 485 -14 b 44 332 183 -14 44 114 b 354 689 44 549 183 689 b 606 488 485 689 578 594 "},"e":{"ha":701,"x_min":0,"x_max":0,"o":"m 368 689 b 656 365 568 689 656 556 l 169 365 b 418 50 169 181 263 50 b 651 221 522 50 611 106 l 660 218 b 372 -14 633 69 525 -14 b 44 338 194 -14 44 115 b 368 689 44 546 193 689 m 524 394 b 367 661 524 536 499 661 b 172 394 268 661 179 558 "},"f":{"ha":419,"x_min":0,"x_max":0,"o":"m 125 639 l 28 639 l 28 647 l 125 678 l 125 760 b 375 1044 125 963 232 1044 b 564 926 483 1044 564 1003 b 475 844 564 881 531 844 b 411 874 447 844 425 854 b 461 940 438 882 461 896 b 375 1022 461 993 426 1022 b 247 803 271 1022 247 924 l 247 675 l 433 675 l 426 639 l 247 639 l 247 151 b 368 3 247 60 289 26 l 368 0 l 46 0 l 46 3 b 125 151 113 31 125 60 "},"g":{"ha":760,"x_min":0,"x_max":0,"o":"m 343 665 b 203 463 249 665 203 572 b 343 260 203 353 249 260 b 485 463 439 260 485 353 b 343 665 485 572 439 665 m 725 -75 b 338 -326 725 -231 550 -326 b 8 -149 188 -326 8 -275 b 207 1 8 -65 89 -12 b 56 136 129 10 56 51 b 190 269 56 206 122 251 b 74 463 114 311 74 385 b 343 689 74 588 169 689 b 567 599 442 689 519 656 b 697 706 593 642 633 706 b 788 626 756 706 788 675 b 674 535 788 557 725 535 l 674 538 b 699 588 692 550 699 564 b 649 632 699 614 681 632 b 575 588 617 632 590 607 b 614 463 601 551 614 508 b 343 236 614 338 518 236 b 210 260 290 236 247 244 b 135 181 174 247 135 219 b 243 114 135 133 172 114 l 464 114 b 725 -75 632 114 725 44 m 336 -300 b 618 -132 511 -300 618 -233 b 450 0 618 -39 560 0 l 297 0 b 119 -140 186 0 119 -46 b 336 -300 119 -239 213 -300 "},"h":{"ha":818,"x_min":0,"x_max":0,"o":"m 243 1040 l 243 482 b 488 689 281 613 368 689 b 704 447 615 689 704 607 l 704 151 b 783 3 704 60 717 31 l 783 0 l 503 0 l 503 3 b 582 151 569 31 582 60 l 582 436 b 435 619 582 535 544 619 b 243 356 324 619 243 514 l 243 151 b 322 3 243 60 256 31 l 322 0 l 42 0 l 42 3 b 121 151 108 31 121 60 l 121 889 b 35 1038 121 968 101 1010 l 35 1040 "},"i":{"ha":361,"x_min":0,"x_max":0,"o":"m 90 913 b 178 999 90 961 128 999 b 265 913 228 999 265 961 b 178 826 265 864 228 826 b 90 913 128 826 90 864 m 247 151 b 326 3 247 60 260 31 l 326 0 l 46 0 l 46 3 b 125 151 113 31 125 60 l 125 524 b 39 672 125 603 106 644 l 39 675 l 247 675 "},"j":{"ha":325,"x_min":0,"x_max":0,"o":"m 72 913 b 160 999 72 961 110 999 b 247 913 210 999 247 961 b 160 826 247 864 210 826 b 72 913 110 826 72 864 m -17 -326 b -207 -201 -126 -326 -207 -278 b -118 -122 -207 -156 -174 -122 b -53 -144 -93 -122 -68 -131 b -103 -212 -82 -153 -103 -175 b -10 -304 -103 -272 -69 -304 b 107 -85 76 -304 107 -235 l 107 524 b 21 672 107 603 88 644 l 21 675 l 229 675 l 229 -75 b -17 -326 229 -257 119 -326 "},"k":{"ha":753,"x_min":0,"x_max":0,"o":"m 285 389 b 396 438 326 389 356 396 l 511 563 b 536 618 528 581 536 597 b 490 672 536 640 521 661 l 490 675 l 744 675 l 744 672 b 553 556 664 653 611 617 l 410 403 l 621 128 b 789 3 674 58 721 24 l 789 0 l 550 0 b 494 100 542 36 519 68 l 322 329 b 269 358 306 351 293 358 l 243 358 l 243 151 b 322 3 243 60 256 31 l 322 0 l 42 0 l 42 3 b 121 151 108 31 121 60 l 121 889 b 35 1038 121 968 101 1010 l 35 1040 l 243 1040 l 243 389 "},"l":{"ha":357,"x_min":0,"x_max":0,"o":"m 243 151 b 322 3 243 60 256 31 l 322 0 l 42 0 l 42 3 b 121 151 108 31 121 60 l 121 889 b 35 1038 121 968 101 1010 l 35 1040 l 243 1040 "},"m":{"ha":1228,"x_min":0,"x_max":0,"o":"m 679 482 b 913 689 710 613 793 689 b 1114 447 1040 689 1114 607 l 1114 151 b 1193 3 1114 60 1126 31 l 1193 0 l 913 0 l 913 3 b 992 151 979 31 992 60 l 992 436 b 860 619 992 535 969 619 b 681 356 749 619 681 514 l 681 151 b 760 3 681 60 693 31 l 760 0 l 479 0 l 479 3 b 558 151 546 31 558 60 l 558 436 b 426 619 558 535 536 619 b 247 356 315 619 247 514 l 247 151 b 326 3 247 60 260 31 l 326 0 l 46 0 l 46 3 b 125 151 113 31 125 60 l 125 524 b 39 672 125 603 106 644 l 39 675 l 247 675 l 247 482 b 479 689 278 613 360 689 b 679 482 597 689 669 618 "},"n":{"ha":822,"x_min":0,"x_max":0,"o":"m 247 675 l 247 482 b 492 689 285 613 372 689 b 708 447 619 689 708 607 l 708 151 b 788 3 708 60 721 31 l 788 0 l 507 0 l 507 3 b 586 151 574 31 586 60 l 586 436 b 439 619 586 535 549 619 b 247 356 328 619 247 514 l 247 151 b 326 3 247 60 260 31 l 326 0 l 46 0 l 46 3 b 125 151 113 31 125 60 l 125 524 b 39 672 125 603 106 644 l 39 675 "},"o":{"ha":769,"x_min":0,"x_max":0,"o":"m 385 -14 b 44 338 186 -14 44 135 b 385 689 44 540 186 689 b 725 338 583 689 725 540 b 385 -14 725 135 583 -14 m 385 14 b 588 338 513 14 588 157 b 385 661 588 518 513 661 b 182 338 257 661 182 518 b 385 14 182 157 257 14 "},"p":{"ha":847,"x_min":0,"x_max":0,"o":"m 453 629 b 242 389 353 629 242 540 l 242 288 b 453 46 242 136 353 46 b 668 343 585 46 668 164 b 453 629 668 521 585 629 m 242 -161 b 321 -310 242 -253 254 -282 l 321 -312 l 40 -312 l 40 -310 b 119 -161 107 -282 119 -253 l 119 524 b 33 672 119 603 100 644 l 33 675 l 242 675 l 242 488 b 493 689 269 594 363 689 b 803 343 664 689 803 561 b 493 -14 803 126 664 -14 b 242 188 363 -14 269 81 "},"q":{"ha":826,"x_min":0,"x_max":0,"o":"m 728 -161 b 807 -310 728 -253 740 -282 l 807 -312 l 526 -312 l 526 -310 b 606 -161 593 -282 606 -253 l 606 188 b 354 -14 578 81 485 -14 b 44 332 183 -14 44 114 b 354 689 44 549 183 689 b 618 501 485 689 590 604 b 744 689 626 579 694 661 l 747 689 b 728 379 728 607 728 501 m 606 388 b 394 629 606 539 494 629 b 179 332 263 629 179 511 b 394 46 179 154 263 46 b 606 286 494 46 606 135 "},"r":{"ha":617,"x_min":0,"x_max":0,"o":"m 457 486 b 499 549 482 496 499 518 b 424 613 499 586 471 613 b 247 313 329 613 247 475 l 247 151 b 368 3 247 60 289 26 l 368 0 l 46 0 l 46 3 b 125 151 113 31 125 60 l 125 524 b 39 672 125 603 106 644 l 39 675 l 247 675 l 247 442 b 474 689 278 572 350 689 b 603 578 547 689 603 644 b 503 468 603 501 547 468 b 457 486 482 468 464 476 "},"s":{"ha":638,"x_min":0,"x_max":0,"o":"m 296 661 b 164 542 210 661 164 606 b 332 407 164 474 190 440 b 581 190 517 364 581 301 b 329 -14 581 53 458 -14 b 132 22 233 -14 175 22 b 72 -14 106 22 89 6 l 57 250 l 60 250 b 329 14 119 106 201 14 b 481 153 413 14 481 65 b 285 292 481 235 406 264 b 68 500 125 329 68 396 b 296 689 68 622 176 689 b 472 651 382 689 425 651 b 542 689 499 651 518 668 l 542 460 l 539 460 b 296 661 489 571 407 661 "},"t":{"ha":500,"x_min":0,"x_max":0,"o":"m 471 218 b 285 -14 460 85 410 -14 b 108 189 176 -14 108 54 l 108 639 l 11 639 l 11 647 b 219 914 128 671 200 776 l 231 914 l 231 675 l 447 675 l 440 639 l 231 639 l 231 193 b 326 57 231 103 264 57 b 460 218 394 57 442 114 "},"u":{"ha":797,"x_min":0,"x_max":0,"o":"m 563 524 b 476 672 563 603 543 644 l 476 675 l 685 675 l 685 138 b 785 3 685 51 719 24 l 785 0 l 563 0 l 563 201 b 313 -14 529 64 435 -14 b 101 228 190 -14 101 68 l 101 524 b 15 672 101 603 82 644 l 15 675 l 224 675 l 224 243 b 365 58 224 150 261 58 b 563 319 474 58 563 161 "},"v":{"ha":706,"x_min":0,"x_max":0,"o":"m 560 515 b 581 596 574 544 581 572 b 525 672 581 631 565 657 l 525 675 l 713 675 l 713 672 b 604 518 667 640 649 615 l 361 -14 l 358 -14 l 99 525 b -7 672 53 621 39 640 l -7 675 l 246 675 l 246 672 b 204 611 211 657 204 639 b 228 525 204 590 214 556 l 397 157 "},"w":{"ha":1036,"x_min":0,"x_max":0,"o":"m 531 458 l 331 -14 l 328 -14 l 99 525 b -7 672 57 622 39 640 l -7 675 l 242 675 l 242 672 b 200 611 207 657 200 639 b 224 525 200 590 213 557 l 369 174 l 510 508 l 503 525 b 397 672 461 622 443 640 l 397 675 l 642 675 l 642 672 b 600 611 607 657 600 639 b 624 525 600 590 613 557 l 757 175 l 890 515 b 906 588 900 540 906 565 b 847 672 906 626 888 658 l 847 675 l 1043 675 l 1043 672 b 936 521 997 640 976 619 l 722 -14 l 719 -14 "},"x":{"ha":710,"x_min":0,"x_max":0,"o":"m 174 0 l -8 0 l -8 3 b 167 167 65 44 101 83 l 303 340 l 193 508 b 25 672 136 596 97 629 l 25 675 l 282 675 l 282 672 b 263 636 267 663 263 650 b 315 525 261 601 292 561 l 388 414 l 472 524 b 524 631 500 560 524 599 b 497 672 524 649 515 661 l 497 675 l 679 675 l 679 672 b 504 508 606 631 569 590 l 407 385 l 549 167 b 718 3 607 79 646 46 l 718 0 l 461 0 l 461 3 b 481 39 476 13 481 25 b 428 150 479 72 451 114 l 322 310 l 200 151 b 147 49 175 119 147 82 b 174 3 147 32 154 15 "},"y":{"ha":706,"x_min":0,"x_max":0,"o":"m 344 11 l 99 525 b -7 672 53 621 39 640 l -7 675 l 243 675 l 243 672 b 201 611 208 657 201 639 b 225 525 201 590 211 556 l 403 147 l 563 518 b 579 590 574 543 579 568 b 524 672 579 626 563 657 l 524 675 l 713 675 l 713 672 b 601 511 664 640 644 608 l 319 -135 b 114 -326 264 -262 207 -326 b -14 -217 39 -326 -14 -285 b 81 -122 -14 -157 31 -122 b 132 -133 100 -122 115 -125 b 86 -199 100 -143 86 -165 b 154 -267 86 -239 113 -267 b 285 -122 210 -267 240 -221 "},"z":{"ha":688,"x_min":0,"x_max":0,"o":"m 293 643 b 63 463 186 643 154 600 l 60 463 l 79 683 b 163 675 100 679 121 675 l 631 675 l 631 672 l 190 31 l 357 32 b 643 235 497 33 551 82 l 646 235 l 604 0 l 33 0 l 33 3 l 474 643 "},"{":{"ha":499,"x_min":0,"x_max":0,"o":"m 17 439 b 182 640 106 442 182 492 b 161 832 182 700 161 760 b 417 1040 161 953 263 1040 b 485 1035 439 1040 463 1039 l 485 1029 b 279 832 372 1029 279 957 b 303 632 279 775 303 693 b 113 435 303 489 178 442 b 303 238 178 428 303 381 b 279 38 303 176 279 94 b 485 -160 279 -87 372 -160 l 485 -165 b 417 -171 463 -169 439 -171 b 161 38 263 -171 161 -83 b 182 229 161 110 182 169 b 17 431 182 378 106 428 "},"|":{"ha":260,"x_min":0,"x_max":0,"o":"m 111 1040 l 149 1040 l 149 -171 l 111 -171 "},"}":{"ha":499,"x_min":0,"x_max":0,"o":"m 482 431 b 317 229 393 428 317 378 b 338 38 317 169 338 110 b 82 -171 338 -83 236 -171 b 14 -165 60 -171 36 -169 l 14 -160 b 219 38 126 -160 219 -87 b 196 238 219 94 196 176 b 386 435 196 381 321 428 b 196 632 321 442 196 489 b 219 832 196 693 219 775 b 14 1029 219 957 126 1029 l 14 1035 b 82 1040 36 1039 60 1040 b 338 832 236 1040 338 953 b 317 640 338 760 317 700 b 482 439 317 492 393 442 "},"~":{"ha":692,"x_min":0,"x_max":0,"o":"m 69 342 b 240 510 101 454 164 510 b 479 439 326 510 396 439 b 619 517 538 439 589 465 l 622 517 b 453 349 590 406 528 349 b 214 419 365 349 297 419 b 72 342 156 419 101 393 "}," ":{"ha":278,"x_min":0,"x_max":0,"o":""},"¡":{"ha":361,"x_min":0,"x_max":0,"o":"m 181 778 b 275 683 233 778 275 736 b 181 588 275 629 233 588 b 86 683 129 588 86 629 b 181 778 86 736 129 778 m 93 -207 l 178 482 l 185 482 l 268 -207 "},"¢":{"ha":693,"x_min":0,"x_max":0,"o":"m 185 346 b 350 58 185 190 251 88 l 399 661 b 185 346 264 660 185 526 m 368 -14 l 357 -158 l 333 -158 l 344 -12 b 50 325 188 0 50 117 b 401 689 50 551 206 689 l 413 828 l 436 828 l 425 688 b 646 518 561 681 646 604 b 543 417 646 454 600 417 b 449 482 500 417 464 440 b 485 474 463 475 472 474 b 547 549 522 474 547 506 b 422 660 547 606 510 654 l 374 53 b 415 49 388 50 401 49 b 653 221 525 49 613 106 l 661 218 b 375 -14 635 69 525 -14 "},"£":{"ha":885,"x_min":0,"x_max":0,"o":"m 657 -35 b 335 124 508 -35 431 60 b 142 -14 282 29 210 -14 b 21 92 71 -14 21 28 b 157 208 21 163 76 208 b 285 179 200 208 242 196 b 297 321 293 221 297 268 b 289 475 297 367 293 419 l 131 475 l 131 500 l 286 500 b 278 671 282 558 278 617 b 579 986 278 861 392 986 b 822 808 740 986 822 906 b 714 696 822 736 772 696 b 611 738 668 696 625 714 b 713 839 668 735 713 769 b 579 965 713 915 668 965 b 417 706 461 965 417 842 l 417 526 l 417 500 l 639 500 l 639 475 l 415 475 b 349 151 411 336 386 229 b 604 81 426 118 507 81 b 767 190 721 81 767 119 b 746 244 767 210 761 226 b 840 119 804 228 840 179 b 657 -35 840 28 763 -35 m 142 10 b 279 156 210 10 256 64 b 157 183 243 172 204 183 b 54 92 94 183 54 147 b 142 10 54 43 89 10 "},"¥":{"ha":849,"x_min":0,"x_max":0,"o":"m 571 0 l 278 0 l 278 3 b 364 167 344 31 364 75 l 364 350 l 110 350 l 110 375 l 364 375 l 364 404 l 324 476 l 110 476 l 110 501 l 310 501 l 122 838 b 0 969 89 899 54 933 l 0 972 l 293 972 l 293 969 b 243 896 263 953 243 931 b 264 831 243 878 249 858 l 472 447 l 676 824 b 694 890 689 847 694 869 b 642 969 693 925 674 953 l 642 972 l 849 972 l 849 969 b 722 831 794 933 758 896 l 539 501 l 739 501 l 739 476 l 525 476 l 485 404 l 485 375 l 739 375 l 739 350 l 485 350 l 485 167 b 571 3 485 75 504 31 "},"§":{"ha":756,"x_min":0,"x_max":0,"o":"m 475 163 b 581 50 518 129 557 89 b 607 156 597 75 607 117 b 518 319 607 219 586 264 l 281 511 b 175 624 238 544 199 585 b 149 518 158 599 149 557 b 238 354 149 454 169 410 m 360 -312 b 122 -149 226 -312 122 -243 b 215 -49 122 -85 164 -49 b 282 -68 238 -49 267 -54 b 229 -157 253 -81 229 -101 b 360 -290 229 -236 278 -290 b 522 -119 467 -290 522 -218 b 411 79 522 -22 483 22 l 199 247 b 83 451 119 310 83 378 b 168 633 83 522 119 589 b 140 754 150 669 140 708 b 396 986 140 882 243 986 b 633 822 529 986 633 917 b 540 722 633 758 592 722 b 474 742 518 722 489 728 b 526 831 503 754 526 775 b 396 964 526 910 478 964 b 233 793 289 964 233 892 b 344 594 233 696 272 651 l 557 426 b 672 222 636 364 672 296 b 588 40 672 151 636 85 b 615 -81 606 4 615 -35 b 360 -312 615 -208 513 -312 "},"¨":{"ha":694,"x_min":0,"x_max":0,"o":"m 222 806 b 140 889 175 806 140 843 b 222 971 140 933 175 971 b 304 889 268 971 304 933 b 222 806 304 843 268 806 m 472 806 b 389 889 426 806 389 843 b 472 971 389 933 426 971 b 554 889 518 971 554 933 b 472 806 554 843 518 806 "},"©":{"ha":1125,"x_min":0,"x_max":0,"o":"m 1063 486 b 563 -14 1063 196 839 -14 b 63 486 286 -14 63 196 b 563 986 63 776 286 986 b 1063 486 839 986 1063 776 m 1035 486 b 563 958 1035 760 824 958 b 90 486 301 958 90 760 b 563 14 90 213 301 14 b 1035 486 824 14 1035 213 m 585 757 b 397 492 471 757 397 642 b 614 239 397 331 494 239 b 811 364 697 239 765 271 l 815 364 b 575 182 788 254 703 182 b 288 483 410 182 288 306 b 585 786 288 660 415 786 b 736 757 656 786 693 757 b 788 786 760 757 775 772 l 788 608 l 785 608 b 585 757 746 690 681 757 "},"ª":{"ha":569,"x_min":0,"x_max":0,"o":"m 551 538 b 458 496 535 514 501 496 b 364 582 401 496 369 531 b 363 628 364 586 363 618 b 203 497 351 560 285 497 b 64 618 126 497 64 536 b 290 768 64 722 175 746 l 361 781 l 361 831 b 251 963 361 901 331 963 b 157 890 188 963 157 935 b 203 835 157 858 174 835 b 217 838 207 835 213 836 b 158 792 211 807 188 792 b 82 867 114 792 82 819 b 251 986 82 933 151 986 b 464 822 378 986 464 938 b 460 613 464 735 460 671 b 522 533 460 558 481 533 b 551 544 532 533 543 539 m 303 747 b 167 633 211 729 167 696 b 246 551 167 574 201 551 b 360 683 300 551 357 599 l 361 758 m 90 394 l 485 394 l 485 367 l 90 367 "},"«":{"ha":614,"x_min":0,"x_max":0,"o":"m 19 340 b 353 590 135 403 260 490 l 358 590 b 185 339 306 486 238 401 b 358 88 238 276 306 192 l 353 88 b 19 338 260 188 135 275 m 256 340 b 589 590 371 403 496 490 l 594 590 b 421 339 542 486 474 401 b 594 88 474 276 542 192 l 589 88 b 256 338 496 188 371 275 "},"®":{"ha":668,"x_min":0,"x_max":0,"o":"m 606 714 b 335 443 606 557 485 443 b 63 714 183 443 63 557 b 335 986 63 872 183 986 b 606 714 485 986 606 872 m 583 714 b 335 965 583 861 474 965 b 85 714 196 965 85 861 b 335 464 85 568 196 464 b 583 714 474 464 583 568 m 283 721 l 325 721 b 394 786 368 721 394 738 b 325 856 394 832 371 856 l 283 856 m 346 871 b 463 788 411 871 463 847 b 360 711 463 733 411 711 b 442 653 407 708 431 688 l 454 617 b 503 567 465 585 476 578 l 503 561 l 413 561 b 389 610 403 572 394 589 l 374 658 b 318 707 365 686 353 707 l 283 707 l 283 617 b 308 567 283 588 288 578 l 308 561 l 194 561 l 194 567 b 219 617 215 578 219 588 l 219 815 b 194 865 219 844 215 854 l 194 871 "},"¯":{"ha":694,"x_min":0,"x_max":0,"o":"m 156 833 l 156 882 l 539 882 l 539 833 "},"°":{"ha":364,"x_min":0,"x_max":0,"o":"m 336 831 b 182 676 336 746 267 676 b 28 831 97 676 28 746 b 182 985 28 915 97 985 b 336 831 267 985 336 915 m 304 831 b 182 953 304 899 250 953 b 60 831 114 953 60 899 b 182 708 60 763 114 708 b 304 831 250 708 304 763 "},"±":{"ha":665,"x_min":0,"x_max":0,"o":"m 350 503 l 350 310 l 314 310 l 314 503 l 61 503 l 61 539 l 314 539 l 314 731 l 350 731 l 350 539 l 604 539 l 604 503 m 61 221 l 604 221 l 604 186 l 61 186 "},"²":{"ha":369,"x_min":0,"x_max":0,"o":"m 167 957 b 100 893 124 957 100 925 b 146 836 100 857 119 836 b 171 843 158 836 164 838 l 172 843 b 110 800 163 814 139 800 b 38 875 68 800 38 829 b 167 978 38 936 90 978 b 321 864 251 978 321 943 b 115 639 321 782 256 729 l 208 639 b 324 690 274 640 294 644 l 329 690 l 313 569 l 24 569 l 24 571 b 233 879 194 733 233 794 b 167 957 233 917 215 957 "},"³":{"ha":367,"x_min":0,"x_max":0,"o":"m 168 585 b 240 681 213 585 240 631 b 147 779 240 749 208 779 l 147 792 b 225 885 208 794 225 829 b 171 958 225 922 208 958 b 117 906 135 958 117 931 b 147 863 117 881 128 863 b 160 865 153 863 157 864 l 163 865 b 108 836 154 847 135 836 b 50 893 74 836 50 858 b 171 978 50 944 103 978 b 313 882 256 978 313 942 b 204 789 313 825 267 796 b 331 681 275 785 331 746 b 168 564 331 603 258 564 b 28 658 94 564 28 596 b 94 724 28 700 57 724 b 149 693 124 724 142 711 l 146 693 b 133 696 142 696 139 696 b 103 649 114 696 103 678 b 168 585 103 611 128 585 "},"´":{"ha":694,"x_min":0,"x_max":0,"o":"m 467 1040 b 232 779 411 949 339 865 l 226 779 b 325 1040 283 876 315 950 "},"¶":{"ha":721,"x_min":0,"x_max":0,"o":"m 569 -71 b 353 -326 569 -210 490 -326 b 142 -161 242 -326 142 -271 b 240 -61 142 -100 190 -61 b 325 -118 279 -61 313 -79 l 324 -118 b 285 -107 314 -111 300 -107 b 233 -172 253 -107 233 -135 b 363 -294 233 -244 283 -294 b 538 -71 468 -294 538 -199 l 538 940 l 483 940 l 483 178 l 451 178 l 451 406 b 42 689 232 406 42 499 b 451 972 42 879 232 972 l 653 972 l 653 969 b 569 825 588 933 569 917 "},"·":{"ha":283,"x_min":0,"x_max":0,"o":"m 236 374 b 142 279 236 321 193 279 b 47 374 89 279 47 321 b 142 469 47 428 89 469 b 236 374 193 469 236 428 "},"¸":{"ha":694,"x_min":0,"x_max":0,"o":"m 204 -222 b 317 -276 235 -262 278 -276 b 400 -192 365 -276 400 -246 b 275 -111 400 -129 354 -114 l 333 14 l 357 14 l 311 -89 b 503 -194 408 -89 503 -119 b 344 -310 503 -268 432 -310 b 193 -235 274 -310 217 -278 "},"¹":{"ha":269,"x_min":0,"x_max":0,"o":"m 92 913 b 18 964 92 946 76 954 l 18 972 l 182 972 l 182 629 b 253 578 182 596 194 588 l 253 569 l 21 569 l 21 578 b 92 629 79 588 92 596 l 92 913 "},"º":{"ha":574,"x_min":0,"x_max":0,"o":"m 286 494 b 42 740 147 494 42 599 b 286 986 42 882 147 986 b 532 740 425 986 532 882 b 286 494 532 599 425 494 m 286 521 b 422 740 379 521 422 614 b 286 960 422 867 379 960 b 150 740 193 960 150 867 b 286 521 150 614 193 521 m 90 394 l 483 394 l 483 367 l 90 367 "},"»":{"ha":614,"x_min":0,"x_max":0,"o":"m 375 338 b 42 88 260 275 135 188 l 36 88 b 210 339 89 192 157 276 b 36 590 157 401 89 486 l 42 590 b 375 340 135 490 260 403 m 611 338 b 278 88 496 275 371 188 l 272 88 b 446 339 325 192 393 276 b 272 590 393 401 325 486 l 278 590 b 611 340 371 490 496 403 "},"¼":{"ha":563,"x_min":0,"x_max":0,"o":"m 246 913 b 172 964 246 946 231 954 l 172 972 l 336 972 l 336 629 b 407 578 336 596 349 588 l 407 569 l 175 569 l 175 578 b 246 629 233 588 246 596 l 246 913 m 535 497 l 535 475 l 28 475 l 28 497 m 281 340 l 135 128 l 281 128 m 281 106 l 94 106 l 94 107 l 301 407 l 369 407 l 369 128 l 403 128 b 457 167 438 128 442 135 l 461 167 l 461 67 l 457 67 b 403 106 442 99 438 106 l 369 106 l 369 71 b 401 6 369 33 375 21 l 401 0 l 249 0 l 249 6 b 281 71 275 21 281 33 "},"½":{"ha":563,"x_min":0,"x_max":0,"o":"m 246 913 b 172 964 246 946 231 954 l 172 972 l 336 972 l 336 629 b 407 578 336 596 349 588 l 407 569 l 175 569 l 175 578 b 246 629 233 588 246 596 l 246 913 m 535 497 l 535 475 l 28 475 l 28 497 m 279 388 b 213 324 236 388 213 356 b 258 267 213 288 232 267 b 283 274 271 267 276 268 l 285 274 b 222 231 275 244 251 231 b 150 306 181 231 150 260 b 279 408 150 367 203 408 b 433 294 364 408 433 374 b 228 69 433 213 368 160 l 321 69 b 436 121 386 71 407 75 l 442 121 l 425 0 l 136 0 l 136 1 b 346 310 307 164 346 225 b 279 388 346 347 328 388 "},"¾":{"ha":563,"x_min":0,"x_max":0,"o":"m 281 585 b 353 681 325 585 353 631 b 260 779 353 749 321 779 l 260 792 b 338 885 321 794 338 829 b 283 958 338 922 321 958 b 229 906 247 958 229 931 b 260 863 229 881 240 863 b 272 865 265 863 269 864 l 275 865 b 221 836 267 847 247 836 b 163 893 186 836 163 858 b 283 978 163 944 215 978 b 425 882 368 978 425 942 b 317 789 425 825 379 796 b 443 681 388 785 443 746 b 281 564 443 603 371 564 b 140 658 207 564 140 596 b 207 724 140 700 169 724 b 261 693 236 724 254 711 l 258 693 b 246 696 254 696 251 696 b 215 649 226 696 215 678 b 281 585 215 611 240 585 m 535 497 l 535 475 l 28 475 l 28 497 m 281 340 l 135 128 l 281 128 m 281 106 l 94 106 l 94 107 l 301 407 l 369 407 l 369 128 l 403 128 b 457 167 438 128 442 135 l 461 167 l 461 67 l 457 67 b 403 106 442 99 438 106 l 369 106 l 369 71 b 401 6 369 33 375 21 l 401 0 l 249 0 l 249 6 b 281 71 275 21 281 33 "},"¿":{"ha":682,"x_min":0,"x_max":0,"o":"m 369 588 b 275 683 317 588 275 629 b 369 778 275 736 317 778 b 464 683 421 778 464 736 b 369 588 464 629 421 588 m 351 -192 b 536 -25 467 -192 536 -114 b 447 78 536 35 499 78 b 390 61 433 78 407 74 l 388 61 b 510 150 410 119 450 150 b 644 3 585 150 644 93 b 351 -221 644 -119 529 -221 b 38 43 161 -221 38 -101 b 357 382 38 221 190 338 l 357 486 l 385 486 l 385 256 b 151 8 244 226 151 149 b 351 -192 151 -93 221 -192 "},"À":{"ha":971,"x_min":0,"x_max":0,"o":"m 428 1271 b 518 1043 439 1192 461 1128 l 513 1043 b 275 1271 404 1118 332 1190 l 428 1271 m 247 361 l 632 361 l 435 801 m 218 0 l -1 0 l -1 3 b 129 188 53 31 89 96 l 478 986 l 482 986 l 858 156 b 971 3 900 65 917 31 l 971 0 l 682 0 l 682 3 b 746 76 722 19 746 43 b 722 160 746 99 738 126 l 649 325 l 232 325 l 175 192 b 151 96 163 163 151 131 b 218 3 151 54 179 19 "},"Á":{"ha":971,"x_min":0,"x_max":0,"o":"m 654 1271 b 417 1043 597 1190 525 1118 l 411 1043 b 501 1271 468 1128 490 1192 m 247 361 l 632 361 l 435 801 m 218 0 l -1 0 l -1 3 b 129 188 53 31 89 96 l 478 986 l 482 986 l 858 156 b 971 3 900 65 917 31 l 971 0 l 682 0 l 682 3 b 746 76 722 19 746 43 b 722 160 746 99 738 126 l 649 325 l 232 325 l 175 192 b 151 96 163 163 151 131 b 218 3 151 54 179 19 "},"Â":{"ha":971,"x_min":0,"x_max":0,"o":"m 676 1031 b 485 1150 604 1065 529 1110 b 293 1031 440 1110 365 1065 l 282 1031 b 482 1292 358 1101 442 1203 l 488 1292 b 688 1031 528 1203 611 1101 l 676 1031 m 247 361 l 632 361 l 435 801 m 218 0 l -1 0 l -1 3 b 129 188 53 31 89 96 l 478 986 l 482 986 l 858 156 b 971 3 900 65 917 31 l 971 0 l 682 0 l 682 3 b 746 76 722 19 746 43 b 722 160 746 99 738 126 l 649 325 l 232 325 l 175 192 b 151 96 163 163 151 131 b 218 3 151 54 179 19 "},"Ã":{"ha":971,"x_min":0,"x_max":0,"o":"m 732 1261 b 581 1072 697 1140 647 1072 b 372 1161 507 1072 432 1161 b 251 1067 317 1161 278 1124 l 238 1067 b 389 1256 272 1188 322 1256 b 597 1167 463 1256 538 1167 b 718 1261 653 1167 692 1204 l 732 1261 m 247 361 l 632 361 l 435 801 m 218 0 l -1 0 l -1 3 b 129 188 53 31 89 96 l 478 986 l 482 986 l 858 156 b 971 3 900 65 917 31 l 971 0 l 682 0 l 682 3 b 746 76 722 19 746 43 b 722 160 746 99 738 126 l 649 325 l 232 325 l 175 192 b 151 96 163 163 151 131 b 218 3 151 54 179 19 "},"Ä":{"ha":971,"x_min":0,"x_max":0,"o":"m 360 1069 b 278 1153 313 1069 278 1107 b 360 1235 278 1197 313 1235 b 442 1153 406 1235 442 1197 b 360 1069 442 1107 406 1069 m 610 1069 b 526 1153 564 1069 526 1107 b 610 1235 526 1197 564 1235 b 692 1153 656 1235 692 1197 b 610 1069 692 1107 656 1069 m 247 361 l 632 361 l 435 801 m 218 0 l -1 0 l -1 3 b 129 188 53 31 89 96 l 478 986 l 482 986 l 858 156 b 971 3 900 65 917 31 l 971 0 l 682 0 l 682 3 b 746 76 722 19 746 43 b 722 160 746 99 738 126 l 649 325 l 232 325 l 175 192 b 151 96 163 163 151 131 b 218 3 151 54 179 19 "},"Å":{"ha":971,"x_min":0,"x_max":0,"o":"m 485 1315 b 618 1185 557 1315 618 1256 b 485 1053 618 1111 557 1053 b 351 1185 413 1053 351 1111 b 485 1315 351 1256 413 1315 m 485 1086 b 585 1185 539 1086 585 1129 b 485 1282 585 1238 539 1282 b 385 1185 431 1282 385 1238 b 485 1086 385 1129 431 1086 m 247 361 l 632 361 l 435 801 m 218 0 l -1 0 l -1 3 b 129 188 53 31 89 96 l 478 986 l 482 986 l 858 156 b 971 3 900 65 917 31 l 971 0 l 682 0 l 682 3 b 746 76 722 19 746 43 b 722 160 746 99 738 126 l 649 325 l 232 325 l 175 192 b 151 96 163 163 151 131 b 218 3 151 54 179 19 "},"Æ":{"ha":1456,"x_min":0,"x_max":0,"o":"m 365 417 l 708 417 l 708 931 m 226 0 l 0 0 l 0 3 b 140 156 54 31 86 75 l 606 849 b 621 893 617 865 621 881 b 544 969 621 922 597 938 l 544 972 l 1260 972 b 1326 982 1285 972 1311 974 l 1374 742 l 1371 742 b 1064 936 1299 874 1219 936 l 833 936 l 833 511 l 1028 511 b 1222 665 1140 511 1175 536 l 1225 665 l 1225 342 l 1222 342 b 1028 475 1175 469 1140 475 l 833 475 l 833 36 l 1093 36 b 1413 256 1249 36 1339 108 l 1415 256 l 1371 0 l 629 0 l 629 3 b 708 178 696 31 708 86 l 708 381 l 340 381 l 199 168 b 164 78 174 131 164 104 b 226 3 164 42 186 19 "},"Ç":{"ha":944,"x_min":0,"x_max":0,"o":"m 503 -310 b 351 -235 432 -310 375 -278 l 363 -222 b 475 -276 393 -262 436 -276 b 558 -192 524 -276 558 -246 b 433 -111 558 -129 513 -114 l 479 -12 b 50 486 232 10 50 204 b 546 986 50 772 272 986 b 775 938 657 986 732 938 b 865 986 821 938 847 965 l 876 681 l 874 681 b 546 954 817 840 700 954 b 194 486 322 954 194 756 b 547 49 194 211 358 49 b 893 281 707 49 824 113 l 901 278 b 526 -14 868 100 729 -14 l 503 -14 l 469 -89 b 661 -194 567 -89 661 -119 b 503 -310 661 -268 590 -310 "},"È":{"ha":892,"x_min":0,"x_max":0,"o":"m 407 1271 b 497 1043 418 1192 440 1128 l 492 1043 b 254 1271 383 1118 311 1190 l 407 1271 m 696 972 b 763 982 721 972 747 974 l 810 742 l 807 742 b 500 936 735 874 656 936 l 268 936 l 268 511 l 464 511 b 658 665 576 511 611 536 l 661 665 l 661 342 l 658 342 b 464 475 611 469 576 475 l 268 475 l 268 36 l 529 36 b 849 256 685 36 775 108 l 851 256 l 807 0 l 64 0 l 64 3 b 143 178 131 31 143 86 l 143 794 b 64 969 143 886 131 942 l 64 972 "},"É":{"ha":892,"x_min":0,"x_max":0,"o":"m 633 1271 b 396 1043 576 1190 504 1118 l 390 1043 b 481 1271 447 1128 469 1192 m 696 972 b 763 982 721 972 747 974 l 810 742 l 807 742 b 500 936 735 874 656 936 l 268 936 l 268 511 l 464 511 b 658 665 576 511 611 536 l 661 665 l 661 342 l 658 342 b 464 475 611 469 576 475 l 268 475 l 268 36 l 529 36 b 849 256 685 36 775 108 l 851 256 l 807 0 l 64 0 l 64 3 b 143 178 131 31 143 86 l 143 794 b 64 969 143 886 131 942 l 64 972 "},"Ê":{"ha":892,"x_min":0,"x_max":0,"o":"m 644 1031 b 453 1150 572 1065 497 1110 b 261 1031 408 1110 333 1065 l 250 1031 b 450 1292 326 1101 410 1203 l 456 1292 b 656 1031 496 1203 579 1101 l 644 1031 m 696 972 b 763 982 721 972 747 974 l 810 742 l 807 742 b 500 936 735 874 656 936 l 268 936 l 268 511 l 464 511 b 658 665 576 511 611 536 l 661 665 l 661 342 l 658 342 b 464 475 611 469 576 475 l 268 475 l 268 36 l 529 36 b 849 256 685 36 775 108 l 851 256 l 807 0 l 64 0 l 64 3 b 143 178 131 31 143 86 l 143 794 b 64 969 143 886 131 942 l 64 972 "},"Ë":{"ha":892,"x_min":0,"x_max":0,"o":"m 329 1069 b 247 1153 282 1069 247 1107 b 329 1235 247 1197 282 1235 b 411 1153 375 1235 411 1197 b 329 1069 411 1107 375 1069 m 579 1069 b 496 1153 533 1069 496 1107 b 579 1235 496 1197 533 1235 b 661 1153 625 1235 661 1197 b 579 1069 661 1107 625 1069 m 696 972 b 763 982 721 972 747 974 l 810 742 l 807 742 b 500 936 735 874 656 936 l 268 936 l 268 511 l 464 511 b 658 665 576 511 611 536 l 661 665 l 661 342 l 658 342 b 464 475 611 469 576 475 l 268 475 l 268 36 l 529 36 b 849 256 685 36 775 108 l 851 256 l 807 0 l 64 0 l 64 3 b 143 178 131 31 143 86 l 143 794 b 64 969 143 886 131 942 l 64 972 "},"Ì":{"ha":411,"x_min":0,"x_max":0,"o":"m 149 1271 b 239 1043 160 1192 182 1128 l 233 1043 b -4 1271 125 1118 53 1190 l 149 1271 m 268 178 b 347 3 268 86 281 31 l 347 0 l 64 0 l 64 3 b 143 178 131 31 143 86 l 143 794 b 64 969 143 886 131 942 l 64 972 l 347 972 l 347 969 b 268 794 281 942 268 886 l 268 178 "},"Í":{"ha":411,"x_min":0,"x_max":0,"o":"m 375 1271 b 138 1043 318 1190 246 1118 l 132 1043 b 222 1271 189 1128 211 1192 m 268 178 b 347 3 268 86 281 31 l 347 0 l 64 0 l 64 3 b 143 178 131 31 143 86 l 143 794 b 64 969 143 886 131 942 l 64 972 l 347 972 l 347 969 b 268 794 281 942 268 886 l 268 178 "},"Î":{"ha":411,"x_min":0,"x_max":0,"o":"m 397 1031 b 206 1150 325 1065 250 1110 b 14 1031 161 1110 86 1065 l 3 1031 b 203 1292 79 1101 163 1203 l 208 1292 b 408 1031 249 1203 332 1101 l 397 1031 m 268 178 b 347 3 268 86 281 31 l 347 0 l 64 0 l 64 3 b 143 178 131 31 143 86 l 143 794 b 64 969 143 886 131 942 l 64 972 l 347 972 l 347 969 b 268 794 281 942 268 886 l 268 178 "},"Ï":{"ha":411,"x_min":0,"x_max":0,"o":"m 81 1069 b -1 1153 33 1069 -1 1107 b 81 1235 -1 1197 33 1235 b 163 1153 126 1235 163 1197 b 81 1069 163 1107 126 1069 m 331 1069 b 247 1153 285 1069 247 1107 b 331 1235 247 1197 285 1235 b 413 1153 376 1235 413 1197 b 331 1069 413 1107 376 1069 m 268 178 b 347 3 268 86 281 31 l 347 0 l 64 0 l 64 3 b 143 178 131 31 143 86 l 143 794 b 64 969 143 886 131 942 l 64 972 l 347 972 l 347 969 b 268 794 281 942 268 886 l 268 178 "},"Ð":{"ha":1022,"x_min":0,"x_max":0,"o":"m 64 0 l 64 3 b 143 178 131 31 143 86 l 143 476 l 64 476 l 64 513 l 143 513 l 143 794 b 64 969 143 886 131 942 l 64 972 l 401 972 b 972 497 736 972 972 811 b 435 0 972 160 726 0 m 410 36 b 835 497 639 36 835 160 b 389 936 835 790 640 936 l 268 936 l 268 513 l 476 513 l 476 476 l 268 476 l 268 36 "},"Ñ":{"ha":1019,"x_min":0,"x_max":0,"o":"m 775 1261 b 624 1072 740 1140 690 1072 b 415 1161 550 1072 475 1161 b 294 1067 360 1161 321 1124 l 281 1067 b 432 1256 315 1188 365 1256 b 640 1167 506 1256 581 1167 b 761 1261 696 1167 735 1204 l 775 1261 m 990 969 b 886 774 924 942 886 879 l 886 -12 l 883 -12 l 182 879 l 182 199 b 286 3 182 93 219 31 l 286 0 l 39 0 l 39 3 b 143 199 106 31 143 93 l 143 794 b 64 969 143 886 131 942 l 64 972 l 269 972 l 847 228 l 847 774 b 743 969 847 879 810 942 l 743 972 l 990 972 l 990 969 "},"Ò":{"ha":1053,"x_min":0,"x_max":0,"o":"m 469 1271 b 560 1043 481 1192 503 1128 l 554 1043 b 317 1271 446 1118 374 1190 l 469 1271 m 1003 486 b 526 -14 1003 194 785 -14 b 50 486 268 -14 50 194 b 526 986 50 778 268 986 b 1003 486 785 986 1003 778 m 858 486 b 526 954 858 753 744 954 b 194 486 308 954 194 753 b 526 18 194 219 308 18 b 858 486 744 18 858 219 "},"Ó":{"ha":1053,"x_min":0,"x_max":0,"o":"m 696 1271 b 458 1043 639 1190 567 1118 l 453 1043 b 543 1271 510 1128 532 1192 m 1003 486 b 526 -14 1003 194 785 -14 b 50 486 268 -14 50 194 b 526 986 50 778 268 986 b 1003 486 785 986 1003 778 m 858 486 b 526 954 858 753 744 954 b 194 486 308 954 194 753 b 526 18 194 219 308 18 b 858 486 744 18 858 219 "},"Ô":{"ha":1053,"x_min":0,"x_max":0,"o":"m 718 1031 b 526 1150 646 1065 571 1110 b 335 1031 482 1110 407 1065 l 324 1031 b 524 1292 400 1101 483 1203 l 529 1292 b 729 1031 569 1203 653 1101 l 718 1031 m 1003 486 b 526 -14 1003 194 785 -14 b 50 486 268 -14 50 194 b 526 986 50 778 268 986 b 1003 486 785 986 1003 778 m 858 486 b 526 954 858 753 744 954 b 194 486 308 954 194 753 b 526 18 194 219 308 18 b 858 486 744 18 858 219 "},"Õ":{"ha":1053,"x_min":0,"x_max":0,"o":"m 774 1261 b 622 1072 739 1140 689 1072 b 414 1161 549 1072 474 1161 b 293 1067 358 1161 319 1124 l 279 1067 b 431 1256 314 1188 364 1256 b 639 1167 504 1256 579 1167 b 760 1261 694 1167 733 1204 l 774 1261 m 1003 486 b 526 -14 1003 194 785 -14 b 50 486 268 -14 50 194 b 526 986 50 778 268 986 b 1003 486 785 986 1003 778 m 858 486 b 526 954 858 753 744 954 b 194 486 308 954 194 753 b 526 18 194 219 308 18 b 858 486 744 18 858 219 "},"Ö":{"ha":1053,"x_min":0,"x_max":0,"o":"m 401 1069 b 319 1153 354 1069 319 1107 b 401 1235 319 1197 354 1235 b 483 1153 447 1235 483 1197 b 401 1069 483 1107 447 1069 m 651 1069 b 568 1153 606 1069 568 1107 b 651 1235 568 1197 606 1235 b 733 1153 697 1235 733 1197 b 651 1069 733 1107 697 1069 m 1003 486 b 526 -14 1003 194 785 -14 b 50 486 268 -14 50 194 b 526 986 50 778 268 986 b 1003 486 785 986 1003 778 m 858 486 b 526 954 858 753 744 954 b 194 486 308 954 194 753 b 526 18 194 219 308 18 b 858 486 744 18 858 219 "},"×":{"ha":553,"x_min":0,"x_max":0,"o":"m 68 636 l 93 661 l 276 475 l 460 661 l 485 636 l 300 450 l 485 264 l 460 239 l 276 425 l 93 239 l 68 264 l 253 450 "},"Ø":{"ha":1053,"x_min":0,"x_max":0,"o":"m 194 486 b 250 203 194 378 214 281 l 793 789 b 526 954 738 892 649 954 b 194 486 308 954 194 753 m 526 18 b 858 486 744 18 858 219 b 807 760 858 590 842 685 l 265 174 b 526 18 321 78 408 18 m 526 -14 b 207 111 406 -14 293 32 l 90 -15 l 67 4 l 186 133 b 50 486 103 221 50 343 b 526 986 50 778 268 986 b 853 854 651 986 767 938 l 965 976 l 989 957 l 874 832 b 1003 486 953 744 1003 625 b 526 -14 1003 194 785 -14 "},"Ù":{"ha":1019,"x_min":0,"x_max":0,"o":"m 483 1271 b 574 1043 494 1192 517 1128 l 568 1043 b 331 1271 460 1118 388 1190 l 483 1271 m 883 372 b 517 -14 883 124 725 -14 b 122 375 264 -14 122 121 l 122 794 b 43 969 122 886 110 942 l 43 972 l 326 972 l 326 969 b 247 794 260 942 247 886 l 247 388 b 528 44 247 174 333 44 b 844 381 711 44 844 163 l 844 774 b 740 969 844 879 807 942 l 740 972 l 988 972 l 988 969 b 883 774 921 942 883 879 "},"Ú":{"ha":1019,"x_min":0,"x_max":0,"o":"m 710 1271 b 472 1043 653 1190 581 1118 l 467 1043 b 557 1271 524 1128 546 1192 m 883 372 b 517 -14 883 124 725 -14 b 122 375 264 -14 122 121 l 122 794 b 43 969 122 886 110 942 l 43 972 l 326 972 l 326 969 b 247 794 260 942 247 886 l 247 388 b 528 44 247 174 333 44 b 844 381 711 44 844 163 l 844 774 b 740 969 844 879 807 942 l 740 972 l 988 972 l 988 969 b 883 774 921 942 883 879 "},"Û":{"ha":1019,"x_min":0,"x_max":0,"o":"m 732 1031 b 540 1150 660 1065 585 1110 b 349 1031 496 1110 421 1065 l 338 1031 b 538 1292 414 1101 497 1203 l 543 1292 b 743 1031 583 1203 667 1101 l 732 1031 m 883 372 b 517 -14 883 124 725 -14 b 122 375 264 -14 122 121 l 122 794 b 43 969 122 886 110 942 l 43 972 l 326 972 l 326 969 b 247 794 260 942 247 886 l 247 388 b 528 44 247 174 333 44 b 844 381 711 44 844 163 l 844 774 b 740 969 844 879 807 942 l 740 972 l 988 972 l 988 969 b 883 774 921 942 883 879 "},"Ü":{"ha":1019,"x_min":0,"x_max":0,"o":"m 415 1069 b 333 1153 368 1069 333 1107 b 415 1235 333 1197 368 1235 b 497 1153 461 1235 497 1197 b 415 1069 497 1107 461 1069 m 665 1069 b 582 1153 619 1069 582 1107 b 665 1235 582 1197 619 1235 b 747 1153 711 1235 747 1197 b 665 1069 747 1107 711 1069 m 883 372 b 517 -14 883 124 725 -14 b 122 375 264 -14 122 121 l 122 794 b 43 969 122 886 110 942 l 43 972 l 326 972 l 326 969 b 247 794 260 942 247 886 l 247 388 b 528 44 247 174 333 44 b 844 381 711 44 844 163 l 844 774 b 740 969 844 879 807 942 l 740 972 l 988 972 l 988 969 b 883 774 921 942 883 879 "},"Ý":{"ha":904,"x_min":0,"x_max":0,"o":"m 649 1271 b 411 1043 592 1190 519 1118 l 406 1043 b 496 1271 463 1128 485 1192 m 726 818 b 747 886 740 842 747 865 b 694 969 747 922 728 953 l 694 972 l 904 972 l 904 969 b 774 825 847 935 811 886 l 513 404 l 513 167 b 599 3 513 75 532 31 l 599 0 l 306 0 l 306 3 b 392 167 372 31 392 75 l 392 404 l 122 838 b 0 969 85 899 54 933 l 0 972 l 293 972 l 293 969 b 243 894 263 953 243 931 b 264 831 243 878 247 857 l 500 451 "},"Þ":{"ha":865,"x_min":0,"x_max":0,"o":"m 268 778 l 476 778 b 842 493 688 778 842 683 b 476 208 842 303 688 208 l 268 208 l 268 167 b 382 3 268 79 285 36 l 382 0 l 64 0 l 64 3 b 143 178 131 31 143 86 l 143 794 b 64 969 143 886 131 942 l 64 972 l 347 972 l 347 969 b 268 794 281 942 268 886 m 453 244 b 707 493 632 244 707 344 b 453 742 707 642 632 742 l 268 742 l 268 244 "},"ß":{"ha":844,"x_min":0,"x_max":0,"o":"m 247 0 l 46 0 l 46 3 b 125 151 113 31 125 60 l 125 639 l 28 639 l 28 647 l 125 678 l 125 726 b 443 1044 125 972 308 1044 b 689 878 578 1044 689 989 b 536 681 689 778 603 733 b 453 564 478 635 453 608 b 624 419 453 515 485 481 b 817 192 750 364 817 303 b 582 -14 817 67 711 -14 b 413 22 486 -14 456 22 b 353 -14 386 22 369 6 l 338 250 l 340 250 b 582 14 415 90 468 14 b 714 147 665 14 714 76 b 540 322 714 232 653 269 b 376 507 415 381 376 425 b 518 700 376 582 426 624 b 604 871 574 746 604 793 b 443 1022 604 961 551 1022 b 247 760 324 1022 247 929 "},"à":{"ha":718,"x_min":0,"x_max":0,"o":"m 310 1040 b 408 779 319 950 351 876 l 403 779 b 168 1040 296 865 224 949 l 310 1040 m 733 47 b 608 -11 710 14 665 -11 b 485 111 533 -11 492 38 b 482 178 485 117 482 163 b 250 -10 467 81 367 -10 b 53 163 140 -10 53 46 b 375 376 53 311 210 346 l 481 396 l 481 475 b 319 663 481 576 433 663 b 178 549 217 663 178 610 b 242 475 178 506 203 475 b 260 479 247 475 254 476 b 181 417 253 438 221 417 b 79 518 124 417 79 454 b 319 689 79 608 176 689 b 608 454 500 689 608 619 b 604 154 608 331 604 239 b 692 39 604 78 633 39 b 733 50 707 39 722 43 m 388 351 b 183 176 250 325 183 275 b 301 51 183 85 235 51 b 478 254 389 51 475 125 l 481 369 "},"á":{"ha":718,"x_min":0,"x_max":0,"o":"m 514 1040 b 279 779 458 949 386 865 l 274 779 b 372 1040 331 876 363 950 m 733 47 b 608 -11 710 14 665 -11 b 485 111 533 -11 492 38 b 482 178 485 117 482 163 b 250 -10 467 81 367 -10 b 53 163 140 -10 53 46 b 375 376 53 311 210 346 l 481 396 l 481 475 b 319 663 481 576 433 663 b 178 549 217 663 178 610 b 242 475 178 506 203 475 b 260 479 247 475 254 476 b 181 417 253 438 221 417 b 79 518 124 417 79 454 b 319 689 79 608 176 689 b 608 454 500 689 608 619 b 604 154 608 331 604 239 b 692 39 604 78 633 39 b 733 50 707 39 722 43 m 388 351 b 183 176 250 325 183 275 b 301 51 183 85 235 51 b 478 254 389 51 475 125 l 481 369 "},"â":{"ha":718,"x_min":0,"x_max":0,"o":"m 546 767 b 354 901 474 804 399 858 b 163 767 310 858 235 804 l 151 767 b 351 1050 228 843 311 953 l 357 1050 b 557 767 397 953 481 843 l 546 767 m 733 47 b 608 -11 710 14 665 -11 b 485 111 533 -11 492 38 b 482 178 485 117 482 163 b 250 -10 467 81 367 -10 b 53 163 140 -10 53 46 b 375 376 53 311 210 346 l 481 396 l 481 475 b 319 663 481 576 433 663 b 178 549 217 663 178 610 b 242 475 178 506 203 475 b 260 479 247 475 254 476 b 181 417 253 438 221 417 b 79 518 124 417 79 454 b 319 689 79 608 176 689 b 608 454 500 689 608 619 b 604 154 608 331 604 239 b 692 39 604 78 633 39 b 733 50 707 39 722 43 m 388 351 b 183 176 250 325 183 275 b 301 51 183 85 235 51 b 478 254 389 51 475 125 l 481 369 "},"ã":{"ha":718,"x_min":0,"x_max":0,"o":"m 601 997 b 450 808 567 876 517 808 b 242 897 376 808 301 897 b 121 803 186 897 147 860 l 107 803 b 258 992 142 924 192 992 b 467 903 332 992 407 903 b 588 997 522 903 561 940 l 601 997 m 733 47 b 608 -11 710 14 665 -11 b 485 111 533 -11 492 38 b 482 178 485 117 482 163 b 250 -10 467 81 367 -10 b 53 163 140 -10 53 46 b 375 376 53 311 210 346 l 481 396 l 481 475 b 319 663 481 576 433 663 b 178 549 217 663 178 610 b 242 475 178 506 203 475 b 260 479 247 475 254 476 b 181 417 253 438 221 417 b 79 518 124 417 79 454 b 319 689 79 608 176 689 b 608 454 500 689 608 619 b 604 154 608 331 604 239 b 692 39 604 78 633 39 b 733 50 707 39 722 43 m 388 351 b 183 176 250 325 183 275 b 301 51 183 85 235 51 b 478 254 389 51 475 125 l 481 369 "},"ä":{"ha":718,"x_min":0,"x_max":0,"o":"m 229 806 b 147 889 182 806 147 843 b 229 971 147 933 182 971 b 311 889 275 971 311 933 b 229 806 311 843 275 806 m 479 806 b 396 889 433 806 396 843 b 479 971 396 933 433 971 b 561 889 525 971 561 933 b 479 806 561 843 525 806 m 733 47 b 608 -11 710 14 665 -11 b 485 111 533 -11 492 38 b 482 178 485 117 482 163 b 250 -10 467 81 367 -10 b 53 163 140 -10 53 46 b 375 376 53 311 210 346 l 481 396 l 481 475 b 319 663 481 576 433 663 b 178 549 217 663 178 610 b 242 475 178 506 203 475 b 260 479 247 475 254 476 b 181 417 253 438 221 417 b 79 518 124 417 79 454 b 319 689 79 608 176 689 b 608 454 500 689 608 619 b 604 154 608 331 604 239 b 692 39 604 78 633 39 b 733 50 707 39 722 43 m 388 351 b 183 176 250 325 183 275 b 301 51 183 85 235 51 b 478 254 389 51 475 125 l 481 369 "},"å":{"ha":718,"x_min":0,"x_max":0,"o":"m 354 1051 b 488 921 426 1051 488 992 b 354 789 488 847 426 789 b 221 921 282 789 221 847 b 354 1051 221 992 282 1051 m 354 822 b 454 921 408 822 454 865 b 354 1018 454 974 408 1018 b 254 921 300 1018 254 974 b 354 822 254 865 300 822 m 733 47 b 608 -11 710 14 665 -11 b 485 111 533 -11 492 38 b 482 178 485 117 482 163 b 250 -10 467 81 367 -10 b 53 163 140 -10 53 46 b 375 376 53 311 210 346 l 481 396 l 481 475 b 319 663 481 576 433 663 b 178 549 217 663 178 610 b 242 475 178 506 203 475 b 260 479 247 475 254 476 b 181 417 253 438 221 417 b 79 518 124 417 79 454 b 319 689 79 608 176 689 b 608 454 500 689 608 619 b 604 154 608 331 604 239 b 692 39 604 78 633 39 b 733 50 707 39 722 43 m 388 351 b 183 176 250 325 183 275 b 301 51 183 85 235 51 b 478 254 389 51 475 125 l 481 369 "},"æ":{"ha":1140,"x_min":0,"x_max":0,"o":"m 1099 218 b 811 -14 1072 69 964 -14 b 506 200 674 -14 553 63 b 250 -10 486 99 399 -10 b 53 163 140 -10 53 46 b 375 369 53 311 210 339 l 481 389 l 481 475 b 319 663 481 576 433 663 b 178 549 217 663 178 610 b 242 475 178 506 203 475 b 260 479 247 475 254 476 b 181 417 253 438 221 417 b 79 518 124 417 79 454 b 319 689 79 608 176 689 b 558 567 443 689 521 642 b 807 689 618 643 708 689 b 1094 365 1007 689 1094 556 l 608 365 b 857 50 608 181 701 50 b 1090 221 961 50 1050 106 l 1099 218 m 963 394 b 806 661 963 536 938 661 b 611 394 707 661 618 558 m 388 344 b 183 176 250 318 183 275 b 301 51 183 85 235 51 b 481 267 399 51 481 125 l 481 363 "},"ç":{"ha":676,"x_min":0,"x_max":0,"o":"m 361 -310 b 210 -235 290 -310 233 -278 l 221 -222 b 333 -276 251 -262 294 -276 b 417 -192 382 -276 417 -246 b 292 -111 417 -129 371 -114 l 338 -12 b 44 325 188 3 44 119 b 396 689 44 551 208 689 b 640 518 546 689 640 608 b 538 414 640 454 594 414 b 453 478 489 414 453 444 b 478 474 461 475 471 474 b 542 549 517 474 542 501 b 396 661 542 610 499 661 b 179 346 265 661 179 528 b 410 49 179 158 281 49 b 647 221 519 49 607 106 l 656 218 b 369 -14 629 69 519 -14 l 361 -14 l 328 -89 b 519 -194 425 -89 519 -119 b 361 -310 519 -268 449 -310 "},"è":{"ha":701,"x_min":0,"x_max":0,"o":"m 333 1040 b 432 779 343 950 375 876 l 426 779 b 192 1040 319 865 247 949 l 333 1040 m 368 689 b 656 365 568 689 656 556 l 169 365 b 418 50 169 181 263 50 b 651 221 522 50 611 106 l 660 218 b 372 -14 633 69 525 -14 b 44 338 194 -14 44 115 b 368 689 44 546 193 689 m 524 394 b 367 661 524 536 499 661 b 172 394 268 661 179 558 "},"é":{"ha":701,"x_min":0,"x_max":0,"o":"m 538 1040 b 303 779 482 949 410 865 l 297 779 b 396 1040 354 876 386 950 m 368 689 b 656 365 568 689 656 556 l 169 365 b 418 50 169 181 263 50 b 651 221 522 50 611 106 l 660 218 b 372 -14 633 69 525 -14 b 44 338 194 -14 44 115 b 368 689 44 546 193 689 m 524 394 b 367 661 524 536 499 661 b 172 394 268 661 179 558 "},"ê":{"ha":701,"x_min":0,"x_max":0,"o":"m 569 767 b 378 901 497 804 422 858 b 186 767 333 858 258 804 l 175 767 b 375 1050 251 843 335 953 l 381 1050 b 581 767 421 953 504 843 l 569 767 m 368 689 b 656 365 568 689 656 556 l 169 365 b 418 50 169 181 263 50 b 651 221 522 50 611 106 l 660 218 b 372 -14 633 69 525 -14 b 44 338 194 -14 44 115 b 368 689 44 546 193 689 m 524 394 b 367 661 524 536 499 661 b 172 394 268 661 179 558 "},"ë":{"ha":701,"x_min":0,"x_max":0,"o":"m 253 806 b 171 889 206 806 171 843 b 253 971 171 933 206 971 b 335 889 299 971 335 933 b 253 806 335 843 299 806 m 503 806 b 419 889 457 806 419 843 b 503 971 419 933 457 971 b 585 889 549 971 585 933 b 503 806 585 843 549 806 m 368 689 b 656 365 568 689 656 556 l 169 365 b 418 50 169 181 263 50 b 651 221 522 50 611 106 l 660 218 b 372 -14 633 69 525 -14 b 44 338 194 -14 44 115 b 368 689 44 546 193 689 m 524 394 b 367 661 524 536 499 661 b 172 394 268 661 179 558 "},"ì":{"ha":361,"x_min":0,"x_max":0,"o":"m 138 1040 b 236 779 147 950 179 876 l 231 779 b -4 1040 124 865 51 949 l 138 1040 m 247 151 b 326 3 247 60 260 31 l 326 0 l 46 0 l 46 3 b 125 151 113 31 125 60 l 125 524 b 39 672 125 603 106 644 l 39 675 l 247 675 "},"í":{"ha":361,"x_min":0,"x_max":0,"o":"m 342 1040 b 107 779 286 949 214 865 l 101 779 b 200 1040 158 876 190 950 m 247 151 b 326 3 247 60 260 31 l 326 0 l 46 0 l 46 3 b 125 151 113 31 125 60 l 125 524 b 39 672 125 603 106 644 l 39 675 l 247 675 "},"î":{"ha":361,"x_min":0,"x_max":0,"o":"m 374 767 b 182 901 301 804 226 858 b -10 767 138 858 63 804 l -21 767 b 179 1050 56 843 139 953 l 185 1050 b 385 767 225 953 308 843 l 374 767 m 247 151 b 326 3 247 60 260 31 l 326 0 l 46 0 l 46 3 b 125 151 113 31 125 60 l 125 524 b 39 672 125 603 106 644 l 39 675 l 247 675 "},"ï":{"ha":361,"x_min":0,"x_max":0,"o":"m 57 806 b -25 889 10 806 -25 843 b 57 971 -25 933 10 971 b 139 889 103 971 139 933 b 57 806 139 843 103 806 m 307 806 b 224 889 261 806 224 843 b 307 971 224 933 261 971 b 389 889 353 971 389 933 b 307 806 389 843 353 806 m 247 151 b 326 3 247 60 260 31 l 326 0 l 46 0 l 46 3 b 125 151 113 31 125 60 l 125 524 b 39 672 125 603 106 644 l 39 675 l 247 675 "},"ð":{"ha":767,"x_min":0,"x_max":0,"o":"m 383 -14 b 44 338 189 -14 44 132 b 381 689 44 543 189 689 b 564 607 443 689 522 663 b 419 890 556 679 514 793 l 228 794 l 213 824 l 393 914 b 142 1043 331 969 249 1017 l 143 1054 b 446 940 261 1039 363 999 l 582 1008 l 597 979 l 476 918 b 722 383 636 793 722 599 b 383 -14 722 138 578 -14 m 383 14 b 586 338 511 14 586 157 b 383 661 586 518 511 661 b 181 338 256 661 181 518 b 383 14 181 157 256 14 "},"ñ":{"ha":822,"x_min":0,"x_max":0,"o":"m 671 997 b 519 808 636 876 586 808 b 311 897 446 808 371 897 b 190 803 256 897 217 860 l 176 803 b 328 992 211 924 261 992 b 536 903 401 992 476 903 b 657 997 592 903 631 940 l 671 997 m 247 675 l 247 482 b 492 689 285 613 372 689 b 708 447 619 689 708 607 l 708 151 b 788 3 708 60 721 31 l 788 0 l 507 0 l 507 3 b 586 151 574 31 586 60 l 586 436 b 439 619 586 535 549 619 b 247 356 328 619 247 514 l 247 151 b 326 3 247 60 260 31 l 326 0 l 46 0 l 46 3 b 125 151 113 31 125 60 l 125 524 b 39 672 125 603 106 644 l 39 675 "},"ò":{"ha":769,"x_min":0,"x_max":0,"o":"m 340 1040 b 439 779 350 950 382 876 l 433 779 b 199 1040 326 865 254 949 l 340 1040 m 385 -14 b 44 338 186 -14 44 135 b 385 689 44 540 186 689 b 725 338 583 689 725 540 b 385 -14 725 135 583 -14 m 385 14 b 588 338 513 14 588 157 b 385 661 588 518 513 661 b 182 338 257 661 182 518 b 385 14 182 157 257 14 "},"ó":{"ha":769,"x_min":0,"x_max":0,"o":"m 544 1040 b 310 779 489 949 417 865 l 304 779 b 403 1040 361 876 393 950 m 385 -14 b 44 338 186 -14 44 135 b 385 689 44 540 186 689 b 725 338 583 689 725 540 b 385 -14 725 135 583 -14 m 385 14 b 588 338 513 14 588 157 b 385 661 588 518 513 661 b 182 338 257 661 182 518 b 385 14 182 157 257 14 "},"ô":{"ha":769,"x_min":0,"x_max":0,"o":"m 576 767 b 385 901 504 804 429 858 b 193 767 340 858 265 804 l 182 767 b 382 1050 258 843 342 953 l 388 1050 b 588 767 428 953 511 843 l 576 767 m 385 -14 b 44 338 186 -14 44 135 b 385 689 44 540 186 689 b 725 338 583 689 725 540 b 385 -14 725 135 583 -14 m 385 14 b 588 338 513 14 588 157 b 385 661 588 518 513 661 b 182 338 257 661 182 518 b 385 14 182 157 257 14 "},"õ":{"ha":769,"x_min":0,"x_max":0,"o":"m 632 997 b 481 808 597 876 547 808 b 272 897 407 808 332 897 b 151 803 217 897 178 860 l 138 803 b 289 992 172 924 222 992 b 497 903 363 992 438 903 b 618 997 553 903 592 940 l 632 997 m 385 -14 b 44 338 186 -14 44 135 b 385 689 44 540 186 689 b 725 338 583 689 725 540 b 385 -14 725 135 583 -14 m 385 14 b 588 338 513 14 588 157 b 385 661 588 518 513 661 b 182 338 257 661 182 518 b 385 14 182 157 257 14 "},"ö":{"ha":769,"x_min":0,"x_max":0,"o":"m 260 806 b 178 889 213 806 178 843 b 260 971 178 933 213 971 b 342 889 306 971 342 933 b 260 806 342 843 306 806 m 510 806 b 426 889 464 806 426 843 b 510 971 426 933 464 971 b 592 889 556 971 592 933 b 510 806 592 843 556 806 m 385 -14 b 44 338 186 -14 44 135 b 385 689 44 540 186 689 b 725 338 583 689 725 540 b 385 -14 725 135 583 -14 m 385 14 b 588 338 513 14 588 157 b 385 661 588 518 513 661 b 182 338 257 661 182 518 b 385 14 182 157 257 14 "},"÷":{"ha":665,"x_min":0,"x_max":0,"o":"m 288 676 b 332 721 288 701 307 721 b 378 676 357 721 378 701 b 332 631 378 651 357 631 b 288 676 307 631 288 651 m 61 465 l 604 465 l 604 429 l 61 429 m 288 218 b 332 264 288 244 307 264 b 378 218 357 264 378 244 b 332 174 378 194 357 174 b 288 218 307 174 288 194 "},"ø":{"ha":769,"x_min":0,"x_max":0,"o":"m 182 338 b 213 157 182 271 192 208 l 554 526 b 385 661 521 608 463 661 b 182 338 257 661 182 518 m 385 14 b 588 338 513 14 588 157 b 565 494 588 394 581 449 l 225 126 b 385 14 260 57 314 14 m 385 -14 b 165 63 299 -14 224 14 l 89 -21 l 65 -1 l 143 83 b 44 338 81 146 44 235 b 385 689 44 540 186 689 b 619 599 479 689 561 656 l 700 685 l 724 665 l 642 576 b 725 338 694 515 725 432 b 385 -14 725 135 583 -14 "},"ù":{"ha":797,"x_min":0,"x_max":0,"o":"m 356 1040 b 454 779 365 950 397 876 l 449 779 b 214 1040 342 865 269 949 l 356 1040 m 563 524 b 476 672 563 603 543 644 l 476 675 l 685 675 l 685 138 b 785 3 685 51 719 24 l 785 0 l 563 0 l 563 201 b 313 -14 529 64 435 -14 b 101 228 190 -14 101 68 l 101 524 b 15 672 101 603 82 644 l 15 675 l 224 675 l 224 243 b 365 58 224 150 261 58 b 563 319 474 58 563 161 "},"ú":{"ha":797,"x_min":0,"x_max":0,"o":"m 560 1040 b 325 779 504 949 432 865 l 319 779 b 418 1040 376 876 408 950 m 563 524 b 476 672 563 603 543 644 l 476 675 l 685 675 l 685 138 b 785 3 685 51 719 24 l 785 0 l 563 0 l 563 201 b 313 -14 529 64 435 -14 b 101 228 190 -14 101 68 l 101 524 b 15 672 101 603 82 644 l 15 675 l 224 675 l 224 243 b 365 58 224 150 261 58 b 563 319 474 58 563 161 "},"û":{"ha":797,"x_min":0,"x_max":0,"o":"m 592 767 b 400 901 519 804 444 858 b 208 767 356 858 281 804 l 197 767 b 397 1050 274 843 357 953 l 403 1050 b 603 767 443 953 526 843 l 592 767 m 563 524 b 476 672 563 603 543 644 l 476 675 l 685 675 l 685 138 b 785 3 685 51 719 24 l 785 0 l 563 0 l 563 201 b 313 -14 529 64 435 -14 b 101 228 190 -14 101 68 l 101 524 b 15 672 101 603 82 644 l 15 675 l 224 675 l 224 243 b 365 58 224 150 261 58 b 563 319 474 58 563 161 "},"ü":{"ha":797,"x_min":0,"x_max":0,"o":"m 275 806 b 193 889 228 806 193 843 b 275 971 193 933 228 971 b 357 889 321 971 357 933 b 275 806 357 843 321 806 m 525 806 b 442 889 479 806 442 843 b 525 971 442 933 479 971 b 607 889 571 971 607 933 b 525 806 607 843 571 806 m 563 524 b 476 672 563 603 543 644 l 476 675 l 685 675 l 685 138 b 785 3 685 51 719 24 l 785 0 l 563 0 l 563 201 b 313 -14 529 64 435 -14 b 101 228 190 -14 101 68 l 101 524 b 15 672 101 603 82 644 l 15 675 l 224 675 l 224 243 b 365 58 224 150 261 58 b 563 319 474 58 563 161 "},"ý":{"ha":706,"x_min":0,"x_max":0,"o":"m 540 1040 b 306 779 485 949 413 865 l 300 779 b 399 1040 357 876 389 950 m 344 11 l 99 525 b -7 672 53 621 39 640 l -7 675 l 243 675 l 243 672 b 201 611 208 657 201 639 b 225 525 201 590 211 556 l 403 147 l 563 518 b 579 590 574 543 579 568 b 524 672 579 626 563 657 l 524 675 l 713 675 l 713 672 b 601 511 664 640 644 608 l 319 -135 b 114 -326 264 -262 207 -326 b -14 -217 39 -326 -14 -285 b 81 -122 -14 -157 31 -122 b 132 -133 100 -122 115 -125 b 86 -199 100 -143 86 -165 b 154 -267 86 -239 113 -267 b 285 -122 210 -267 240 -221 "},"þ":{"ha":847,"x_min":0,"x_max":0,"o":"m 453 629 b 242 389 353 629 242 540 l 242 288 b 453 46 242 136 353 46 b 668 343 585 46 668 164 b 453 629 668 521 585 629 m 242 1040 l 242 488 b 493 689 269 594 363 689 b 803 343 664 689 803 561 b 493 -14 803 126 664 -14 b 242 188 363 -14 269 81 l 242 -161 b 321 -310 242 -253 254 -282 l 321 -312 l 40 -312 l 40 -310 b 119 -161 107 -282 119 -253 l 119 889 b 33 1038 119 968 100 1010 l 33 1040 "},"ÿ":{"ha":706,"x_min":0,"x_max":0,"o":"m 256 806 b 174 889 208 806 174 843 b 256 971 174 933 208 971 b 338 889 301 971 338 933 b 256 806 338 843 301 806 m 506 806 b 422 889 460 806 422 843 b 506 971 422 933 460 971 b 588 889 551 971 588 933 b 506 806 588 843 551 806 m 344 11 l 99 525 b -7 672 53 621 39 640 l -7 675 l 243 675 l 243 672 b 201 611 208 657 201 639 b 225 525 201 590 211 556 l 403 147 l 563 518 b 579 590 574 543 579 568 b 524 672 579 626 563 657 l 524 675 l 713 675 l 713 672 b 601 511 664 640 644 608 l 319 -135 b 114 -326 264 -262 207 -326 b -14 -217 39 -326 -14 -285 b 81 -122 -14 -157 31 -122 b 132 -133 100 -122 115 -125 b 86 -199 100 -143 86 -165 b 154 -267 86 -239 113 -267 b 285 -122 210 -267 240 -221 "},"Ā":{"ha":971,"x_min":0,"x_max":0,"o":"m 293 1083 l 293 1132 l 676 1132 l 676 1083 m 247 361 l 632 361 l 435 801 m 218 0 l -1 0 l -1 3 b 129 188 53 31 89 96 l 478 986 l 482 986 l 858 156 b 971 3 900 65 917 31 l 971 0 l 682 0 l 682 3 b 746 76 722 19 746 43 b 722 160 746 99 738 126 l 649 325 l 232 325 l 175 192 b 151 96 163 163 151 131 b 218 3 151 54 179 19 "},"ā":{"ha":718,"x_min":0,"x_max":0,"o":"m 163 833 l 163 882 l 546 882 l 546 833 m 733 47 b 608 -11 710 14 665 -11 b 485 111 533 -11 492 38 b 482 178 485 117 482 163 b 250 -10 467 81 367 -10 b 53 163 140 -10 53 46 b 375 376 53 311 210 346 l 481 396 l 481 475 b 319 663 481 576 433 663 b 178 549 217 663 178 610 b 242 475 178 506 203 475 b 260 479 247 475 254 476 b 181 417 253 438 221 417 b 79 518 124 417 79 454 b 319 689 79 608 176 689 b 608 454 500 689 608 619 b 604 154 608 331 604 239 b 692 39 604 78 633 39 b 733 50 707 39 722 43 m 388 351 b 183 176 250 325 183 275 b 301 51 183 85 235 51 b 478 254 389 51 475 125 l 481 369 "},"Ă":{"ha":971,"x_min":0,"x_max":0,"o":"m 676 1274 b 486 1053 675 1139 599 1053 b 294 1274 372 1053 296 1139 l 306 1274 b 486 1149 314 1188 404 1149 b 665 1274 567 1149 657 1188 l 676 1274 m 247 361 l 632 361 l 435 801 m 218 0 l -1 0 l -1 3 b 129 188 53 31 89 96 l 478 986 l 482 986 l 858 156 b 971 3 900 65 917 31 l 971 0 l 682 0 l 682 3 b 746 76 722 19 746 43 b 722 160 746 99 738 126 l 649 325 l 232 325 l 175 192 b 151 96 163 163 151 131 b 218 3 151 54 179 19 "},"ă":{"ha":718,"x_min":0,"x_max":0,"o":"m 544 1031 b 354 789 543 883 467 789 b 164 1031 242 789 165 883 l 175 1031 b 354 886 183 928 274 886 b 533 1031 435 886 525 928 l 544 1031 m 733 47 b 608 -11 710 14 665 -11 b 485 111 533 -11 492 38 b 482 178 485 117 482 163 b 250 -10 467 81 367 -10 b 53 163 140 -10 53 46 b 375 376 53 311 210 346 l 481 396 l 481 475 b 319 663 481 576 433 663 b 178 549 217 663 178 610 b 242 475 178 506 203 475 b 260 479 247 475 254 476 b 181 417 253 438 221 417 b 79 518 124 417 79 454 b 319 689 79 608 176 689 b 608 454 500 689 608 619 b 604 154 608 331 604 239 b 692 39 604 78 633 39 b 733 50 707 39 722 43 m 388 351 b 183 176 250 325 183 275 b 301 51 183 85 235 51 b 478 254 389 51 475 125 l 481 369 "},"Ą":{"ha":971,"x_min":0,"x_max":0,"o":"m 817 -193 b 626 -329 789 -260 736 -329 b 497 -208 560 -329 497 -285 b 706 17 497 -101 613 -37 b 746 76 739 36 746 56 b 722 160 746 99 738 126 l 649 325 l 232 325 l 175 192 b 151 96 163 163 151 131 b 218 3 151 54 179 19 l 218 0 l -1 0 l -1 3 b 129 188 53 31 89 96 l 478 986 l 482 986 l 858 156 b 971 3 900 65 917 31 l 971 0 l 707 0 b 593 -181 629 -61 593 -121 b 679 -267 593 -236 624 -267 b 813 -190 732 -267 778 -243 l 817 -193 m 247 361 l 632 361 l 435 801 "},"ą":{"ha":718,"x_min":0,"x_max":0,"o":"m 547 -329 b 418 -208 481 -329 418 -285 b 632 -8 418 -118 526 -54 b 608 -11 622 -10 615 -11 b 485 111 533 -11 492 38 b 482 178 485 117 482 163 b 250 -10 467 81 367 -10 b 53 163 140 -10 53 46 b 375 376 53 311 210 346 l 481 396 l 481 475 b 319 663 481 576 433 663 b 178 549 217 663 178 610 b 242 475 178 506 203 475 b 260 479 247 475 254 476 b 181 417 253 438 221 417 b 79 518 124 417 79 454 b 319 689 79 608 176 689 b 608 454 500 689 608 619 b 604 154 608 331 604 239 b 692 39 604 78 633 39 b 733 50 707 39 722 43 l 733 47 b 514 -181 689 -14 514 -54 b 600 -267 514 -236 544 -267 b 733 -190 653 -267 699 -243 l 738 -193 b 547 -329 710 -260 657 -329 m 388 351 b 183 176 250 325 183 275 b 301 51 183 85 235 51 b 478 254 389 51 475 125 l 481 369 "},"Ć":{"ha":944,"x_min":0,"x_max":0,"o":"m 711 1271 b 474 1043 654 1190 582 1118 l 468 1043 b 558 1271 525 1128 547 1192 m 876 681 l 874 681 b 546 954 817 840 700 954 b 194 486 322 954 194 756 b 547 49 194 211 358 49 b 893 281 707 49 824 113 l 901 278 b 526 -14 868 100 729 -14 b 50 486 256 -14 50 186 b 546 986 50 772 272 986 b 775 938 657 986 732 938 b 865 986 821 938 847 965 "},"ć":{"ha":676,"x_min":0,"x_max":0,"o":"m 560 1040 b 325 779 504 949 432 865 l 319 779 b 418 1040 376 876 408 950 m 396 661 b 179 346 265 661 179 528 b 410 49 179 158 281 49 b 647 221 519 49 607 106 l 656 218 b 369 -14 629 69 519 -14 b 44 325 208 -14 44 106 b 396 689 44 551 208 689 b 640 518 546 689 640 608 b 538 414 640 454 594 414 b 453 478 489 414 453 444 b 478 474 461 475 471 474 b 542 549 517 474 542 501 b 396 661 542 610 499 661 "},"Ĉ":{"ha":944,"x_min":0,"x_max":0,"o":"m 733 1031 b 542 1150 661 1065 586 1110 b 350 1031 497 1110 422 1065 l 339 1031 b 539 1292 415 1101 499 1203 l 544 1292 b 744 1031 585 1203 668 1101 l 733 1031 m 876 681 l 874 681 b 546 954 817 840 700 954 b 194 486 322 954 194 756 b 547 49 194 211 358 49 b 893 281 707 49 824 113 l 901 278 b 526 -14 868 100 729 -14 b 50 486 256 -14 50 186 b 546 986 50 772 272 986 b 775 938 657 986 732 938 b 865 986 821 938 847 965 "},"ĉ":{"ha":676,"x_min":0,"x_max":0,"o":"m 592 767 b 400 901 519 804 444 858 b 208 767 356 858 281 804 l 197 767 b 397 1050 274 843 357 953 l 403 1050 b 603 767 443 953 526 843 l 592 767 m 396 661 b 179 346 265 661 179 528 b 410 49 179 158 281 49 b 647 221 519 49 607 106 l 656 218 b 369 -14 629 69 519 -14 b 44 325 208 -14 44 106 b 396 689 44 551 208 689 b 640 518 546 689 640 608 b 538 414 640 454 594 414 b 453 478 489 414 453 444 b 478 474 461 475 471 474 b 542 549 517 474 542 501 b 396 661 542 610 499 661 "},"Ċ":{"ha":944,"x_min":0,"x_max":0,"o":"m 454 1156 b 542 1243 454 1204 493 1243 b 629 1156 590 1243 629 1204 b 542 1069 629 1108 590 1069 b 454 1156 493 1069 454 1108 m 876 681 l 874 681 b 546 954 817 840 700 954 b 194 486 322 954 194 756 b 547 49 194 211 358 49 b 893 281 707 49 824 113 l 901 278 b 526 -14 868 100 729 -14 b 50 486 256 -14 50 186 b 546 986 50 772 272 986 b 775 938 657 986 732 938 b 865 986 821 938 847 965 "},"ċ":{"ha":676,"x_min":0,"x_max":0,"o":"m 313 911 b 400 999 313 960 351 999 b 488 911 449 999 488 960 b 400 825 488 864 449 825 b 313 911 351 825 313 864 m 396 661 b 179 346 265 661 179 528 b 410 49 179 158 281 49 b 647 221 519 49 607 106 l 656 218 b 369 -14 629 69 519 -14 b 44 325 208 -14 44 106 b 396 689 44 551 208 689 b 640 518 546 689 640 608 b 538 414 640 454 594 414 b 453 478 489 414 453 444 b 478 474 461 475 471 474 b 542 549 517 474 542 501 b 396 661 542 610 499 661 "},"Č":{"ha":944,"x_min":0,"x_max":0,"o":"m 350 1292 b 542 1172 422 1257 497 1213 b 733 1292 586 1213 661 1257 l 744 1292 b 544 1031 668 1221 585 1119 l 539 1031 b 339 1292 499 1119 415 1221 l 350 1292 m 876 681 l 874 681 b 546 954 817 840 700 954 b 194 486 322 954 194 756 b 547 49 194 211 358 49 b 893 281 707 49 824 113 l 901 278 b 526 -14 868 100 729 -14 b 50 486 256 -14 50 186 b 546 986 50 772 272 986 b 775 938 657 986 732 938 b 865 986 821 938 847 965 "},"č":{"ha":676,"x_min":0,"x_max":0,"o":"m 208 1050 b 400 915 281 1013 356 958 b 592 1050 444 958 519 1013 l 603 1050 b 403 767 526 974 443 864 l 397 767 b 197 1050 357 864 274 974 l 208 1050 m 396 661 b 179 346 265 661 179 528 b 410 49 179 158 281 49 b 647 221 519 49 607 106 l 656 218 b 369 -14 629 69 519 -14 b 44 325 208 -14 44 106 b 396 689 44 551 208 689 b 640 518 546 689 640 608 b 538 414 640 454 594 414 b 453 478 489 414 453 444 b 478 474 461 475 471 474 b 542 549 517 474 542 501 b 396 661 542 610 499 661 "},"Ď":{"ha":1022,"x_min":0,"x_max":0,"o":"m 276 1292 b 468 1172 349 1257 424 1213 b 660 1292 513 1213 588 1257 l 671 1292 b 471 1031 594 1221 511 1119 l 465 1031 b 265 1292 425 1119 342 1221 l 276 1292 m 64 3 b 143 178 131 31 143 86 l 143 794 b 64 969 143 886 131 942 l 64 972 l 401 972 b 972 497 736 972 972 811 b 435 0 972 160 726 0 l 64 0 m 410 36 b 835 497 639 36 835 160 b 389 936 835 790 640 936 l 268 936 l 268 36 "},"ď":{"ha":849,"x_min":0,"x_max":0,"o":"m 967 1040 b 824 756 947 950 876 818 l 819 756 b 844 1040 840 832 851 936 l 967 1040 m 394 46 b 606 286 494 46 606 135 l 606 388 b 394 629 606 539 494 629 b 179 332 263 629 179 511 b 394 46 179 154 263 46 m 606 889 b 519 1038 606 968 586 1010 l 519 1040 l 728 1040 l 728 151 b 814 3 728 72 747 31 l 814 0 l 606 0 l 606 188 b 354 -14 578 81 485 -14 b 44 332 183 -14 44 114 b 354 689 44 549 183 689 b 606 488 485 689 578 594 "},"Đ":{"ha":1022,"x_min":0,"x_max":0,"o":"m 64 0 l 64 3 b 143 178 131 31 143 86 l 143 476 l 64 476 l 64 513 l 143 513 l 143 794 b 64 969 143 886 131 942 l 64 972 l 401 972 b 972 497 736 972 972 811 b 435 0 972 160 726 0 m 410 36 b 835 497 639 36 835 160 b 389 936 835 790 640 936 l 268 936 l 268 513 l 476 513 l 476 476 l 268 476 l 268 36 "},"đ":{"ha":849,"x_min":0,"x_max":0,"o":"m 394 46 b 606 286 494 46 606 135 l 606 388 b 394 629 606 539 494 629 b 179 332 263 629 179 511 b 394 46 179 154 263 46 m 606 188 b 354 -14 578 81 485 -14 b 44 332 183 -14 44 114 b 354 689 44 549 183 689 b 606 488 485 689 578 594 l 606 796 l 429 796 l 429 832 l 606 832 l 606 889 b 519 1038 606 968 586 1010 l 519 1040 l 728 1040 l 728 832 l 814 832 l 814 796 l 728 796 l 728 151 b 814 3 728 72 747 31 l 814 0 l 606 0 l 606 188 "},"Ē":{"ha":892,"x_min":0,"x_max":0,"o":"m 261 1083 l 261 1132 l 644 1132 l 644 1083 m 696 972 b 763 982 721 972 747 974 l 810 742 l 807 742 b 500 936 735 874 656 936 l 268 936 l 268 511 l 464 511 b 658 665 576 511 611 536 l 661 665 l 661 342 l 658 342 b 464 475 611 469 576 475 l 268 475 l 268 36 l 529 36 b 849 256 685 36 775 108 l 851 256 l 807 0 l 64 0 l 64 3 b 143 178 131 31 143 86 l 143 794 b 64 969 143 886 131 942 l 64 972 "},"ē":{"ha":701,"x_min":0,"x_max":0,"o":"m 186 833 l 186 882 l 569 882 l 569 833 m 368 689 b 656 365 568 689 656 556 l 169 365 b 418 50 169 181 263 50 b 651 221 522 50 611 106 l 660 218 b 372 -14 633 69 525 -14 b 44 338 194 -14 44 115 b 368 689 44 546 193 689 m 524 394 b 367 661 524 536 499 661 b 172 394 268 661 179 558 "},"Ĕ":{"ha":892,"x_min":0,"x_max":0,"o":"m 644 1274 b 454 1053 643 1139 567 1053 b 263 1274 340 1053 264 1139 l 274 1274 b 454 1149 282 1188 372 1149 b 633 1274 535 1149 625 1188 l 644 1274 m 696 972 b 763 982 721 972 747 974 l 810 742 l 807 742 b 500 936 735 874 656 936 l 268 936 l 268 511 l 464 511 b 658 665 576 511 611 536 l 661 665 l 661 342 l 658 342 b 464 475 611 469 576 475 l 268 475 l 268 36 l 529 36 b 849 256 685 36 775 108 l 851 256 l 807 0 l 64 0 l 64 3 b 143 178 131 31 143 86 l 143 794 b 64 969 143 886 131 942 l 64 972 "},"ĕ":{"ha":701,"x_min":0,"x_max":0,"o":"m 568 1031 b 378 789 567 883 490 789 b 188 1031 265 789 189 883 l 199 1031 b 378 886 207 928 297 886 b 557 1031 458 886 549 928 l 568 1031 m 368 689 b 656 365 568 689 656 556 l 169 365 b 418 50 169 181 263 50 b 651 221 522 50 611 106 l 660 218 b 372 -14 633 69 525 -14 b 44 338 194 -14 44 115 b 368 689 44 546 193 689 m 524 394 b 367 661 524 536 499 661 b 172 394 268 661 179 558 "},"Ė":{"ha":892,"x_min":0,"x_max":0,"o":"m 369 1156 b 457 1243 369 1204 408 1243 b 544 1156 506 1243 544 1204 b 457 1069 544 1108 506 1069 b 369 1156 408 1069 369 1108 m 696 972 b 763 982 721 972 747 974 l 810 742 l 807 742 b 500 936 735 874 656 936 l 268 936 l 268 511 l 464 511 b 658 665 576 511 611 536 l 661 665 l 661 342 l 658 342 b 464 475 611 469 576 475 l 268 475 l 268 36 l 529 36 b 849 256 685 36 775 108 l 851 256 l 807 0 l 64 0 l 64 3 b 143 178 131 31 143 86 l 143 794 b 64 969 143 886 131 942 l 64 972 "},"ė":{"ha":701,"x_min":0,"x_max":0,"o":"m 290 911 b 378 999 290 960 329 999 b 465 911 426 999 465 960 b 378 825 465 864 426 825 b 290 911 329 825 290 864 m 368 689 b 656 365 568 689 656 556 l 169 365 b 418 50 169 181 263 50 b 651 221 522 50 611 106 l 660 218 b 372 -14 633 69 525 -14 b 44 338 194 -14 44 115 b 368 689 44 546 193 689 m 524 394 b 367 661 524 536 499 661 b 172 394 268 661 179 558 "},"Ę":{"ha":892,"x_min":0,"x_max":0,"o":"m 783 -193 b 593 -329 756 -260 703 -329 b 464 -208 526 -329 464 -285 b 643 0 464 -117 547 -56 l 64 0 l 64 3 b 143 178 131 31 143 86 l 143 794 b 64 969 143 886 131 942 l 64 972 l 696 972 b 763 982 721 972 747 974 l 810 742 l 807 742 b 500 936 735 874 656 936 l 268 936 l 268 511 l 464 511 b 658 665 576 511 611 536 l 661 665 l 661 342 l 658 342 b 464 475 611 469 576 475 l 268 475 l 268 36 l 529 36 b 849 256 685 36 775 108 l 851 256 l 807 0 l 674 0 b 560 -181 596 -61 560 -121 b 646 -267 560 -236 590 -267 b 779 -190 699 -267 744 -243 l 783 -193 "},"ę":{"ha":701,"x_min":0,"x_max":0,"o":"m 414 -329 b 285 -208 347 -329 285 -285 b 467 -4 285 -119 375 -57 b 372 -14 442 -11 401 -14 b 44 338 194 -14 44 115 b 368 689 44 546 193 689 b 656 365 568 689 656 556 l 169 365 b 418 50 169 181 263 50 b 651 221 522 50 611 106 l 660 218 b 513 8 643 122 585 64 b 381 -181 424 -61 381 -115 b 467 -267 381 -236 411 -267 b 600 -190 519 -267 565 -243 l 604 -193 b 414 -329 576 -260 524 -329 m 524 394 b 367 661 524 536 499 661 b 172 394 268 661 179 558 "},"Ě":{"ha":892,"x_min":0,"x_max":0,"o":"m 261 1292 b 453 1172 333 1257 408 1213 b 644 1292 497 1213 572 1257 l 656 1292 b 456 1031 579 1221 496 1119 l 450 1031 b 250 1292 410 1119 326 1221 l 261 1292 m 696 972 b 763 982 721 972 747 974 l 810 742 l 807 742 b 500 936 735 874 656 936 l 268 936 l 268 511 l 464 511 b 658 665 576 511 611 536 l 661 665 l 661 342 l 658 342 b 464 475 611 469 576 475 l 268 475 l 268 36 l 529 36 b 849 256 685 36 775 108 l 851 256 l 807 0 l 64 0 l 64 3 b 143 178 131 31 143 86 l 143 794 b 64 969 143 886 131 942 l 64 972 "},"ě":{"ha":701,"x_min":0,"x_max":0,"o":"m 186 1050 b 378 915 258 1013 333 958 b 569 1050 422 958 497 1013 l 581 1050 b 381 767 504 974 421 864 l 375 767 b 175 1050 335 864 251 974 l 186 1050 m 368 689 b 656 365 568 689 656 556 l 169 365 b 418 50 169 181 263 50 b 651 221 522 50 611 106 l 660 218 b 372 -14 633 69 525 -14 b 44 338 194 -14 44 115 b 368 689 44 546 193 689 m 524 394 b 367 661 524 536 499 661 b 172 394 268 661 179 558 "},"Ĝ":{"ha":1032,"x_min":0,"x_max":0,"o":"m 744 1031 b 553 1150 672 1065 597 1110 b 361 1031 508 1110 433 1065 l 350 1031 b 550 1292 426 1101 510 1203 l 556 1292 b 756 1031 596 1203 679 1101 l 744 1031 m 547 954 b 194 472 322 954 194 758 b 543 39 194 210 338 39 b 796 264 692 39 796 119 l 796 279 b 717 454 796 371 783 426 l 717 457 l 1000 457 l 1000 454 b 921 279 933 426 921 371 l 921 -14 l 918 -14 l 807 163 b 526 -14 775 75 674 -14 b 50 474 251 -14 50 192 b 547 986 50 775 272 986 b 776 938 658 986 733 938 b 867 986 822 938 849 965 l 878 681 l 875 681 b 547 954 818 840 701 954 "},"ĝ":{"ha":760,"x_min":0,"x_max":0,"o":"m 536 767 b 344 901 464 804 389 858 b 153 767 300 858 225 804 l 142 767 b 342 1050 218 843 301 953 l 347 1050 b 547 767 388 953 471 843 l 536 767 m 343 665 b 203 463 249 665 203 572 b 343 260 203 353 249 260 b 485 463 439 260 485 353 b 343 665 485 572 439 665 m 725 -75 b 338 -326 725 -231 550 -326 b 8 -149 188 -326 8 -275 b 207 1 8 -65 89 -12 b 56 136 129 10 56 51 b 190 269 56 206 122 251 b 74 463 114 311 74 385 b 343 689 74 588 169 689 b 567 599 442 689 519 656 b 697 706 593 642 633 706 b 788 626 756 706 788 675 b 674 535 788 557 725 535 l 674 538 b 699 588 692 550 699 564 b 649 632 699 614 681 632 b 575 588 617 632 590 607 b 614 463 601 551 614 508 b 343 236 614 338 518 236 b 210 260 290 236 247 244 b 135 181 174 247 135 219 b 243 114 135 133 172 114 l 464 114 b 725 -75 632 114 725 44 m 336 -300 b 618 -132 511 -300 618 -233 b 450 0 618 -39 560 0 l 297 0 b 119 -140 186 0 119 -46 b 336 -300 119 -239 213 -300 "},"Ğ":{"ha":1032,"x_min":0,"x_max":0,"o":"m 744 1274 b 554 1053 743 1139 667 1053 b 363 1274 440 1053 364 1139 l 374 1274 b 554 1149 382 1188 472 1149 b 733 1274 635 1149 725 1188 l 744 1274 m 547 954 b 194 472 322 954 194 758 b 543 39 194 210 338 39 b 796 264 692 39 796 119 l 796 279 b 717 454 796 371 783 426 l 717 457 l 1000 457 l 1000 454 b 921 279 933 426 921 371 l 921 -14 l 918 -14 l 807 163 b 526 -14 775 75 674 -14 b 50 474 251 -14 50 192 b 547 986 50 775 272 986 b 776 938 658 986 733 938 b 867 986 822 938 849 965 l 878 681 l 875 681 b 547 954 818 840 701 954 "},"ğ":{"ha":760,"x_min":0,"x_max":0,"o":"m 535 1031 b 344 789 533 883 457 789 b 154 1031 232 789 156 883 l 165 1031 b 344 886 174 928 264 886 b 524 1031 425 886 515 928 l 535 1031 m 343 665 b 203 463 249 665 203 572 b 343 260 203 353 249 260 b 485 463 439 260 485 353 b 343 665 485 572 439 665 m 725 -75 b 338 -326 725 -231 550 -326 b 8 -149 188 -326 8 -275 b 207 1 8 -65 89 -12 b 56 136 129 10 56 51 b 190 269 56 206 122 251 b 74 463 114 311 74 385 b 343 689 74 588 169 689 b 567 599 442 689 519 656 b 697 706 593 642 633 706 b 788 626 756 706 788 675 b 674 535 788 557 725 535 l 674 538 b 699 588 692 550 699 564 b 649 632 699 614 681 632 b 575 588 617 632 590 607 b 614 463 601 551 614 508 b 343 236 614 338 518 236 b 210 260 290 236 247 244 b 135 181 174 247 135 219 b 243 114 135 133 172 114 l 464 114 b 725 -75 632 114 725 44 m 336 -300 b 618 -132 511 -300 618 -233 b 450 0 618 -39 560 0 l 297 0 b 119 -140 186 0 119 -46 b 336 -300 119 -239 213 -300 "},"Ġ":{"ha":1032,"x_min":0,"x_max":0,"o":"m 465 1156 b 553 1243 465 1204 504 1243 b 640 1156 601 1243 640 1204 b 553 1069 640 1108 601 1069 b 465 1156 504 1069 465 1108 m 547 954 b 194 472 322 954 194 758 b 543 39 194 210 338 39 b 796 264 692 39 796 119 l 796 279 b 717 454 796 371 783 426 l 717 457 l 1000 457 l 1000 454 b 921 279 933 426 921 371 l 921 -14 l 918 -14 l 807 163 b 526 -14 775 75 674 -14 b 50 474 251 -14 50 192 b 547 986 50 775 272 986 b 776 938 658 986 733 938 b 867 986 822 938 849 965 l 878 681 l 875 681 b 547 954 818 840 701 954 "},"ġ":{"ha":760,"x_min":0,"x_max":0,"o":"m 257 911 b 344 999 257 960 296 999 b 432 911 393 999 432 960 b 344 825 432 864 393 825 b 257 911 296 825 257 864 m 343 665 b 203 463 249 665 203 572 b 343 260 203 353 249 260 b 485 463 439 260 485 353 b 343 665 485 572 439 665 m 725 -75 b 338 -326 725 -231 550 -326 b 8 -149 188 -326 8 -275 b 207 1 8 -65 89 -12 b 56 136 129 10 56 51 b 190 269 56 206 122 251 b 74 463 114 311 74 385 b 343 689 74 588 169 689 b 567 599 442 689 519 656 b 697 706 593 642 633 706 b 788 626 756 706 788 675 b 674 535 788 557 725 535 l 674 538 b 699 588 692 550 699 564 b 649 632 699 614 681 632 b 575 588 617 632 590 607 b 614 463 601 551 614 508 b 343 236 614 338 518 236 b 210 260 290 236 247 244 b 135 181 174 247 135 219 b 243 114 135 133 172 114 l 464 114 b 725 -75 632 114 725 44 m 336 -300 b 618 -132 511 -300 618 -233 b 450 0 618 -39 560 0 l 297 0 b 119 -140 186 0 119 -46 b 336 -300 119 -239 213 -300 "},"Ģ":{"ha":1032,"x_min":0,"x_max":0,"o":"m 547 954 b 194 472 322 954 194 758 b 543 39 194 210 338 39 b 796 264 692 39 796 119 l 796 279 b 717 454 796 371 783 426 l 717 457 l 1000 457 l 1000 454 b 921 279 933 426 921 371 l 921 -14 l 918 -14 l 807 163 b 526 -14 775 75 674 -14 b 50 474 251 -14 50 192 b 547 986 50 775 272 986 b 776 938 658 986 733 938 b 867 986 822 938 849 965 l 878 681 l 875 681 b 547 954 818 840 701 954 m 650 -196 b 456 -353 650 -275 586 -349 l 456 -333 b 593 -207 558 -321 593 -276 b 539 -224 581 -217 558 -224 b 468 -156 499 -224 468 -192 b 549 -79 468 -111 501 -79 b 650 -196 607 -79 650 -124 "},"ģ":{"ha":760,"x_min":0,"x_max":0,"o":"m 247 903 b 442 1060 247 982 311 1056 l 442 1040 b 304 914 339 1028 304 983 b 358 931 317 924 339 931 b 429 863 399 931 429 899 b 349 786 429 818 396 786 b 247 903 290 786 247 831 m 343 665 b 203 463 249 665 203 572 b 343 260 203 353 249 260 b 485 463 439 260 485 353 b 343 665 485 572 439 665 m 725 -75 b 338 -326 725 -231 550 -326 b 8 -149 188 -326 8 -275 b 207 1 8 -65 89 -12 b 56 136 129 10 56 51 b 190 269 56 206 122 251 b 74 463 114 311 74 385 b 343 689 74 588 169 689 b 567 599 442 689 519 656 b 697 706 593 642 633 706 b 788 626 756 706 788 675 b 674 535 788 557 725 535 l 674 538 b 699 588 692 550 699 564 b 649 632 699 614 681 632 b 575 588 617 632 590 607 b 614 463 601 551 614 508 b 343 236 614 338 518 236 b 210 260 290 236 247 244 b 135 181 174 247 135 219 b 243 114 135 133 172 114 l 464 114 b 725 -75 632 114 725 44 m 336 -300 b 618 -132 511 -300 618 -233 b 450 0 618 -39 560 0 l 297 0 b 119 -140 186 0 119 -46 b 336 -300 119 -239 213 -300 "},"Ĥ":{"ha":1101,"x_min":0,"x_max":0,"o":"m 743 1031 b 551 1150 671 1065 596 1110 b 360 1031 507 1110 432 1065 l 349 1031 b 549 1292 425 1101 508 1203 l 554 1292 b 754 1031 594 1203 678 1101 l 743 1031 m 143 794 b 64 969 143 886 131 942 l 64 972 l 347 972 l 347 969 b 268 794 281 942 268 886 l 268 513 l 833 513 l 833 794 b 754 969 833 886 821 942 l 754 972 l 1038 972 l 1038 969 b 958 794 971 942 958 886 l 958 178 b 1038 3 958 86 971 31 l 1038 0 l 754 0 l 754 3 b 833 178 821 31 833 86 l 833 476 l 268 476 l 268 178 b 347 3 268 86 281 31 l 347 0 l 64 0 l 64 3 b 143 178 131 31 143 86 "},"ĥ":{"ha":818,"x_min":0,"x_max":0,"o":"m 600 1086 b 408 1206 528 1121 453 1165 b 217 1086 364 1165 289 1121 l 206 1086 b 406 1347 282 1157 365 1258 l 411 1347 b 611 1086 451 1258 535 1157 l 600 1086 m 243 1040 l 243 482 b 488 689 281 613 368 689 b 704 447 615 689 704 607 l 704 151 b 783 3 704 60 717 31 l 783 0 l 503 0 l 503 3 b 582 151 569 31 582 60 l 582 436 b 435 619 582 535 544 619 b 243 356 324 619 243 514 l 243 151 b 322 3 243 60 256 31 l 322 0 l 42 0 l 42 3 b 121 151 108 31 121 60 l 121 889 b 35 1038 121 968 101 1010 l 35 1040 "},"Ħ":{"ha":1101,"x_min":0,"x_max":0,"o":"m 833 657 l 268 657 l 268 485 l 833 485 m 64 0 l 64 3 b 143 178 131 31 143 86 l 143 657 l 64 657 l 64 693 l 143 693 l 143 794 b 64 969 143 886 131 942 l 64 972 l 347 972 l 347 969 b 268 794 281 942 268 886 l 268 693 l 833 693 l 833 794 b 754 969 833 886 821 942 l 754 972 l 1038 972 l 1038 969 b 958 794 971 942 958 886 l 958 693 l 1038 693 l 1038 657 l 958 657 l 958 178 b 1038 3 958 86 971 31 l 1038 0 l 754 0 l 754 3 b 833 178 821 31 833 86 l 833 449 l 268 449 l 268 178 b 347 3 268 86 281 31 l 347 0 "},"ħ":{"ha":818,"x_min":0,"x_max":0,"o":"m 322 0 l 42 0 l 42 3 b 121 151 108 31 121 60 l 121 796 l 32 796 l 32 832 l 121 832 l 121 889 b 35 1038 121 968 101 1010 l 35 1040 l 243 1040 l 243 832 l 417 832 l 417 796 l 243 796 l 243 482 b 488 689 281 613 368 689 b 704 447 615 689 704 607 l 704 151 b 783 3 704 60 717 31 l 783 0 l 503 0 l 503 3 b 582 151 569 31 582 60 l 582 436 b 435 619 582 535 544 619 b 243 356 324 619 243 514 l 243 151 b 322 3 243 60 256 31 "},"Ĩ":{"ha":411,"x_min":0,"x_max":0,"o":"m 453 1261 b 301 1072 418 1140 368 1072 b 93 1161 228 1072 153 1161 b -28 1067 38 1161 -1 1124 l -42 1067 b 110 1256 -7 1188 43 1256 b 318 1167 183 1256 258 1167 b 439 1261 374 1167 413 1204 l 453 1261 m 268 178 b 347 3 268 86 281 31 l 347 0 l 64 0 l 64 3 b 143 178 131 31 143 86 l 143 794 b 64 969 143 886 131 942 l 64 972 l 347 972 l 347 969 b 268 794 281 942 268 886 l 268 178 "},"ĩ":{"ha":361,"x_min":0,"x_max":0,"o":"m 382 997 b 260 808 360 876 314 808 b 90 893 200 808 139 893 b -4 803 46 893 11 860 l -18 803 b 104 992 4 924 51 992 b 274 907 164 992 225 907 b 368 997 318 907 353 940 l 382 997 m 247 151 b 326 3 247 60 260 31 l 326 0 l 46 0 l 46 3 b 125 151 113 31 125 60 l 125 524 b 39 672 125 603 106 644 l 39 675 l 247 675 "},"Ī":{"ha":411,"x_min":0,"x_max":0,"o":"m 14 1083 l 14 1132 l 397 1132 l 397 1083 m 268 178 b 347 3 268 86 281 31 l 347 0 l 64 0 l 64 3 b 143 178 131 31 143 86 l 143 794 b 64 969 143 886 131 942 l 64 972 l 347 972 l 347 969 b 268 794 281 942 268 886 l 268 178 "},"ī":{"ha":361,"x_min":0,"x_max":0,"o":"m 18 833 l 18 882 l 318 882 l 318 833 m 247 151 b 326 3 247 60 260 31 l 326 0 l 46 0 l 46 3 b 125 151 113 31 125 60 l 125 524 b 39 672 125 603 106 644 l 39 675 l 247 675 "},"Ĭ":{"ha":411,"x_min":0,"x_max":0,"o":"m 397 1274 b 207 1053 396 1139 319 1053 b 15 1274 93 1053 17 1139 l 26 1274 b 207 1149 35 1188 125 1149 b 386 1274 288 1149 378 1188 l 397 1274 m 268 178 b 347 3 268 86 281 31 l 347 0 l 64 0 l 64 3 b 143 178 131 31 143 86 l 143 794 b 64 969 143 886 131 942 l 64 972 l 347 972 l 347 969 b 268 794 281 942 268 886 l 268 178 "},"ĭ":{"ha":361,"x_min":0,"x_max":0,"o":"m 346 1031 b 179 788 344 872 278 788 b 13 1031 81 788 14 872 l 22 1031 b 179 886 29 928 108 886 b 336 1031 250 886 329 928 l 346 1031 m 247 151 b 326 3 247 60 260 31 l 326 0 l 46 0 l 46 3 b 125 151 113 31 125 60 l 125 524 b 39 672 125 603 106 644 l 39 675 l 247 675 "},"Į":{"ha":411,"x_min":0,"x_max":0,"o":"m 364 -193 b 174 -329 336 -260 283 -329 b 44 -208 107 -329 44 -285 b 224 0 44 -117 128 -56 l 64 0 l 64 3 b 143 178 131 31 143 86 l 143 794 b 64 969 143 886 131 942 l 64 972 l 347 972 l 347 969 b 268 794 281 942 268 886 l 268 178 b 347 3 268 86 281 31 l 347 0 l 254 0 b 140 -181 176 -61 140 -121 b 226 -267 140 -236 171 -267 b 360 -190 279 -267 325 -243 l 364 -193 "},"į":{"ha":361,"x_min":0,"x_max":0,"o":"m 90 913 b 178 999 90 961 128 999 b 265 913 228 999 265 961 b 178 826 265 864 228 826 b 90 913 128 826 90 864 m 340 -193 b 150 -329 313 -260 260 -329 b 21 -208 83 -329 21 -285 b 200 0 21 -117 104 -56 l 46 0 l 46 3 b 125 151 113 31 125 60 l 125 524 b 39 672 125 603 106 644 l 39 675 l 247 675 l 247 151 b 326 3 247 60 260 31 l 326 0 l 231 0 b 117 -181 153 -61 117 -121 b 203 -267 117 -236 147 -267 b 336 -190 256 -267 301 -243 l 340 -193 "},"İ":{"ha":411,"x_min":0,"x_max":0,"o":"m 118 1156 b 206 1243 118 1204 157 1243 b 293 1156 254 1243 293 1204 b 206 1069 293 1108 254 1069 b 118 1156 157 1069 118 1108 m 268 178 b 347 3 268 86 281 31 l 347 0 l 64 0 l 64 3 b 143 178 131 31 143 86 l 143 794 b 64 969 143 886 131 942 l 64 972 l 347 972 l 347 969 b 268 794 281 942 268 886 l 268 178 "},"ı":{"ha":361,"x_min":0,"x_max":0,"o":"m 247 151 b 326 3 247 60 260 31 l 326 0 l 46 0 l 46 3 b 125 151 113 31 125 60 l 125 524 b 39 672 125 603 106 644 l 39 675 l 247 675 "},"Ĵ":{"ha":738,"x_min":0,"x_max":0,"o":"m 747 1031 b 556 1150 675 1065 600 1110 b 364 1031 511 1110 436 1065 l 353 1031 b 553 1292 429 1101 513 1203 l 558 1292 b 758 1031 599 1203 682 1101 l 747 1031 m 490 794 b 411 969 490 886 478 942 l 411 972 l 694 972 l 694 969 b 615 794 628 942 615 886 l 615 261 b 315 -14 615 83 486 -14 b 29 192 147 -14 29 69 b 158 318 29 269 81 318 b 240 290 189 318 219 308 b 156 182 182 283 156 242 b 315 13 156 88 214 13 b 490 253 443 13 490 111 "},"ĵ":{"ha":325,"x_min":0,"x_max":0,"o":"m 353 767 b 161 901 281 804 206 858 b -31 767 117 858 42 804 l -42 767 b 158 1050 35 843 118 953 l 164 1050 b 364 767 204 953 288 843 l 353 767 m 229 -75 b -17 -326 229 -257 119 -326 b -207 -201 -126 -326 -207 -278 b -118 -122 -207 -156 -174 -122 b -53 -144 -93 -122 -68 -131 b -103 -212 -82 -153 -103 -175 b -10 -304 -103 -272 -69 -304 b 107 -85 76 -304 107 -235 l 107 524 b 21 672 107 603 88 644 l 21 675 l 229 675 l 229 -75 "},"Ķ":{"ha":964,"x_min":0,"x_max":0,"o":"m 64 0 l 64 3 b 143 178 131 31 143 86 l 143 794 b 64 969 143 886 131 942 l 64 972 l 347 972 l 347 969 b 268 794 281 942 268 886 l 268 461 l 658 836 b 699 907 683 860 699 885 b 649 969 699 933 681 956 l 649 972 l 921 972 l 921 969 b 704 831 821 932 769 890 l 439 579 l 792 156 b 971 3 851 86 915 26 l 971 0 l 656 0 l 656 3 b 692 57 682 17 692 29 b 654 132 692 83 678 103 l 356 499 l 268 415 l 268 178 b 347 3 268 86 281 31 l 347 0 m 564 -196 b 369 -353 564 -275 500 -349 l 369 -333 b 507 -207 472 -321 507 -276 b 453 -224 494 -217 472 -224 b 382 -156 413 -224 382 -192 b 463 -79 382 -111 415 -79 b 564 -196 521 -79 564 -124 "},"ķ":{"ha":753,"x_min":0,"x_max":0,"o":"m 285 389 b 396 438 326 389 356 396 l 511 563 b 536 618 528 581 536 597 b 490 672 536 640 521 661 l 490 675 l 744 675 l 744 672 b 553 556 664 653 611 617 l 410 403 l 621 128 b 789 3 674 58 721 24 l 789 0 l 550 0 b 494 100 542 36 519 68 l 322 329 b 269 358 306 351 293 358 l 243 358 l 243 151 b 322 3 243 60 256 31 l 322 0 l 42 0 l 42 3 b 121 151 108 31 121 60 l 121 889 b 35 1038 121 968 101 1010 l 35 1040 l 243 1040 l 243 389 m 486 -196 b 292 -353 486 -275 422 -349 l 292 -333 b 429 -207 394 -321 429 -276 b 375 -224 417 -217 394 -224 b 304 -156 335 -224 304 -192 b 385 -79 304 -111 338 -79 b 486 -196 443 -79 486 -124 "},"ĸ":{"ha":757,"x_min":0,"x_max":0,"o":"m 289 389 b 400 438 331 389 360 396 l 515 563 b 540 618 532 581 540 597 b 494 672 540 640 525 661 l 494 675 l 749 675 l 749 672 b 557 556 668 653 615 617 l 414 403 l 625 128 b 793 3 678 58 725 24 l 793 0 l 554 0 b 499 100 546 36 524 68 l 326 329 b 274 358 310 351 297 358 l 247 358 l 247 151 b 326 3 247 60 260 31 l 326 0 l 46 0 l 46 3 b 125 151 113 31 125 60 l 125 524 b 39 672 125 603 106 644 l 39 675 l 247 675 l 247 389 "},"Ĺ":{"ha":843,"x_min":0,"x_max":0,"o":"m 425 1271 b 188 1043 368 1190 296 1118 l 182 1043 b 272 1271 239 1128 261 1192 m 347 972 l 347 969 b 268 794 281 942 268 886 l 268 36 l 493 36 b 813 269 649 36 739 122 l 815 269 l 771 0 l 64 0 l 64 3 b 143 178 131 31 143 86 l 143 794 b 64 969 143 886 131 942 l 64 972 "},"ĺ":{"ha":357,"x_min":0,"x_max":0,"o":"m 347 1313 b 110 1085 290 1232 218 1160 l 104 1085 b 194 1313 161 1169 183 1233 m 243 151 b 322 3 243 60 256 31 l 322 0 l 42 0 l 42 3 b 121 151 108 31 121 60 l 121 889 b 35 1038 121 968 101 1010 l 35 1040 l 243 1040 "},"Ļ":{"ha":843,"x_min":0,"x_max":0,"o":"m 347 972 l 347 969 b 268 794 281 942 268 886 l 268 36 l 493 36 b 813 269 649 36 739 122 l 815 269 l 771 0 l 64 0 l 64 3 b 143 178 131 31 143 86 l 143 794 b 64 969 143 886 131 942 l 64 972 m 531 -196 b 336 -353 531 -275 467 -349 l 336 -333 b 474 -207 439 -321 474 -276 b 419 -224 461 -217 439 -224 b 349 -156 379 -224 349 -192 b 429 -79 349 -111 382 -79 b 531 -196 488 -79 531 -124 "},"ļ":{"ha":357,"x_min":0,"x_max":0,"o":"m 243 151 b 322 3 243 60 256 31 l 322 0 l 42 0 l 42 3 b 121 151 108 31 121 60 l 121 889 b 35 1038 121 968 101 1010 l 35 1040 l 243 1040 m 275 -196 b 81 -353 275 -275 211 -349 l 81 -333 b 218 -207 183 -321 218 -276 b 164 -224 206 -217 183 -224 b 93 -156 124 -224 93 -192 b 174 -79 93 -111 126 -79 b 275 -196 232 -79 275 -124 "},"Ľ":{"ha":843,"x_min":0,"x_max":0,"o":"m 701 972 b 558 688 682 882 611 750 l 554 688 b 579 972 575 764 586 868 l 701 972 m 347 972 l 347 969 b 268 794 281 942 268 886 l 268 36 l 493 36 b 813 269 649 36 739 122 l 815 269 l 771 0 l 64 0 l 64 3 b 143 178 131 31 143 86 l 143 794 b 64 969 143 886 131 942 l 64 972 "},"ľ":{"ha":357,"x_min":0,"x_max":0,"o":"m 474 1040 b 331 756 454 950 383 818 l 326 756 b 351 1040 347 832 358 936 l 474 1040 m 243 151 b 322 3 243 60 256 31 l 322 0 l 42 0 l 42 3 b 121 151 108 31 121 60 l 121 889 b 35 1038 121 968 101 1010 l 35 1040 l 243 1040 "},"Ŀ":{"ha":843,"x_min":0,"x_max":0,"o":"m 347 972 l 347 969 b 268 794 281 942 268 886 l 268 36 l 493 36 b 813 269 649 36 739 122 l 815 269 l 771 0 l 64 0 l 64 3 b 143 178 131 31 143 86 l 143 794 b 64 969 143 886 131 942 l 64 972 m 626 525 b 714 613 626 574 665 613 b 801 525 763 613 801 574 b 714 439 801 478 763 439 b 626 525 665 439 626 478 "},"ŀ":{"ha":485,"x_min":0,"x_max":0,"o":"m 243 151 b 322 3 243 60 256 31 l 322 0 l 42 0 l 42 3 b 121 151 108 31 121 60 l 121 889 b 35 1038 121 968 101 1010 l 35 1040 l 243 1040 m 336 518 b 424 606 336 567 375 606 b 511 518 472 606 511 567 b 424 432 511 471 472 432 b 336 518 375 432 336 471 "},"Ł":{"ha":843,"x_min":0,"x_max":0,"o":"m 64 0 l 64 3 b 143 178 131 31 143 86 l 143 433 l 64 401 l 64 440 l 143 472 l 143 794 b 64 969 143 886 131 942 l 64 972 l 347 972 l 347 969 b 268 794 281 942 268 886 l 268 514 l 476 599 l 476 560 l 268 476 l 268 36 l 493 36 b 813 269 649 36 739 122 l 815 269 l 771 0 "},"ł":{"ha":378,"x_min":0,"x_max":0,"o":"m 49 0 l 49 3 b 128 151 115 31 128 60 l 128 536 l 19 471 l 19 510 l 128 576 l 128 889 b 42 1038 128 968 108 1010 l 42 1040 l 250 1040 l 250 640 l 358 707 l 358 668 l 250 601 l 250 151 b 329 3 250 60 263 31 l 329 0 "},"Ń":{"ha":1019,"x_min":0,"x_max":0,"o":"m 697 1271 b 460 1043 640 1190 568 1118 l 454 1043 b 544 1271 511 1128 533 1192 m 990 969 b 886 774 924 942 886 879 l 886 -12 l 883 -12 l 182 879 l 182 199 b 286 3 182 93 219 31 l 286 0 l 39 0 l 39 3 b 143 199 106 31 143 93 l 143 794 b 64 969 143 886 131 942 l 64 972 l 269 972 l 847 228 l 847 774 b 743 969 847 879 810 942 l 743 972 l 990 972 l 990 969 "},"ń":{"ha":822,"x_min":0,"x_max":0,"o":"m 583 1040 b 349 779 528 949 456 865 l 343 779 b 442 1040 400 876 432 950 m 247 675 l 247 482 b 492 689 285 613 372 689 b 708 447 619 689 708 607 l 708 151 b 788 3 708 60 721 31 l 788 0 l 507 0 l 507 3 b 586 151 574 31 586 60 l 586 436 b 439 619 586 535 549 619 b 247 356 328 619 247 514 l 247 151 b 326 3 247 60 260 31 l 326 0 l 46 0 l 46 3 b 125 151 113 31 125 60 l 125 524 b 39 672 125 603 106 644 l 39 675 "},"Ņ":{"ha":1019,"x_min":0,"x_max":0,"o":"m 990 969 b 886 774 924 942 886 879 l 886 -12 l 883 -12 l 182 879 l 182 199 b 286 3 182 93 219 31 l 286 0 l 39 0 l 39 3 b 143 199 106 31 143 93 l 143 794 b 64 969 143 886 131 942 l 64 972 l 269 972 l 847 228 l 847 774 b 743 969 847 879 810 942 l 743 972 l 990 972 l 990 969 m 625 -196 b 431 -353 625 -275 561 -349 l 431 -333 b 568 -207 533 -321 568 -276 b 514 -224 556 -217 533 -224 b 443 -156 474 -224 443 -192 b 524 -79 443 -111 476 -79 b 625 -196 582 -79 625 -124 "},"ņ":{"ha":822,"x_min":0,"x_max":0,"o":"m 247 675 l 247 482 b 492 689 285 613 372 689 b 708 447 619 689 708 607 l 708 151 b 788 3 708 60 721 31 l 788 0 l 507 0 l 507 3 b 586 151 574 31 586 60 l 586 436 b 439 619 586 535 549 619 b 247 356 328 619 247 514 l 247 151 b 326 3 247 60 260 31 l 326 0 l 46 0 l 46 3 b 125 151 113 31 125 60 l 125 524 b 39 672 125 603 106 644 l 39 675 m 521 -196 b 326 -353 521 -275 457 -349 l 326 -333 b 464 -207 429 -321 464 -276 b 410 -224 451 -217 429 -224 b 339 -156 369 -224 339 -192 b 419 -79 339 -111 372 -79 b 521 -196 478 -79 521 -124 "},"Ň":{"ha":1019,"x_min":0,"x_max":0,"o":"m 336 1292 b 528 1172 408 1257 483 1213 b 719 1292 572 1213 647 1257 l 731 1292 b 531 1031 654 1221 571 1119 l 525 1031 b 325 1292 485 1119 401 1221 l 336 1292 m 990 969 b 886 774 924 942 886 879 l 886 -12 l 883 -12 l 182 879 l 182 199 b 286 3 182 93 219 31 l 286 0 l 39 0 l 39 3 b 143 199 106 31 143 93 l 143 794 b 64 969 143 886 131 942 l 64 972 l 269 972 l 847 228 l 847 774 b 743 969 847 879 810 942 l 743 972 l 990 972 l 990 969 "},"ň":{"ha":822,"x_min":0,"x_max":0,"o":"m 232 1050 b 424 915 304 1013 379 958 b 615 1050 468 958 543 1013 l 626 1050 b 426 767 550 974 467 864 l 421 767 b 221 1050 381 864 297 974 l 232 1050 m 247 675 l 247 482 b 492 689 285 613 372 689 b 708 447 619 689 708 607 l 708 151 b 788 3 708 60 721 31 l 788 0 l 507 0 l 507 3 b 586 151 574 31 586 60 l 586 436 b 439 619 586 535 549 619 b 247 356 328 619 247 514 l 247 151 b 326 3 247 60 260 31 l 326 0 l 46 0 l 46 3 b 125 151 113 31 125 60 l 125 524 b 39 672 125 603 106 644 l 39 675 "},"Ŋ":{"ha":1019,"x_min":0,"x_max":0,"o":"m 847 33 l 182 879 l 182 199 b 286 3 182 93 219 31 l 286 0 l 39 0 l 39 3 b 143 199 106 31 143 93 l 143 794 b 64 969 143 886 131 942 l 64 972 l 269 972 l 847 228 l 847 774 b 743 969 847 879 810 942 l 743 972 l 990 972 l 990 969 b 886 774 924 942 886 879 l 886 -72 b 704 -326 886 -235 831 -326 b 517 -196 594 -326 517 -272 b 606 -111 517 -150 550 -111 b 671 -133 631 -111 656 -119 b 621 -201 642 -142 621 -164 b 704 -296 621 -261 651 -296 b 847 -82 796 -296 847 -232 "},"ŋ":{"ha":822,"x_min":0,"x_max":0,"o":"m 463 -326 b 272 -201 353 -326 272 -278 b 361 -122 272 -156 306 -122 b 426 -144 386 -122 411 -131 b 376 -212 397 -153 376 -175 b 469 -304 376 -272 410 -304 b 586 -85 556 -304 586 -235 l 586 436 b 439 619 586 535 549 619 b 247 356 328 619 247 514 l 247 151 b 326 3 247 60 260 31 l 326 0 l 46 0 l 46 3 b 125 151 113 31 125 60 l 125 524 b 39 672 125 603 106 644 l 39 675 l 247 675 l 247 482 b 492 689 285 613 372 689 b 708 447 619 689 708 607 l 708 -75 b 463 -326 708 -257 599 -326 "},"Ō":{"ha":1053,"x_min":0,"x_max":0,"o":"m 335 1083 l 335 1132 l 718 1132 l 718 1083 m 1003 486 b 526 -14 1003 194 785 -14 b 50 486 268 -14 50 194 b 526 986 50 778 268 986 b 1003 486 785 986 1003 778 m 858 486 b 526 954 858 753 744 954 b 194 486 308 954 194 753 b 526 18 194 219 308 18 b 858 486 744 18 858 219 "},"ō":{"ha":769,"x_min":0,"x_max":0,"o":"m 193 833 l 193 882 l 576 882 l 576 833 m 385 -14 b 44 338 186 -14 44 135 b 385 689 44 540 186 689 b 725 338 583 689 725 540 b 385 -14 725 135 583 -14 m 385 14 b 588 338 513 14 588 157 b 385 661 588 518 513 661 b 182 338 257 661 182 518 b 385 14 182 157 257 14 "},"Ŏ":{"ha":1053,"x_min":0,"x_max":0,"o":"m 718 1274 b 528 1053 717 1139 640 1053 b 336 1274 414 1053 338 1139 l 347 1274 b 528 1149 356 1188 446 1149 b 707 1274 608 1149 699 1188 l 718 1274 m 1003 486 b 526 -14 1003 194 785 -14 b 50 486 268 -14 50 194 b 526 986 50 778 268 986 b 1003 486 785 986 1003 778 m 858 486 b 526 954 858 753 744 954 b 194 486 308 954 194 753 b 526 18 194 219 308 18 b 858 486 744 18 858 219 "},"ŏ":{"ha":769,"x_min":0,"x_max":0,"o":"m 575 1031 b 385 789 574 883 497 789 b 194 1031 272 789 196 883 l 206 1031 b 385 886 214 928 304 886 b 564 1031 465 886 556 928 l 575 1031 m 385 -14 b 44 338 186 -14 44 135 b 385 689 44 540 186 689 b 725 338 583 689 725 540 b 385 -14 725 135 583 -14 m 385 14 b 588 338 513 14 588 157 b 385 661 588 518 513 661 b 182 338 257 661 182 518 b 385 14 182 157 257 14 "},"Ő":{"ha":1053,"x_min":0,"x_max":0,"o":"m 639 1271 b 401 1043 582 1190 510 1118 l 396 1043 b 486 1271 453 1128 475 1192 m 847 1271 b 610 1043 790 1190 718 1118 l 604 1043 b 694 1271 661 1128 683 1192 m 1003 486 b 526 -14 1003 194 785 -14 b 50 486 268 -14 50 194 b 526 986 50 778 268 986 b 1003 486 785 986 1003 778 m 858 486 b 526 954 858 753 744 954 b 194 486 308 954 194 753 b 526 18 194 219 308 18 b 858 486 744 18 858 219 "},"ő":{"ha":769,"x_min":0,"x_max":0,"o":"m 493 1040 b 258 779 438 949 365 865 l 253 779 b 356 1040 310 876 346 950 m 678 1040 b 443 779 622 949 550 865 l 438 779 b 540 1040 494 876 531 950 m 385 -14 b 44 338 186 -14 44 135 b 385 689 44 540 186 689 b 725 338 583 689 725 540 b 385 -14 725 135 583 -14 m 385 14 b 588 338 513 14 588 157 b 385 661 588 518 513 661 b 182 338 257 661 182 518 b 385 14 182 157 257 14 "},"Œ":{"ha":1501,"x_min":0,"x_max":0,"o":"m 754 936 l 613 936 b 188 475 383 936 188 813 b 633 36 188 182 382 36 l 754 36 m 1417 0 l 621 0 b 50 475 286 0 50 161 b 588 972 50 813 296 972 l 1306 972 b 1372 982 1331 972 1357 974 l 1419 742 l 1417 742 b 1110 936 1344 874 1265 936 l 879 936 l 879 511 l 1074 511 b 1268 665 1186 511 1221 536 l 1271 665 l 1271 342 l 1268 342 b 1074 475 1221 469 1186 475 l 879 475 l 879 36 l 1139 36 b 1458 256 1294 36 1385 108 l 1461 256 "},"œ":{"ha":1244,"x_min":0,"x_max":0,"o":"m 1203 218 b 915 -14 1176 69 1068 -14 b 654 128 810 -14 707 42 b 385 -14 597 46 499 -14 b 44 338 186 -14 44 135 b 385 689 44 540 186 689 b 656 544 500 689 603 629 b 911 689 714 631 810 689 b 1199 365 1111 689 1199 556 l 713 365 b 961 50 713 181 806 50 b 1194 221 1065 50 1154 106 l 1203 218 m 588 338 b 385 661 588 518 513 661 b 182 338 257 661 182 518 b 385 14 182 157 257 14 b 588 338 513 14 588 157 m 1067 394 b 910 661 1067 536 1042 661 b 715 394 811 661 722 558 "},"Ŕ":{"ha":957,"x_min":0,"x_max":0,"o":"m 633 1271 b 396 1043 576 1190 504 1118 l 390 1043 b 481 1271 447 1128 469 1192 m 268 493 l 461 493 b 704 710 604 493 704 546 b 461 936 704 864 617 936 l 268 936 m 479 972 b 842 717 679 972 842 906 b 522 469 842 539 678 475 b 767 290 664 458 733 389 l 806 174 b 969 3 842 65 885 33 l 969 0 l 757 0 b 678 150 728 24 701 83 l 635 275 b 436 457 600 374 557 457 l 268 457 l 268 178 b 347 3 268 86 281 31 l 347 0 l 64 0 l 64 3 b 143 178 131 31 143 86 l 143 794 b 64 969 143 886 131 942 l 64 972 "},"ŕ":{"ha":617,"x_min":0,"x_max":0,"o":"m 481 1040 b 246 779 425 949 353 865 l 240 779 b 339 1040 297 876 329 950 m 457 486 b 499 549 482 496 499 518 b 424 613 499 586 471 613 b 247 313 329 613 247 475 l 247 151 b 368 3 247 60 289 26 l 368 0 l 46 0 l 46 3 b 125 151 113 31 125 60 l 125 524 b 39 672 125 603 106 644 l 39 675 l 247 675 l 247 442 b 474 689 278 572 350 689 b 603 578 547 689 603 644 b 503 468 603 501 547 468 b 457 486 482 468 464 476 "},"Ŗ":{"ha":957,"x_min":0,"x_max":0,"o":"m 268 493 l 461 493 b 704 710 604 493 704 546 b 461 936 704 864 617 936 l 268 936 m 479 972 b 842 717 679 972 842 906 b 522 469 842 539 678 475 b 767 290 664 458 733 389 l 806 174 b 969 3 842 65 885 33 l 969 0 l 757 0 b 678 150 728 24 701 83 l 635 275 b 436 457 600 374 557 457 l 268 457 l 268 178 b 347 3 268 86 281 31 l 347 0 l 64 0 l 64 3 b 143 178 131 31 143 86 l 143 794 b 64 969 143 886 131 942 l 64 972 m 561 -196 b 367 -353 561 -275 497 -349 l 367 -333 b 504 -207 469 -321 504 -276 b 450 -224 492 -217 469 -224 b 379 -156 410 -224 379 -192 b 460 -79 379 -111 413 -79 b 561 -196 518 -79 561 -124 "},"ŗ":{"ha":617,"x_min":0,"x_max":0,"o":"m 457 486 b 499 549 482 496 499 518 b 424 613 499 586 471 613 b 247 313 329 613 247 475 l 247 151 b 368 3 247 60 289 26 l 368 0 l 46 0 l 46 3 b 125 151 113 31 125 60 l 125 524 b 39 672 125 603 106 644 l 39 675 l 247 675 l 247 442 b 474 689 278 572 350 689 b 603 578 547 689 603 644 b 503 468 603 501 547 468 b 457 486 482 468 464 476 m 279 -196 b 85 -353 279 -275 215 -349 l 85 -333 b 222 -207 188 -321 222 -276 b 168 -224 210 -217 188 -224 b 97 -156 128 -224 97 -192 b 178 -79 97 -111 131 -79 b 279 -196 236 -79 279 -124 "},"Ř":{"ha":957,"x_min":0,"x_max":0,"o":"m 272 1292 b 464 1172 344 1257 419 1213 b 656 1292 508 1213 583 1257 l 667 1292 b 467 1031 590 1221 507 1119 l 461 1031 b 261 1292 421 1119 338 1221 l 272 1292 m 268 493 l 461 493 b 704 710 604 493 704 546 b 461 936 704 864 617 936 l 268 936 m 479 972 b 842 717 679 972 842 906 b 522 469 842 539 678 475 b 767 290 664 458 733 389 l 806 174 b 969 3 842 65 885 33 l 969 0 l 757 0 b 678 150 728 24 701 83 l 635 275 b 436 457 600 374 557 457 l 268 457 l 268 178 b 347 3 268 86 281 31 l 347 0 l 64 0 l 64 3 b 143 178 131 31 143 86 l 143 794 b 64 969 143 886 131 942 l 64 972 "},"ř":{"ha":617,"x_min":0,"x_max":0,"o":"m 129 1050 b 321 915 201 1013 276 958 b 513 1050 365 958 440 1013 l 524 1050 b 324 767 447 974 364 864 l 318 767 b 118 1050 278 864 194 974 l 129 1050 m 457 486 b 499 549 482 496 499 518 b 424 613 499 586 471 613 b 247 313 329 613 247 475 l 247 151 b 368 3 247 60 289 26 l 368 0 l 46 0 l 46 3 b 125 151 113 31 125 60 l 125 524 b 39 672 125 603 106 644 l 39 675 l 247 675 l 247 442 b 474 689 278 572 350 689 b 603 578 547 689 603 644 b 503 468 603 501 547 468 b 457 486 482 468 464 476 "},"Ś":{"ha":793,"x_min":0,"x_max":0,"o":"m 558 1271 b 321 1043 501 1190 429 1118 l 315 1043 b 406 1271 372 1128 394 1192 m 372 954 b 174 760 269 954 174 892 b 397 558 174 633 278 592 b 735 261 554 515 735 475 b 403 -14 735 69 569 -14 b 161 38 292 -14 215 38 b 74 -14 122 38 100 14 l 58 292 l 61 292 b 403 18 138 117 263 18 b 624 226 525 18 624 92 b 363 439 624 365 496 400 b 69 718 219 481 69 528 b 372 986 69 882 208 986 b 599 938 483 986 556 938 b 681 986 644 938 663 965 l 686 704 l 683 704 b 372 954 621 842 522 954 "},"ś":{"ha":638,"x_min":0,"x_max":0,"o":"m 479 1040 b 244 779 424 949 351 865 l 239 779 b 338 1040 296 876 328 950 m 296 661 b 164 542 210 661 164 606 b 332 407 164 474 190 440 b 581 190 517 364 581 301 b 329 -14 581 53 458 -14 b 132 22 233 -14 175 22 b 72 -14 106 22 89 6 l 57 250 l 60 250 b 329 14 119 106 201 14 b 481 153 413 14 481 65 b 285 292 481 235 406 264 b 68 500 125 329 68 396 b 296 689 68 622 176 689 b 472 651 382 689 425 651 b 542 689 499 651 518 668 l 542 460 l 539 460 b 296 661 489 571 407 661 "},"Ŝ":{"ha":793,"x_min":0,"x_max":0,"o":"m 581 1031 b 389 1150 508 1065 433 1110 b 197 1031 344 1110 269 1065 l 186 1031 b 386 1292 263 1101 346 1203 l 392 1292 b 592 1031 432 1203 515 1101 l 581 1031 m 372 954 b 174 760 269 954 174 892 b 397 558 174 633 278 592 b 735 261 554 515 735 475 b 403 -14 735 69 569 -14 b 161 38 292 -14 215 38 b 74 -14 122 38 100 14 l 58 292 l 61 292 b 403 18 138 117 263 18 b 624 226 525 18 624 92 b 363 439 624 365 496 400 b 69 718 219 481 69 528 b 372 986 69 882 208 986 b 599 938 483 986 556 938 b 681 986 644 938 663 965 l 686 704 l 683 704 b 372 954 621 842 522 954 "},"ŝ":{"ha":638,"x_min":0,"x_max":0,"o":"m 511 767 b 319 901 439 804 364 858 b 128 767 275 858 200 804 l 117 767 b 317 1050 193 843 276 953 l 322 1050 b 522 767 363 953 446 843 l 511 767 m 296 661 b 164 542 210 661 164 606 b 332 407 164 474 190 440 b 581 190 517 364 581 301 b 329 -14 581 53 458 -14 b 132 22 233 -14 175 22 b 72 -14 106 22 89 6 l 57 250 l 60 250 b 329 14 119 106 201 14 b 481 153 413 14 481 65 b 285 292 481 235 406 264 b 68 500 125 329 68 396 b 296 689 68 622 176 689 b 472 651 382 689 425 651 b 542 689 499 651 518 668 l 542 460 l 539 460 b 296 661 489 571 407 661 "},"Ş":{"ha":793,"x_min":0,"x_max":0,"o":"m 350 -310 b 199 -235 279 -310 222 -278 l 210 -222 b 322 -276 240 -262 283 -276 b 406 -192 371 -276 406 -246 b 281 -111 406 -129 360 -114 l 329 -7 b 161 38 257 7 203 38 b 74 -14 122 38 100 14 l 58 292 l 61 292 b 403 18 138 117 263 18 b 624 226 525 18 624 92 b 363 439 624 365 496 400 b 69 718 219 481 69 528 b 372 986 69 882 208 986 b 599 938 483 986 556 938 b 681 986 644 938 663 965 l 686 704 l 683 704 b 372 954 621 842 522 954 b 174 760 269 954 174 892 b 397 558 174 633 278 592 b 735 261 554 515 735 475 b 403 -14 735 69 569 -14 b 351 -10 385 -14 368 -12 l 317 -89 b 508 -194 414 -89 508 -119 b 350 -310 508 -268 438 -310 "},"ş":{"ha":638,"x_min":0,"x_max":0,"o":"m 281 -310 b 129 -235 210 -310 153 -278 l 140 -222 b 253 -276 171 -262 214 -276 b 336 -192 301 -276 336 -246 b 211 -111 336 -129 290 -114 l 260 -7 b 132 22 203 3 164 22 b 72 -14 106 22 89 6 l 57 250 l 60 250 b 329 14 119 106 201 14 b 481 153 413 14 481 65 b 285 292 481 235 406 264 b 68 500 125 329 68 396 b 296 689 68 622 176 689 b 472 651 382 689 425 651 b 542 689 499 651 518 668 l 542 460 l 539 460 b 296 661 489 571 407 661 b 164 542 210 661 164 606 b 332 407 164 474 190 440 b 581 190 517 364 581 301 b 329 -14 581 53 458 -14 b 282 -11 313 -14 297 -12 l 247 -89 b 439 -194 344 -89 439 -119 b 281 -310 439 -268 368 -310 "},"Š":{"ha":793,"x_min":0,"x_max":0,"o":"m 197 1292 b 389 1172 269 1257 344 1213 b 581 1292 433 1213 508 1257 l 592 1292 b 392 1031 515 1221 432 1119 l 386 1031 b 186 1292 346 1119 263 1221 l 197 1292 m 372 954 b 174 760 269 954 174 892 b 397 558 174 633 278 592 b 735 261 554 515 735 475 b 403 -14 735 69 569 -14 b 161 38 292 -14 215 38 b 74 -14 122 38 100 14 l 58 292 l 61 292 b 403 18 138 117 263 18 b 624 226 525 18 624 92 b 363 439 624 365 496 400 b 69 718 219 481 69 528 b 372 986 69 882 208 986 b 599 938 483 986 556 938 b 681 986 644 938 663 965 l 686 704 l 683 704 b 372 954 621 842 522 954 "},"š":{"ha":638,"x_min":0,"x_max":0,"o":"m 128 1050 b 319 915 200 1013 275 958 b 511 1050 364 958 439 1013 l 522 1050 b 322 767 446 974 363 864 l 317 767 b 117 1050 276 864 193 974 l 128 1050 m 296 661 b 164 542 210 661 164 606 b 332 407 164 474 190 440 b 581 190 517 364 581 301 b 329 -14 581 53 458 -14 b 132 22 233 -14 175 22 b 72 -14 106 22 89 6 l 57 250 l 60 250 b 329 14 119 106 201 14 b 481 153 413 14 481 65 b 285 292 481 235 406 264 b 68 500 125 329 68 396 b 296 689 68 622 176 689 b 472 651 382 689 425 651 b 542 689 499 651 518 668 l 542 460 l 539 460 b 296 661 489 571 407 661 "},"Ţ":{"ha":994,"x_min":0,"x_max":0,"o":"m 497 -310 b 346 -235 426 -310 369 -278 l 357 -222 b 469 -276 388 -262 431 -276 b 553 -192 518 -276 553 -246 b 428 -111 553 -129 507 -114 l 479 0 l 349 0 l 349 3 b 435 167 415 31 435 75 l 435 938 l 319 938 b 26 700 164 938 115 856 l 24 700 l 71 982 b 138 972 86 974 113 972 l 857 972 b 924 982 882 972 908 974 l 971 700 l 968 700 b 675 938 879 856 831 938 l 560 938 l 560 167 b 646 3 560 75 579 31 l 646 0 l 504 0 l 464 -89 b 656 -194 561 -89 656 -119 b 497 -310 656 -268 585 -310 "},"ţ":{"ha":500,"x_min":0,"x_max":0,"o":"m 275 -310 b 124 -235 204 -310 147 -278 l 135 -222 b 247 -276 165 -262 208 -276 b 331 -192 296 -276 331 -246 b 206 -111 331 -129 285 -114 l 251 -11 b 108 189 163 1 108 68 l 108 639 l 11 639 l 11 647 b 219 914 128 671 200 776 l 231 914 l 231 675 l 447 675 l 440 639 l 231 639 l 231 193 b 326 57 231 103 264 57 b 460 218 394 57 442 114 l 471 218 b 285 -14 460 85 410 -14 l 275 -14 l 242 -89 b 433 -194 339 -89 433 -119 b 275 -310 433 -268 363 -310 "},"Ť":{"ha":994,"x_min":0,"x_max":0,"o":"m 306 1292 b 497 1172 378 1257 453 1213 b 689 1292 542 1213 617 1257 l 700 1292 b 500 1031 624 1221 540 1119 l 494 1031 b 294 1292 454 1119 371 1221 l 306 1292 m 857 972 b 924 982 882 972 908 974 l 971 700 l 968 700 b 675 938 879 856 831 938 l 560 938 l 560 167 b 646 3 560 75 579 31 l 646 0 l 349 0 l 349 3 b 435 167 415 31 435 75 l 435 938 l 319 938 b 26 700 164 938 115 856 l 24 700 l 71 982 b 138 972 86 974 113 972 "},"ť":{"ha":500,"x_min":0,"x_max":0,"o":"m 472 1040 b 329 756 453 950 382 818 l 325 756 b 350 1040 346 832 357 936 l 472 1040 m 471 218 b 285 -14 460 85 410 -14 b 108 189 176 -14 108 54 l 108 639 l 11 639 l 11 647 b 219 914 128 671 200 776 l 231 914 l 231 675 l 447 675 l 440 639 l 231 639 l 231 193 b 326 57 231 103 264 57 b 460 218 394 57 442 114 "},"Ŧ":{"ha":994,"x_min":0,"x_max":0,"o":"m 646 0 l 349 0 l 349 3 b 435 167 415 31 435 75 l 435 476 l 254 476 l 254 513 l 435 513 l 435 938 l 319 938 b 26 700 164 938 115 856 l 24 700 l 71 982 b 138 972 86 974 113 972 l 857 972 b 924 982 882 972 908 974 l 971 700 l 968 700 b 675 938 879 856 831 938 l 560 938 l 560 513 l 740 513 l 740 476 l 560 476 l 560 167 b 646 3 560 75 579 31 "},"ŧ":{"ha":517,"x_min":0,"x_max":0,"o":"m 488 218 b 301 -14 476 85 426 -14 b 125 189 193 -14 125 54 l 125 426 l 28 426 l 28 463 l 125 463 l 125 639 l 28 639 l 28 647 b 236 914 144 671 217 776 l 247 914 l 247 675 l 464 675 l 457 639 l 247 639 l 247 463 l 449 463 l 449 426 l 247 426 l 247 193 b 343 57 247 103 281 57 b 476 218 411 57 458 114 l 488 218 "},"Ũ":{"ha":1019,"x_min":0,"x_max":0,"o":"m 788 1261 b 636 1072 753 1140 703 1072 b 428 1161 563 1072 488 1161 b 307 1067 372 1161 333 1124 l 293 1067 b 444 1256 328 1188 378 1256 b 653 1167 518 1256 593 1167 b 774 1261 708 1167 747 1204 l 788 1261 m 883 372 b 517 -14 883 124 725 -14 b 122 375 264 -14 122 121 l 122 794 b 43 969 122 886 110 942 l 43 972 l 326 972 l 326 969 b 247 794 260 942 247 886 l 247 388 b 528 44 247 174 333 44 b 844 381 711 44 844 163 l 844 774 b 740 969 844 879 807 942 l 740 972 l 988 972 l 988 969 b 883 774 921 942 883 879 "},"ũ":{"ha":797,"x_min":0,"x_max":0,"o":"m 647 997 b 496 808 613 876 563 808 b 288 897 422 808 347 897 b 167 803 232 897 193 860 l 153 803 b 304 992 188 924 238 992 b 513 903 378 992 453 903 b 633 997 568 903 607 940 l 647 997 m 563 524 b 476 672 563 603 543 644 l 476 675 l 685 675 l 685 138 b 785 3 685 51 719 24 l 785 0 l 563 0 l 563 201 b 313 -14 529 64 435 -14 b 101 228 190 -14 101 68 l 101 524 b 15 672 101 603 82 644 l 15 675 l 224 675 l 224 243 b 365 58 224 150 261 58 b 563 319 474 58 563 161 "},"Ū":{"ha":1019,"x_min":0,"x_max":0,"o":"m 349 1083 l 349 1132 l 732 1132 l 732 1083 m 883 372 b 517 -14 883 124 725 -14 b 122 375 264 -14 122 121 l 122 794 b 43 969 122 886 110 942 l 43 972 l 326 972 l 326 969 b 247 794 260 942 247 886 l 247 388 b 528 44 247 174 333 44 b 844 381 711 44 844 163 l 844 774 b 740 969 844 879 807 942 l 740 972 l 988 972 l 988 969 b 883 774 921 942 883 879 "},"ū":{"ha":797,"x_min":0,"x_max":0,"o":"m 208 833 l 208 882 l 592 882 l 592 833 m 563 524 b 476 672 563 603 543 644 l 476 675 l 685 675 l 685 138 b 785 3 685 51 719 24 l 785 0 l 563 0 l 563 201 b 313 -14 529 64 435 -14 b 101 228 190 -14 101 68 l 101 524 b 15 672 101 603 82 644 l 15 675 l 224 675 l 224 243 b 365 58 224 150 261 58 b 563 319 474 58 563 161 "},"Ŭ":{"ha":1019,"x_min":0,"x_max":0,"o":"m 732 1274 b 542 1053 731 1139 654 1053 b 350 1274 428 1053 351 1139 l 361 1274 b 542 1149 369 1188 460 1149 b 721 1274 622 1149 713 1188 l 732 1274 m 883 372 b 517 -14 883 124 725 -14 b 122 375 264 -14 122 121 l 122 794 b 43 969 122 886 110 942 l 43 972 l 326 972 l 326 969 b 247 794 260 942 247 886 l 247 388 b 528 44 247 174 333 44 b 844 381 711 44 844 163 l 844 774 b 740 969 844 879 807 942 l 740 972 l 988 972 l 988 969 b 883 774 921 942 883 879 "},"ŭ":{"ha":797,"x_min":0,"x_max":0,"o":"m 590 1031 b 400 789 589 883 513 789 b 210 1031 288 789 211 883 l 221 1031 b 400 886 229 928 319 886 b 579 1031 481 886 571 928 l 590 1031 m 563 524 b 476 672 563 603 543 644 l 476 675 l 685 675 l 685 138 b 785 3 685 51 719 24 l 785 0 l 563 0 l 563 201 b 313 -14 529 64 435 -14 b 101 228 190 -14 101 68 l 101 524 b 15 672 101 603 82 644 l 15 675 l 224 675 l 224 243 b 365 58 224 150 261 58 b 563 319 474 58 563 161 "},"Ů":{"ha":1019,"x_min":0,"x_max":0,"o":"m 540 1315 b 674 1185 613 1315 674 1256 b 540 1053 674 1111 613 1053 b 407 1185 468 1053 407 1111 b 540 1315 407 1256 468 1315 m 540 1086 b 640 1185 594 1086 640 1129 b 540 1282 640 1238 594 1282 b 440 1185 486 1282 440 1238 b 540 1086 440 1129 486 1086 m 883 372 b 517 -14 883 124 725 -14 b 122 375 264 -14 122 121 l 122 794 b 43 969 122 886 110 942 l 43 972 l 326 972 l 326 969 b 247 794 260 942 247 886 l 247 388 b 528 44 247 174 333 44 b 844 381 711 44 844 163 l 844 774 b 740 969 844 879 807 942 l 740 972 l 988 972 l 988 969 b 883 774 921 942 883 879 "},"ů":{"ha":797,"x_min":0,"x_max":0,"o":"m 400 1051 b 533 921 472 1051 533 992 b 400 789 533 847 472 789 b 267 921 328 789 267 847 b 400 1051 267 992 328 1051 m 400 822 b 500 921 454 822 500 865 b 400 1018 500 974 454 1018 b 300 921 346 1018 300 974 b 400 822 300 865 346 822 m 563 524 b 476 672 563 603 543 644 l 476 675 l 685 675 l 685 138 b 785 3 685 51 719 24 l 785 0 l 563 0 l 563 201 b 313 -14 529 64 435 -14 b 101 228 190 -14 101 68 l 101 524 b 15 672 101 603 82 644 l 15 675 l 224 675 l 224 243 b 365 58 224 150 261 58 b 563 319 474 58 563 161 "},"Ű":{"ha":1019,"x_min":0,"x_max":0,"o":"m 653 1271 b 415 1043 596 1190 524 1118 l 410 1043 b 500 1271 467 1128 489 1192 m 861 1271 b 624 1043 804 1190 732 1118 l 618 1043 b 708 1271 675 1128 697 1192 m 883 372 b 517 -14 883 124 725 -14 b 122 375 264 -14 122 121 l 122 794 b 43 969 122 886 110 942 l 43 972 l 326 972 l 326 969 b 247 794 260 942 247 886 l 247 388 b 528 44 247 174 333 44 b 844 381 711 44 844 163 l 844 774 b 740 969 844 879 807 942 l 740 972 l 988 972 l 988 969 b 883 774 921 942 883 879 "},"ű":{"ha":797,"x_min":0,"x_max":0,"o":"m 481 1040 b 246 779 425 949 353 865 l 240 779 b 343 1040 297 876 333 950 m 665 1040 b 431 779 610 949 538 865 l 425 779 b 528 1040 482 876 518 950 m 563 524 b 476 672 563 603 543 644 l 476 675 l 685 675 l 685 138 b 785 3 685 51 719 24 l 785 0 l 563 0 l 563 201 b 313 -14 529 64 435 -14 b 101 228 190 -14 101 68 l 101 524 b 15 672 101 603 82 644 l 15 675 l 224 675 l 224 243 b 365 58 224 150 261 58 b 563 319 474 58 563 161 "},"Ų":{"ha":1019,"x_min":0,"x_max":0,"o":"m 574 -329 b 444 -208 507 -329 444 -285 b 621 -1 444 -118 526 -57 b 517 -14 589 -10 553 -14 b 122 375 264 -14 122 121 l 122 794 b 43 969 122 886 110 942 l 43 972 l 326 972 l 326 969 b 247 794 260 942 247 886 l 247 388 b 528 44 247 174 333 44 b 844 381 711 44 844 163 l 844 774 b 740 969 844 879 807 942 l 740 972 l 988 972 l 988 969 b 883 774 921 942 883 879 l 883 372 b 683 18 883 193 807 83 b 540 -181 582 -35 540 -115 b 626 -267 540 -236 571 -267 b 760 -190 679 -267 725 -243 l 764 -193 b 574 -329 736 -260 683 -329 "},"ų":{"ha":797,"x_min":0,"x_max":0,"o":"m 703 -193 b 513 -329 675 -260 622 -329 b 383 -208 446 -329 383 -285 b 563 0 383 -117 467 -56 l 563 201 b 313 -14 529 64 435 -14 b 101 228 190 -14 101 68 l 101 524 b 15 672 101 603 82 644 l 15 675 l 224 675 l 224 243 b 365 58 224 150 261 58 b 563 319 474 58 563 161 l 563 524 b 476 672 563 603 543 644 l 476 675 l 685 675 l 685 138 b 785 3 685 51 719 24 l 785 0 l 593 0 b 479 -181 515 -61 479 -121 b 565 -267 479 -236 510 -267 b 699 -190 618 -267 664 -243 l 703 -193 "},"Ŵ":{"ha":1303,"x_min":0,"x_max":0,"o":"m 849 1031 b 657 1150 776 1065 701 1110 b 465 1031 613 1110 538 1065 l 454 1031 b 654 1292 531 1101 614 1203 l 660 1292 b 860 1031 700 1203 783 1101 l 849 1031 m 661 638 l 421 -14 l 417 -14 l 101 817 b 0 969 67 907 46 942 l 0 972 l 274 972 l 274 969 b 215 896 240 953 215 929 b 235 813 215 874 222 846 l 461 203 l 640 697 l 597 817 b 496 969 563 907 542 942 l 496 972 l 765 972 l 765 969 b 707 896 732 953 707 929 b 726 813 707 874 714 846 l 935 200 l 1147 788 b 1160 856 1156 811 1160 835 b 1094 969 1160 904 1138 946 l 1094 972 l 1311 972 l 1311 969 b 1197 803 1264 942 1228 886 l 897 -14 l 893 -14 "},"ŵ":{"ha":1036,"x_min":0,"x_max":0,"o":"m 726 767 b 535 901 654 804 579 858 b 343 767 490 858 415 804 l 332 767 b 532 1050 408 843 492 953 l 538 1050 b 738 767 578 953 661 843 l 726 767 m 531 458 l 331 -14 l 328 -14 l 99 525 b -7 672 57 622 39 640 l -7 675 l 242 675 l 242 672 b 200 611 207 657 200 639 b 224 525 200 590 213 557 l 369 174 l 510 508 l 503 525 b 397 672 461 622 443 640 l 397 675 l 642 675 l 642 672 b 600 611 607 657 600 639 b 624 525 600 590 613 557 l 757 175 l 890 515 b 906 588 900 540 906 565 b 847 672 906 626 888 658 l 847 675 l 1043 675 l 1043 672 b 936 521 997 640 976 619 l 722 -14 l 719 -14 "},"Ŷ":{"ha":904,"x_min":0,"x_max":0,"o":"m 671 1031 b 479 1150 599 1065 524 1110 b 288 1031 435 1110 360 1065 l 276 1031 b 476 1292 353 1101 436 1203 l 482 1292 b 682 1031 522 1203 606 1101 l 671 1031 m 726 818 b 747 886 740 842 747 865 b 694 969 747 922 728 953 l 694 972 l 904 972 l 904 969 b 774 825 847 935 811 886 l 513 404 l 513 167 b 599 3 513 75 532 31 l 599 0 l 306 0 l 306 3 b 392 167 372 31 392 75 l 392 404 l 122 838 b 0 969 85 899 54 933 l 0 972 l 293 972 l 293 969 b 243 894 263 953 243 931 b 264 831 243 878 247 857 l 500 451 "},"ŷ":{"ha":706,"x_min":0,"x_max":0,"o":"m 572 767 b 381 901 500 804 425 858 b 189 767 336 858 261 804 l 178 767 b 378 1050 254 843 338 953 l 383 1050 b 583 767 424 953 507 843 l 572 767 m 344 11 l 99 525 b -7 672 53 621 39 640 l -7 675 l 243 675 l 243 672 b 201 611 208 657 201 639 b 225 525 201 590 211 556 l 403 147 l 563 518 b 579 590 574 543 579 568 b 524 672 579 626 563 657 l 524 675 l 713 675 l 713 672 b 601 511 664 640 644 608 l 319 -135 b 114 -326 264 -262 207 -326 b -14 -217 39 -326 -14 -285 b 81 -122 -14 -157 31 -122 b 132 -133 100 -122 115 -125 b 86 -199 100 -143 86 -165 b 154 -267 86 -239 113 -267 b 285 -122 210 -267 240 -221 "},"Ÿ":{"ha":904,"x_min":0,"x_max":0,"o":"m 354 1069 b 272 1153 307 1069 272 1107 b 354 1235 272 1197 307 1235 b 436 1153 400 1235 436 1197 b 354 1069 436 1107 400 1069 m 604 1069 b 521 1153 558 1069 521 1107 b 604 1235 521 1197 558 1235 b 686 1153 650 1235 686 1197 b 604 1069 686 1107 650 1069 m 726 818 b 747 886 740 842 747 865 b 694 969 747 922 728 953 l 694 972 l 904 972 l 904 969 b 774 825 847 935 811 886 l 513 404 l 513 167 b 599 3 513 75 532 31 l 599 0 l 306 0 l 306 3 b 392 167 372 31 392 75 l 392 404 l 122 838 b 0 969 85 899 54 933 l 0 972 l 293 972 l 293 969 b 243 894 263 953 243 931 b 264 831 243 878 247 857 l 500 451 "},"Ź":{"ha":908,"x_min":0,"x_max":0,"o":"m 619 1271 b 382 1043 563 1190 490 1118 l 376 1043 b 467 1271 433 1128 456 1192 m 50 0 l 50 3 l 668 936 l 376 936 b 83 714 221 936 156 846 l 81 714 l 128 982 b 194 972 143 974 169 972 l 832 972 l 832 969 l 218 36 l 542 36 b 847 283 697 36 753 99 l 850 283 l 806 0 "},"ź":{"ha":688,"x_min":0,"x_max":0,"o":"m 510 1040 b 275 779 454 949 382 865 l 269 779 b 368 1040 326 876 358 950 m 293 643 b 63 463 186 643 154 600 l 60 463 l 79 683 b 163 675 100 679 121 675 l 631 675 l 631 672 l 190 31 l 357 32 b 643 235 497 33 551 82 l 646 235 l 604 0 l 33 0 l 33 3 l 474 643 "},"Ż":{"ha":908,"x_min":0,"x_max":0,"o":"m 363 1156 b 450 1243 363 1204 401 1243 b 538 1156 499 1243 538 1204 b 450 1069 538 1108 499 1069 b 363 1156 401 1069 363 1108 m 50 0 l 50 3 l 668 936 l 376 936 b 83 714 221 936 156 846 l 81 714 l 128 982 b 194 972 143 974 169 972 l 832 972 l 832 969 l 218 36 l 542 36 b 847 283 697 36 753 99 l 850 283 l 806 0 "},"ż":{"ha":688,"x_min":0,"x_max":0,"o":"m 263 911 b 350 999 263 960 301 999 b 438 911 399 999 438 960 b 350 825 438 864 399 825 b 263 911 301 825 263 864 m 293 643 b 63 463 186 643 154 600 l 60 463 l 79 683 b 163 675 100 679 121 675 l 631 675 l 631 672 l 190 31 l 357 32 b 643 235 497 33 551 82 l 646 235 l 604 0 l 33 0 l 33 3 l 474 643 "},"Ž":{"ha":908,"x_min":0,"x_max":0,"o":"m 258 1292 b 450 1172 331 1257 406 1213 b 642 1292 494 1213 569 1257 l 653 1292 b 453 1031 576 1221 493 1119 l 447 1031 b 247 1292 407 1119 324 1221 l 258 1292 m 50 0 l 50 3 l 668 936 l 376 936 b 83 714 221 936 156 846 l 81 714 l 128 982 b 194 972 143 974 169 972 l 832 972 l 832 969 l 218 36 l 542 36 b 847 283 697 36 753 99 l 850 283 l 806 0 "},"ž":{"ha":688,"x_min":0,"x_max":0,"o":"m 158 1050 b 350 915 231 1013 306 958 b 542 1050 394 958 469 1013 l 553 1050 b 353 767 476 974 393 864 l 347 767 b 147 1050 307 864 224 974 l 158 1050 m 293 643 b 63 463 186 643 154 600 l 60 463 l 79 683 b 163 675 100 679 121 675 l 631 675 l 631 672 l 190 31 l 357 32 b 643 235 497 33 551 82 l 646 235 l 604 0 l 33 0 l 33 3 l 474 643 "},"ƒ":{"ha":735,"x_min":0,"x_max":0,"o":"m 314 -17 b 74 -262 293 -172 203 -262 b -112 -143 -35 -262 -112 -219 b -24 -64 -112 -97 -79 -64 b 53 -89 6 -64 36 -75 b -10 -157 15 -87 -10 -112 b 74 -240 -10 -210 22 -240 b 186 -65 149 -240 174 -158 l 258 476 l 118 476 l 122 501 l 261 501 l 293 740 b 533 986 313 896 404 986 b 722 868 642 986 722 944 b 633 789 722 822 689 789 b 557 814 604 789 574 800 b 619 882 594 813 619 838 b 533 964 619 935 585 964 b 421 789 458 964 432 882 l 383 501 l 558 501 l 554 476 l 379 476 l 314 -17 "},"Ǽ":{"ha":1456,"x_min":0,"x_max":0,"o":"m 1135 1271 b 897 1043 1078 1190 1006 1118 l 892 1043 b 982 1271 949 1128 971 1192 m 365 417 l 708 417 l 708 931 m 226 0 l 0 0 l 0 3 b 140 156 54 31 86 75 l 606 849 b 621 893 617 865 621 881 b 544 969 621 922 597 938 l 544 972 l 1260 972 b 1326 982 1285 972 1311 974 l 1374 742 l 1371 742 b 1064 936 1299 874 1219 936 l 833 936 l 833 511 l 1028 511 b 1222 665 1140 511 1175 536 l 1225 665 l 1225 342 l 1222 342 b 1028 475 1175 469 1140 475 l 833 475 l 833 36 l 1093 36 b 1413 256 1249 36 1339 108 l 1415 256 l 1371 0 l 629 0 l 629 3 b 708 178 696 31 708 86 l 708 381 l 340 381 l 199 168 b 164 78 174 131 164 104 b 226 3 164 42 186 19 "},"ǽ":{"ha":1140,"x_min":0,"x_max":0,"o":"m 771 1040 b 536 779 715 949 643 865 l 531 779 b 629 1040 588 876 619 950 m 1099 218 b 811 -14 1072 69 964 -14 b 506 200 674 -14 553 63 b 250 -10 486 99 399 -10 b 53 163 140 -10 53 46 b 375 369 53 311 210 339 l 481 389 l 481 475 b 319 663 481 576 433 663 b 178 549 217 663 178 610 b 242 475 178 506 203 475 b 260 479 247 475 254 476 b 181 417 253 438 221 417 b 79 518 124 417 79 454 b 319 689 79 608 176 689 b 558 567 443 689 521 642 b 807 689 618 643 708 689 b 1094 365 1007 689 1094 556 l 608 365 b 857 50 608 181 701 50 b 1090 221 961 50 1050 106 l 1099 218 m 963 394 b 806 661 963 536 938 661 b 611 394 707 661 618 558 m 388 344 b 183 176 250 318 183 275 b 301 51 183 85 235 51 b 481 267 399 51 481 125 l 481 363 "},"Ǿ":{"ha":1053,"x_min":0,"x_max":0,"o":"m 696 1271 b 458 1043 639 1190 567 1118 l 453 1043 b 543 1271 510 1128 532 1192 m 194 486 b 250 203 194 378 214 281 l 793 789 b 526 954 738 892 649 954 b 194 486 308 954 194 753 m 526 18 b 858 486 744 18 858 219 b 807 760 858 590 842 685 l 265 174 b 526 18 321 78 408 18 m 526 -14 b 207 111 406 -14 293 32 l 90 -15 l 67 4 l 186 133 b 50 486 103 221 50 343 b 526 986 50 778 268 986 b 853 854 651 986 767 938 l 965 976 l 989 957 l 874 832 b 1003 486 953 744 1003 625 b 526 -14 1003 194 785 -14 "},"ǿ":{"ha":769,"x_min":0,"x_max":0,"o":"m 544 1040 b 310 779 489 949 417 865 l 304 779 b 403 1040 361 876 393 950 m 182 338 b 213 157 182 271 192 208 l 554 526 b 385 661 521 608 463 661 b 182 338 257 661 182 518 m 385 14 b 588 338 513 14 588 157 b 565 494 588 394 581 449 l 225 126 b 385 14 260 57 314 14 m 385 -14 b 165 63 299 -14 224 14 l 89 -21 l 65 -1 l 143 83 b 44 338 81 146 44 235 b 385 689 44 540 186 689 b 619 599 479 689 561 656 l 700 685 l 724 665 l 642 576 b 725 338 694 515 725 432 b 385 -14 725 135 583 -14 "},"Ș":{"ha":793,"x_min":0,"x_max":0,"o":"m 372 954 b 174 760 269 954 174 892 b 397 558 174 633 278 592 b 735 261 554 515 735 475 b 403 -14 735 69 569 -14 b 161 38 292 -14 215 38 b 74 -14 122 38 100 14 l 58 292 l 61 292 b 403 18 138 117 263 18 b 624 226 525 18 624 92 b 363 439 624 365 496 400 b 69 718 219 481 69 528 b 372 986 69 882 208 986 b 599 938 483 986 556 938 b 681 986 644 938 663 965 l 686 704 l 683 704 b 372 954 621 842 522 954 m 486 -196 b 292 -353 486 -275 422 -349 l 292 -333 b 429 -207 394 -321 429 -276 b 375 -224 417 -217 394 -224 b 304 -156 335 -224 304 -192 b 385 -79 304 -111 338 -79 b 486 -196 443 -79 486 -124 "},"ș":{"ha":638,"x_min":0,"x_max":0,"o":"m 296 661 b 164 542 210 661 164 606 b 332 407 164 474 190 440 b 581 190 517 364 581 301 b 329 -14 581 53 458 -14 b 132 22 233 -14 175 22 b 72 -14 106 22 89 6 l 57 250 l 60 250 b 329 14 119 106 201 14 b 481 153 413 14 481 65 b 285 292 481 235 406 264 b 68 500 125 329 68 396 b 296 689 68 622 176 689 b 472 651 382 689 425 651 b 542 689 499 651 518 668 l 542 460 l 539 460 b 296 661 489 571 407 661 m 417 -196 b 222 -353 417 -275 353 -349 l 222 -333 b 360 -207 325 -321 360 -276 b 306 -224 347 -217 325 -224 b 235 -156 265 -224 235 -192 b 315 -79 235 -111 268 -79 b 417 -196 374 -79 417 -124 "},"Ț":{"ha":994,"x_min":0,"x_max":0,"o":"m 857 972 b 924 982 882 972 908 974 l 971 700 l 968 700 b 675 938 879 856 831 938 l 560 938 l 560 167 b 646 3 560 75 579 31 l 646 0 l 349 0 l 349 3 b 435 167 415 31 435 75 l 435 938 l 319 938 b 26 700 164 938 115 856 l 24 700 l 71 982 b 138 972 86 974 113 972 m 594 -196 b 400 -353 594 -275 531 -349 l 400 -333 b 538 -207 503 -321 538 -276 b 483 -224 525 -217 503 -224 b 413 -156 443 -224 413 -192 b 493 -79 413 -111 446 -79 b 594 -196 551 -79 594 -124 "},"ț":{"ha":500,"x_min":0,"x_max":0,"o":"m 471 218 b 285 -14 460 85 410 -14 b 108 189 176 -14 108 54 l 108 639 l 11 639 l 11 647 b 219 914 128 671 200 776 l 231 914 l 231 675 l 447 675 l 440 639 l 231 639 l 231 193 b 326 57 231 103 264 57 b 460 218 394 57 442 114 m 338 -196 b 143 -353 338 -275 274 -349 l 143 -333 b 281 -207 246 -321 281 -276 b 226 -224 268 -217 246 -224 b 156 -156 186 -224 156 -192 b 236 -79 156 -111 189 -79 b 338 -196 294 -79 338 -124 "},"ȷ":{"ha":325,"x_min":0,"x_max":0,"o":"m 229 -75 b -17 -326 229 -257 119 -326 b -207 -201 -126 -326 -207 -278 b -118 -122 -207 -156 -174 -122 b -53 -144 -93 -122 -68 -131 b -103 -212 -82 -153 -103 -175 b -10 -304 -103 -272 -69 -304 b 107 -85 76 -304 107 -235 l 107 524 b 21 672 107 603 88 644 l 21 675 l 229 675 l 229 -75 "},"ʻ":{"ha":694,"x_min":0,"x_max":0,"o":"m 250 903 b 444 1060 250 982 314 1056 l 444 1040 b 307 914 342 1028 307 983 b 361 931 319 924 342 931 b 432 863 401 931 432 899 b 351 786 432 818 399 786 b 250 903 293 786 250 831 "},"ˆ":{"ha":694,"x_min":0,"x_max":0,"o":"m 539 767 b 347 901 467 804 392 858 b 156 767 303 858 228 804 l 144 767 b 344 1050 221 843 304 953 l 350 1050 b 550 767 390 953 474 843 l 539 767 "},"ˇ":{"ha":694,"x_min":0,"x_max":0,"o":"m 156 1050 b 347 915 228 1013 303 958 b 539 1050 392 958 467 1013 l 550 1050 b 350 767 474 974 390 864 l 344 767 b 144 1050 304 864 221 974 l 156 1050 "},"˘":{"ha":694,"x_min":0,"x_max":0,"o":"m 538 1031 b 347 789 536 883 460 789 b 157 1031 235 789 158 883 l 168 1031 b 347 886 176 928 267 886 b 526 1031 428 886 518 928 l 538 1031 "},"˙":{"ha":694,"x_min":0,"x_max":0,"o":"m 260 911 b 347 999 260 960 299 999 b 435 911 396 999 435 960 b 347 825 435 864 396 825 b 260 911 299 825 260 864 "},"˚":{"ha":694,"x_min":0,"x_max":0,"o":"m 347 1051 b 481 921 419 1051 481 992 b 347 789 481 847 419 789 b 214 921 275 789 214 847 b 347 1051 214 992 275 1051 m 347 822 b 447 921 401 822 447 865 b 347 1018 447 974 401 1018 b 247 921 293 1018 247 974 b 347 822 247 865 293 822 "},"˛":{"ha":694,"x_min":0,"x_max":0,"o":"m 186 -208 b 414 28 186 -101 300 -36 l 419 18 b 282 -181 326 -49 282 -115 b 368 -267 282 -236 313 -267 b 501 -190 421 -267 467 -243 l 506 -193 b 315 -329 478 -260 425 -329 b 186 -208 249 -329 186 -285 "},"˜":{"ha":694,"x_min":0,"x_max":0,"o":"m 594 997 b 443 808 560 876 510 808 b 235 897 369 808 294 897 b 114 803 179 897 140 860 l 100 803 b 251 992 135 924 185 992 b 460 903 325 992 400 903 b 581 997 515 903 554 940 l 594 997 "},"˝":{"ha":694,"x_min":0,"x_max":0,"o":"m 375 1040 b 140 779 319 949 247 865 l 135 779 b 238 1040 192 876 228 950 m 560 1040 b 325 779 504 949 432 865 l 319 779 b 422 1040 376 876 413 950 "},"Ẁ":{"ha":1303,"x_min":0,"x_max":0,"o":"m 600 1271 b 690 1043 611 1192 633 1128 l 685 1043 b 447 1271 576 1118 504 1190 l 600 1271 m 661 638 l 421 -14 l 417 -14 l 101 817 b 0 969 67 907 46 942 l 0 972 l 274 972 l 274 969 b 215 896 240 953 215 929 b 235 813 215 874 222 846 l 461 203 l 640 697 l 597 817 b 496 969 563 907 542 942 l 496 972 l 765 972 l 765 969 b 707 896 732 953 707 929 b 726 813 707 874 714 846 l 935 200 l 1147 788 b 1160 856 1156 811 1160 835 b 1094 969 1160 904 1138 946 l 1094 972 l 1311 972 l 1311 969 b 1197 803 1264 942 1228 886 l 897 -14 l 893 -14 "},"ẁ":{"ha":1036,"x_min":0,"x_max":0,"o":"m 490 1040 b 589 779 500 950 532 876 l 583 779 b 349 1040 476 865 404 949 l 490 1040 m 531 458 l 331 -14 l 328 -14 l 99 525 b -7 672 57 622 39 640 l -7 675 l 242 675 l 242 672 b 200 611 207 657 200 639 b 224 525 200 590 213 557 l 369 174 l 510 508 l 503 525 b 397 672 461 622 443 640 l 397 675 l 642 675 l 642 672 b 600 611 607 657 600 639 b 624 525 600 590 613 557 l 757 175 l 890 515 b 906 588 900 540 906 565 b 847 672 906 626 888 658 l 847 675 l 1043 675 l 1043 672 b 936 521 997 640 976 619 l 722 -14 l 719 -14 "},"Ẃ":{"ha":1303,"x_min":0,"x_max":0,"o":"m 826 1271 b 589 1043 769 1190 697 1118 l 583 1043 b 674 1271 640 1128 663 1192 m 661 638 l 421 -14 l 417 -14 l 101 817 b 0 969 67 907 46 942 l 0 972 l 274 972 l 274 969 b 215 896 240 953 215 929 b 235 813 215 874 222 846 l 461 203 l 640 697 l 597 817 b 496 969 563 907 542 942 l 496 972 l 765 972 l 765 969 b 707 896 732 953 707 929 b 726 813 707 874 714 846 l 935 200 l 1147 788 b 1160 856 1156 811 1160 835 b 1094 969 1160 904 1138 946 l 1094 972 l 1311 972 l 1311 969 b 1197 803 1264 942 1228 886 l 897 -14 l 893 -14 "},"ẃ":{"ha":1036,"x_min":0,"x_max":0,"o":"m 694 1040 b 460 779 639 949 567 865 l 454 779 b 553 1040 511 876 543 950 m 531 458 l 331 -14 l 328 -14 l 99 525 b -7 672 57 622 39 640 l -7 675 l 242 675 l 242 672 b 200 611 207 657 200 639 b 224 525 200 590 213 557 l 369 174 l 510 508 l 503 525 b 397 672 461 622 443 640 l 397 675 l 642 675 l 642 672 b 600 611 607 657 600 639 b 624 525 600 590 613 557 l 757 175 l 890 515 b 906 588 900 540 906 565 b 847 672 906 626 888 658 l 847 675 l 1043 675 l 1043 672 b 936 521 997 640 976 619 l 722 -14 l 719 -14 "},"Ẅ":{"ha":1303,"x_min":0,"x_max":0,"o":"m 532 1069 b 450 1153 485 1069 450 1107 b 532 1235 450 1197 485 1235 b 614 1153 578 1235 614 1197 b 532 1069 614 1107 578 1069 m 782 1069 b 699 1153 736 1069 699 1107 b 782 1235 699 1197 736 1235 b 864 1153 828 1235 864 1197 b 782 1069 864 1107 828 1069 m 661 638 l 421 -14 l 417 -14 l 101 817 b 0 969 67 907 46 942 l 0 972 l 274 972 l 274 969 b 215 896 240 953 215 929 b 235 813 215 874 222 846 l 461 203 l 640 697 l 597 817 b 496 969 563 907 542 942 l 496 972 l 765 972 l 765 969 b 707 896 732 953 707 929 b 726 813 707 874 714 846 l 935 200 l 1147 788 b 1160 856 1156 811 1160 835 b 1094 969 1160 904 1138 946 l 1094 972 l 1311 972 l 1311 969 b 1197 803 1264 942 1228 886 l 897 -14 l 893 -14 "},"ẅ":{"ha":1036,"x_min":0,"x_max":0,"o":"m 410 806 b 328 889 363 806 328 843 b 410 971 328 933 363 971 b 492 889 456 971 492 933 b 410 806 492 843 456 806 m 660 806 b 576 889 614 806 576 843 b 660 971 576 933 614 971 b 742 889 706 971 742 933 b 660 806 742 843 706 806 m 531 458 l 331 -14 l 328 -14 l 99 525 b -7 672 57 622 39 640 l -7 675 l 242 675 l 242 672 b 200 611 207 657 200 639 b 224 525 200 590 213 557 l 369 174 l 510 508 l 503 525 b 397 672 461 622 443 640 l 397 675 l 642 675 l 642 672 b 600 611 607 657 600 639 b 624 525 600 590 613 557 l 757 175 l 890 515 b 906 588 900 540 906 565 b 847 672 906 626 888 658 l 847 675 l 1043 675 l 1043 672 b 936 521 997 640 976 619 l 722 -14 l 719 -14 "},"Ỳ":{"ha":904,"x_min":0,"x_max":0,"o":"m 422 1271 b 513 1043 433 1192 456 1128 l 507 1043 b 269 1271 399 1118 326 1190 l 422 1271 m 726 818 b 747 886 740 842 747 865 b 694 969 747 922 728 953 l 694 972 l 904 972 l 904 969 b 774 825 847 935 811 886 l 513 404 l 513 167 b 599 3 513 75 532 31 l 599 0 l 306 0 l 306 3 b 392 167 372 31 392 75 l 392 404 l 122 838 b 0 969 85 899 54 933 l 0 972 l 293 972 l 293 969 b 243 894 263 953 243 931 b 264 831 243 878 247 857 l 500 451 "},"ỳ":{"ha":706,"x_min":0,"x_max":0,"o":"m 336 1040 b 435 779 346 950 378 876 l 429 779 b 194 1040 322 865 250 949 l 336 1040 m 344 11 l 99 525 b -7 672 53 621 39 640 l -7 675 l 243 675 l 243 672 b 201 611 208 657 201 639 b 225 525 201 590 211 556 l 403 147 l 563 518 b 579 590 574 543 579 568 b 524 672 579 626 563 657 l 524 675 l 713 675 l 713 672 b 601 511 664 640 644 608 l 319 -135 b 114 -326 264 -262 207 -326 b -14 -217 39 -326 -14 -285 b 81 -122 -14 -157 31 -122 b 132 -133 100 -122 115 -125 b 86 -199 100 -143 86 -165 b 154 -267 86 -239 113 -267 b 285 -122 210 -267 240 -221 "}," ":{"ha":56,"x_min":0,"x_max":0,"o":""},"–":{"ha":678,"x_min":0,"x_max":0,"o":"m 47 401 l 631 401 l 631 364 l 47 364 "},"—":{"ha":1094,"x_min":0,"x_max":0,"o":"m 47 401 l 1047 401 l 1047 364 l 47 364 "},"‘":{"ha":278,"x_min":0,"x_max":0,"o":"m 90 797 b 153 825 103 817 125 825 b 229 749 196 825 229 792 b 138 663 229 699 193 663 b 28 806 71 663 28 719 b 269 1022 28 926 129 1018 l 269 1001 b 90 797 158 988 75 914 "},"’":{"ha":278,"x_min":0,"x_max":0,"o":"m 188 888 b 125 860 175 868 153 860 b 49 936 82 860 49 893 b 140 1022 49 986 85 1022 b 250 879 207 1022 250 965 b 8 663 250 758 149 667 l 8 683 b 188 888 119 697 203 771 "},"‚":{"ha":278,"x_min":0,"x_max":0,"o":"m 188 38 b 125 10 175 18 153 10 b 49 86 82 10 49 43 b 140 172 49 136 85 172 b 250 29 207 172 250 115 b 8 -187 250 -92 149 -183 l 8 -167 b 188 38 119 -153 203 -79 "},"“":{"ha":539,"x_min":0,"x_max":0,"o":"m 351 797 b 414 825 364 817 386 825 b 490 749 457 825 490 792 b 399 663 490 699 454 663 b 289 806 332 663 289 719 b 531 1022 289 926 390 1018 l 531 1001 b 351 797 419 988 336 914 m 90 797 b 153 825 103 817 125 825 b 229 749 196 825 229 792 b 138 663 229 699 193 663 b 28 806 71 663 28 719 b 269 1022 28 926 129 1018 l 269 1001 b 90 797 158 988 75 914 "},"”":{"ha":539,"x_min":0,"x_max":0,"o":"m 449 889 b 386 861 436 869 414 861 b 310 938 343 861 310 894 b 401 1024 310 988 346 1024 b 511 881 468 1024 511 967 b 269 664 511 760 410 668 l 269 685 b 449 889 381 699 464 772 m 188 889 b 125 861 175 869 153 861 b 49 938 82 861 49 894 b 140 1024 49 988 85 1024 b 250 881 207 1024 250 967 b 8 664 250 760 149 668 l 8 685 b 188 889 119 699 203 772 "},"„":{"ha":539,"x_min":0,"x_max":0,"o":"m 449 38 b 386 10 436 18 414 10 b 310 86 343 10 310 43 b 401 172 310 136 346 172 b 511 29 468 172 511 115 b 269 -187 511 -92 410 -183 l 269 -167 b 449 38 381 -153 464 -79 m 188 38 b 125 10 175 18 153 10 b 49 86 82 10 49 43 b 140 172 49 136 85 172 b 250 29 207 172 250 115 b 8 -187 250 -92 149 -183 l 8 -167 b 188 38 119 -153 203 -79 "},"†":{"ha":517,"x_min":0,"x_max":0,"o":"m 314 776 b 264 336 314 776 268 531 l 253 336 b 203 776 249 531 203 776 b 156 813 200 797 181 813 b 86 758 144 778 118 758 b 42 803 60 758 42 776 b 85 851 42 826 61 846 b 114 826 88 829 100 826 b 167 835 132 826 146 835 b 249 796 192 835 235 819 b 201 1007 246 872 231 949 b 258 1040 215 1024 232 1040 b 315 1007 285 1040 301 1024 b 268 796 286 949 271 872 b 350 835 282 819 325 835 b 403 826 371 835 385 826 b 432 851 417 826 429 829 b 475 803 456 846 475 826 b 431 758 475 776 457 758 b 361 813 399 758 372 778 b 314 776 336 813 317 797 "},"‡":{"ha":517,"x_min":0,"x_max":0,"o":"m 253 667 b 149 867 247 778 174 867 b 86 813 138 832 118 813 b 42 857 60 813 42 831 b 85 906 42 881 61 900 b 114 881 88 883 100 881 b 167 889 132 881 146 889 b 249 850 192 889 235 874 b 201 1003 246 910 231 958 b 258 1040 211 1024 232 1040 b 315 1003 285 1040 306 1024 b 268 850 286 958 271 910 b 350 889 282 874 325 889 b 403 881 371 889 385 881 b 432 906 417 881 429 883 b 475 857 456 900 475 881 b 431 813 475 831 457 813 b 368 867 399 813 379 832 b 264 667 343 867 269 778 m 264 638 b 368 438 269 526 343 438 b 431 492 379 472 399 492 b 475 447 457 492 475 474 b 432 399 475 424 456 404 b 403 424 429 421 417 424 b 350 415 385 424 371 415 b 268 454 325 415 282 431 b 315 301 271 394 286 346 b 258 264 306 281 285 264 b 201 301 232 264 211 281 b 249 454 231 346 246 394 b 167 415 235 431 192 415 b 114 424 146 415 132 424 b 85 399 100 424 88 421 b 42 447 61 404 42 424 b 86 492 42 474 60 492 b 149 438 118 492 138 472 b 253 638 174 438 247 526 l 264 638 "},"•":{"ha":414,"x_min":0,"x_max":0,"o":"m 47 375 b 207 535 47 463 119 535 b 367 375 294 535 367 463 b 207 215 367 288 294 215 b 47 375 119 215 47 288 "},"…":{"ha":822,"x_min":0,"x_max":0,"o":"m 247 82 b 153 -12 247 29 204 -12 b 58 82 100 -12 58 29 b 153 178 58 136 100 178 b 247 82 204 178 247 136 m 506 82 b 411 -12 506 29 463 -12 b 317 82 358 -12 317 29 b 411 178 317 136 358 178 b 506 82 463 178 506 136 m 764 82 b 669 -12 764 29 721 -12 b 575 82 617 -12 575 29 b 669 178 575 136 617 178 b 764 82 721 178 764 136 "},"‰":{"ha":1321,"x_min":0,"x_max":0,"o":"m 146 0 l 657 931 b 497 871 624 901 572 871 b 392 890 458 871 425 878 b 422 783 410 860 422 821 b 225 581 422 675 336 581 b 28 783 114 581 28 675 b 225 986 28 892 114 986 b 499 897 339 986 353 897 b 700 999 600 897 638 938 l 717 986 l 196 0 m 225 604 b 321 783 296 604 321 688 b 225 963 321 879 296 963 b 129 783 154 963 129 879 b 225 604 129 688 154 604 m 1293 196 b 1096 -7 1293 88 1207 -7 b 899 196 985 -7 899 88 b 1096 399 899 304 985 399 b 1293 196 1207 399 1293 304 m 646 -7 b 449 196 535 -7 449 88 b 646 399 449 304 535 399 b 843 196 757 399 843 304 b 646 -7 843 88 757 -7 m 1096 17 b 1192 196 1167 17 1192 100 b 1096 375 1192 292 1167 375 b 1000 196 1025 375 1000 292 b 1096 17 1000 100 1025 17 m 646 17 b 742 196 717 17 742 100 b 646 375 742 292 717 375 b 550 196 575 375 550 292 b 646 17 550 100 575 17 "},"‹":{"ha":378,"x_min":0,"x_max":0,"o":"m 19 340 b 353 590 135 403 260 490 l 358 590 b 185 339 306 486 238 401 b 358 88 238 276 306 192 l 353 88 b 19 338 260 188 135 275 "},"›":{"ha":378,"x_min":0,"x_max":0,"o":"m 375 338 b 42 88 260 275 135 188 l 36 88 b 210 339 89 192 157 276 b 36 590 157 401 89 486 l 42 590 b 375 340 135 490 260 403 "},"⁄":{"ha":476,"x_min":0,"x_max":0,"o":"m 408 1040 l 449 1040 l 40 -171 l 0 -171 "},"€":{"ha":903,"x_min":0,"x_max":0,"o":"m 857 292 b 526 -14 822 74 683 -14 b 147 403 344 -14 174 128 l 53 403 l 53 428 l 144 428 b 143 482 143 446 143 464 b 144 532 143 499 143 515 l 53 532 l 53 557 l 147 557 b 565 986 174 831 351 986 b 839 786 717 986 839 908 b 718 665 839 708 789 665 b 628 717 679 665 640 685 b 647 715 635 715 640 715 b 735 808 696 715 735 747 b 565 961 735 894 679 961 b 282 557 399 961 299 801 l 594 557 l 585 532 l 281 532 b 279 481 279 515 279 499 b 281 428 279 463 279 444 l 550 428 l 540 403 l 283 403 b 569 61 307 175 435 61 b 849 292 697 61 797 118 l 857 292 "},"℗":{"ha":1125,"x_min":0,"x_max":0,"o":"m 1063 486 b 563 -14 1063 196 839 -14 b 63 486 286 -14 63 196 b 563 986 63 776 286 986 b 1063 486 839 986 1063 776 m 1035 486 b 563 958 1035 760 824 958 b 90 486 301 958 90 760 b 563 14 90 213 301 14 b 1035 486 824 14 1035 213 m 492 293 b 558 208 492 240 511 231 l 558 206 l 349 206 l 349 208 b 397 293 386 231 397 240 l 397 686 b 349 771 397 739 386 749 l 349 774 l 608 774 b 824 607 738 774 824 718 b 608 442 824 496 736 442 l 492 442 m 582 465 b 726 607 678 465 726 517 b 582 750 726 699 678 750 l 492 750 l 492 465 "},"™":{"ha":1157,"x_min":0,"x_max":0,"o":"m 435 972 b 471 976 453 972 463 974 l 490 847 l 488 847 b 369 950 450 901 429 950 l 317 950 l 317 618 b 358 553 317 578 326 569 l 358 550 l 190 550 l 190 553 b 232 618 221 569 232 578 l 232 950 l 176 950 b 60 847 117 950 96 901 l 57 847 l 76 976 b 113 972 86 974 94 972 m 931 972 l 1053 972 l 1053 969 b 1017 904 1024 951 1017 944 l 1017 617 b 1053 553 1017 576 1024 571 l 1053 550 l 896 550 l 896 553 b 932 617 924 571 932 576 l 932 918 l 768 543 l 765 543 l 604 918 l 604 617 b 640 553 604 576 611 571 l 640 550 l 539 550 l 539 553 b 575 617 567 571 575 576 l 575 904 b 539 969 575 944 567 951 l 539 972 l 671 972 l 803 675 "},"⅓":{"ha":563,"x_min":0,"x_max":0,"o":"m 232 913 b 158 964 232 946 217 954 l 158 972 l 322 972 l 322 629 b 393 578 322 596 335 588 l 393 569 l 161 569 l 161 578 b 232 629 219 588 232 596 l 232 913 m 535 497 l 535 475 l 28 475 l 28 497 m 267 15 b 339 111 311 15 339 61 b 246 210 339 179 307 210 l 246 222 b 324 315 307 225 324 260 b 269 389 324 353 307 389 b 215 336 233 389 215 361 b 246 293 215 311 226 293 b 258 296 251 293 256 294 l 261 296 b 207 267 253 278 233 267 b 149 324 172 267 149 289 b 269 408 149 375 201 408 b 411 313 354 408 411 372 b 303 219 411 256 365 226 b 429 111 374 215 429 176 b 267 -6 429 33 357 -6 b 126 89 193 -6 126 26 b 193 154 126 131 156 154 b 247 124 222 154 240 142 l 244 124 b 232 126 240 126 238 126 b 201 79 213 126 201 108 b 267 15 201 42 226 15 "},"⅔":{"ha":563,"x_min":0,"x_max":0,"o":"m 265 957 b 199 893 222 957 199 925 b 244 836 199 857 218 836 b 269 843 257 836 263 838 l 271 843 b 208 800 261 814 238 800 b 136 875 167 800 136 829 b 265 978 136 936 189 978 b 419 864 350 978 419 943 b 214 639 419 782 354 729 l 307 639 b 422 690 372 640 393 644 l 428 690 l 411 569 l 122 569 l 122 571 b 332 879 293 733 332 794 b 265 957 332 917 314 957 m 535 497 l 535 475 l 28 475 l 28 497 m 267 15 b 339 111 311 15 339 61 b 246 210 339 179 307 210 l 246 222 b 324 315 307 225 324 260 b 269 389 324 353 307 389 b 215 336 233 389 215 361 b 246 293 215 311 226 293 b 258 296 251 293 256 294 l 261 296 b 207 267 253 278 233 267 b 149 324 172 267 149 289 b 269 408 149 375 201 408 b 411 313 354 408 411 372 b 303 219 411 256 365 226 b 429 111 374 215 429 176 b 267 -6 429 33 357 -6 b 126 89 193 -6 126 26 b 193 154 126 131 156 154 b 247 124 222 154 240 142 l 244 124 b 232 126 240 126 238 126 b 201 79 213 126 201 108 b 267 15 201 42 226 15 "},"⅛":{"ha":563,"x_min":0,"x_max":0,"o":"m 246 913 b 172 964 246 946 231 954 l 172 972 l 336 972 l 336 629 b 407 578 336 596 349 588 l 407 569 l 175 569 l 175 578 b 246 629 233 588 246 596 l 246 913 m 535 497 l 535 475 l 28 475 l 28 497 m 329 240 b 442 115 407 213 442 172 b 289 -6 442 39 378 -6 b 133 96 203 -6 133 29 b 231 185 133 144 176 175 b 151 292 188 203 151 242 b 286 408 151 368 213 408 b 418 321 358 408 418 376 b 329 240 418 271 369 246 m 219 331 b 276 263 219 297 240 278 l 324 243 b 361 321 344 258 361 283 b 286 388 361 358 335 388 b 219 331 243 388 219 363 m 236 182 b 194 100 208 165 194 136 b 289 17 194 51 231 17 b 371 76 339 17 371 40 b 300 156 371 119 346 136 l 236 182 "},"⅜":{"ha":563,"x_min":0,"x_max":0,"o":"m 281 585 b 353 681 325 585 353 631 b 260 779 353 749 321 779 l 260 792 b 338 885 321 794 338 829 b 283 958 338 922 321 958 b 229 906 247 958 229 931 b 260 863 229 881 240 863 b 272 865 265 863 269 864 l 275 865 b 221 836 267 847 247 836 b 163 893 186 836 163 858 b 283 978 163 944 215 978 b 425 882 368 978 425 942 b 317 789 425 825 379 796 b 443 681 388 785 443 746 b 281 564 443 603 371 564 b 140 658 207 564 140 596 b 207 724 140 700 169 724 b 261 693 236 724 254 711 l 258 693 b 246 696 254 696 251 696 b 215 649 226 696 215 678 b 281 585 215 611 240 585 m 535 497 l 535 475 l 28 475 l 28 497 m 329 240 b 442 115 407 213 442 172 b 289 -6 442 39 378 -6 b 133 96 203 -6 133 29 b 231 185 133 144 176 175 b 151 292 188 203 151 242 b 286 408 151 368 213 408 b 418 321 358 408 418 376 b 329 240 418 271 369 246 m 219 331 b 276 263 219 297 240 278 l 324 243 b 361 321 344 258 361 283 b 286 388 361 358 335 388 b 219 331 243 388 219 363 m 236 182 b 194 100 208 165 194 136 b 289 17 194 51 231 17 b 371 76 339 17 371 40 b 300 156 371 119 346 136 l 236 182 "},"⅝":{"ha":563,"x_min":0,"x_max":0,"o":"m 440 706 b 278 564 440 615 365 564 b 140 658 206 564 140 596 b 206 724 140 700 169 724 b 258 693 235 724 251 711 l 256 693 b 244 696 253 694 250 696 b 214 647 225 696 214 676 b 278 585 214 614 236 585 b 351 696 331 585 351 642 b 268 801 351 757 324 801 b 189 764 236 801 207 783 l 188 764 l 211 976 b 332 967 251 971 300 967 b 426 993 376 967 404 969 b 329 889 426 935 407 889 b 222 907 293 889 246 899 l 210 797 b 306 833 228 815 258 833 b 440 706 386 833 440 781 m 535 497 l 535 475 l 28 475 l 28 497 m 329 240 b 442 115 407 213 442 172 b 289 -6 442 39 378 -6 b 133 96 203 -6 133 29 b 231 185 133 144 176 175 b 151 292 188 203 151 242 b 286 408 151 368 213 408 b 418 321 358 408 418 376 b 329 240 418 271 369 246 m 219 331 b 276 263 219 297 240 278 l 324 243 b 361 321 344 258 361 283 b 286 388 361 358 335 388 b 219 331 243 388 219 363 m 236 182 b 194 100 208 165 194 136 b 289 17 194 51 231 17 b 371 76 339 17 371 40 b 300 156 371 119 346 136 l 236 182 "},"⅞":{"ha":563,"x_min":0,"x_max":0,"o":"m 169 972 l 456 972 l 456 971 l 385 860 b 329 575 331 776 319 676 l 233 565 b 364 864 246 688 294 774 l 385 892 l 239 892 b 165 836 199 892 186 881 l 158 836 m 535 497 l 535 475 l 28 475 l 28 497 m 329 240 b 442 115 407 213 442 172 b 289 -6 442 39 378 -6 b 133 96 203 -6 133 29 b 231 185 133 144 176 175 b 151 292 188 203 151 242 b 286 408 151 368 213 408 b 418 321 358 408 418 376 b 329 240 418 271 369 246 m 219 331 b 276 263 219 297 240 278 l 324 243 b 361 321 344 258 361 283 b 286 388 361 358 335 388 b 219 331 243 388 219 363 m 236 182 b 194 100 208 165 194 136 b 289 17 194 51 231 17 b 371 76 339 17 371 40 b 300 156 371 119 346 136 l 236 182 "},"−":{"ha":665,"x_min":0,"x_max":0,"o":"m 61 465 l 604 465 l 604 429 l 61 429 "},"≈":{"ha":672,"x_min":0,"x_max":0,"o":"m 64 513 b 210 585 117 565 165 585 b 458 507 304 585 369 507 b 608 586 503 507 554 531 l 608 540 b 458 467 554 485 503 467 b 210 544 365 467 300 544 b 64 465 165 544 117 518 m 64 363 b 210 435 117 415 165 435 b 458 357 304 435 369 357 b 608 438 503 357 554 381 l 608 390 b 458 317 554 335 503 317 b 210 394 365 317 300 394 b 64 315 165 394 117 369 "},"≠":{"ha":672,"x_min":0,"x_max":0,"o":"m 276 344 l 160 201 l 114 201 l 231 344 l 64 344 l 64 379 l 258 379 l 371 518 l 64 518 l 64 553 l 399 553 l 513 693 l 558 693 l 444 553 l 608 553 l 608 518 l 417 518 l 304 379 l 608 379 l 608 344 "},"≤":{"ha":488,"x_min":0,"x_max":0,"o":"m 36 499 l 432 672 l 432 632 l 106 490 l 432 349 l 432 308 l 36 482 m 36 228 l 432 228 l 432 193 l 36 193 "},"≥":{"ha":488,"x_min":0,"x_max":0,"o":"m 451 482 l 56 308 l 56 349 l 382 490 l 56 632 l 56 672 l 451 499 m 451 193 l 56 193 l 56 228 l 451 228 "},"ﬀ":{"ha":858,"x_min":0,"x_max":0,"o":"m 564 675 l 564 760 b 565 792 564 771 564 782 l 558 792 b 486 819 528 792 503 804 b 549 893 518 829 549 854 b 425 1003 549 963 501 1003 b 247 746 299 1003 247 900 l 247 675 m 368 0 l 46 0 l 46 3 b 125 151 113 31 125 60 l 125 639 l 28 639 l 28 647 l 125 678 l 125 728 b 425 1026 125 921 256 1026 b 611 949 503 1026 574 994 b 814 1044 657 1015 729 1044 b 1003 926 922 1044 1003 1003 b 914 844 1003 881 969 844 b 850 874 886 844 864 854 b 900 940 876 882 900 896 b 814 1022 900 993 865 1022 b 686 803 710 1022 686 924 l 686 675 l 872 675 l 865 639 l 686 639 l 686 151 b 807 3 686 60 728 26 l 807 0 l 485 0 l 485 3 b 564 151 551 31 564 60 l 564 639 l 247 639 l 247 151 b 368 3 247 60 289 26 "},"ﬁ":{"ha":800,"x_min":0,"x_max":0,"o":"m 247 675 l 686 675 l 686 151 b 765 3 686 60 699 31 l 765 0 l 485 0 l 485 3 b 564 151 551 31 564 60 l 564 567 b 493 639 564 621 539 639 l 247 639 l 247 151 b 368 3 247 60 289 26 l 368 0 l 46 0 l 46 3 b 125 151 113 31 125 60 l 125 639 l 28 639 l 28 647 l 125 678 l 125 746 b 414 1044 125 939 256 1044 b 640 903 547 1044 640 992 b 542 814 640 850 603 814 b 467 840 508 814 485 824 b 525 922 503 851 525 881 b 414 1022 525 982 492 1022 b 247 764 299 1022 247 918 "},"ﬂ":{"ha":800,"x_min":0,"x_max":0,"o":"m 686 151 b 765 3 686 60 699 31 l 765 0 l 485 0 l 485 3 b 564 151 551 31 564 60 l 564 797 b 390 1022 564 904 521 1022 b 247 803 292 1022 247 924 l 247 675 l 433 675 l 426 639 l 247 639 l 247 151 b 368 3 247 60 289 26 l 368 0 l 46 0 l 46 3 b 125 151 113 31 125 60 l 125 639 l 28 639 l 28 647 l 125 678 l 125 760 b 390 1044 125 963 253 1044 b 564 958 478 1044 538 996 b 683 1040 610 972 650 1001 l 686 1040 "},"ﬃ":{"ha":1239,"x_min":0,"x_max":0,"o":"m 564 675 l 564 746 b 567 792 564 763 565 778 l 558 792 b 486 819 528 792 503 804 b 549 893 518 829 549 854 b 425 1003 549 963 501 1003 b 247 746 299 1003 247 900 l 247 675 m 368 0 l 46 0 l 46 3 b 125 151 113 31 125 60 l 125 639 l 28 639 l 28 647 l 125 678 l 125 728 b 425 1026 125 921 256 1026 b 621 936 510 1026 586 989 b 853 1044 674 1007 758 1044 b 1079 903 986 1044 1079 992 b 981 814 1079 850 1042 814 b 906 840 947 814 924 824 b 964 922 942 851 964 881 b 853 1022 964 982 931 1022 b 686 764 738 1022 686 918 l 686 675 l 1125 675 l 1125 151 b 1204 3 1125 60 1138 31 l 1204 0 l 924 0 l 924 3 b 1003 151 990 31 1003 60 l 1003 567 b 932 639 1003 621 978 639 l 686 639 l 686 151 b 807 3 686 60 728 26 l 807 0 l 485 0 l 485 3 b 564 151 551 31 564 60 l 564 639 l 247 639 l 247 151 b 368 3 247 60 289 26 "},"ﬄ":{"ha":1239,"x_min":0,"x_max":0,"o":"m 564 675 l 564 760 b 565 792 564 771 564 782 l 558 792 b 486 819 528 792 503 804 b 549 893 518 829 549 854 b 425 1003 549 963 501 1003 b 247 746 299 1003 247 900 l 247 675 m 368 0 l 46 0 l 46 3 b 125 151 113 31 125 60 l 125 639 l 28 639 l 28 647 l 125 678 l 125 728 b 425 1026 125 921 256 1026 b 615 944 504 1026 578 993 b 829 1044 665 1014 746 1044 b 1003 958 917 1044 976 996 b 1122 1040 1049 972 1089 1001 l 1125 1040 l 1125 151 b 1204 3 1125 60 1138 31 l 1204 0 l 924 0 l 924 3 b 1003 151 990 31 1003 60 l 1003 797 b 829 1022 1003 904 960 1022 b 686 803 731 1022 686 924 l 686 675 l 872 675 l 865 639 l 686 639 l 686 151 b 807 3 686 60 728 26 l 807 0 l 485 0 l 485 3 b 564 151 551 31 564 60 l 564 639 l 247 639 l 247 151 b 368 3 247 60 289 26 "}}}
